<?xml version="1.0" encoding="UTF-8"?>
<svg xmlns="http://www.w3.org/2000/svg" width="65mm" height="71mm" viewBox="0 0 65 71">
  <rect x="0" y="9" width="3" height="2" fill="black"/>
  <rect x="0" y="11" width="4" height="1" fill="black"/>
  <rect x="0" y="12" width="6" height="1" fill="black"/>
  <rect x="0" y="13" width="8" height="1" fill="black"/>
  <rect x="0" y="15" width="21" height="1" fill="black"/>
  <rect x="0" y="14" width="22" height="1" fill="black"/>
  <rect x="1" y="8" width="2" height="1" fill="black"/>
  <rect x="1" y="16" width="20" height="1" fill="black"/>
  <rect x="2" y="7" width="1" height="1" fill="black"/>
  <rect x="2" y="6" width="2" height="1" fill="black"/>
  <rect x="2" y="17" width="20" height="1" fill="black"/>
  <rect x="3" y="59" width="6" height="1" fill="black"/>
  <rect x="3" y="58" width="7" height="1" fill="black"/>
  <rect x="3" y="57" width="8" height="1" fill="black"/>
  <rect x="3" y="55" width="27" height="1" fill="black"/>
  <rect x="3" y="56" width="58" height="1" fill="black"/>
  <rect x="4" y="60" width="5" height="1" fill="black"/>
  <rect x="4" y="61" width="6" height="1" fill="black"/>
  <rect x="4" y="18" width="21" height="1" fill="black"/>
  <rect x="4" y="54" width="25" height="1" fill="black"/>
  <rect x="5" y="62" width="5" height="1" fill="black"/>
  <rect x="5" y="53" width="24" height="1" fill="black"/>
  <rect x="6" y="63" width="4" height="1" fill="black"/>
  <rect x="6" y="64" width="5" height="1" fill="black"/>
  <rect x="6" y="19" width="21" height="1" fill="black"/>
  <rect x="6" y="52" width="23" height="1" fill="black"/>
  <rect x="7" y="68" width="2" height="1" fill="black"/>
  <rect x="7" y="67" width="3" height="1" fill="black"/>
  <rect x="7" y="65" width="4" height="2" fill="black"/>
  <rect x="7" y="24" width="8" height="3" fill="black"/>
  <rect x="7" y="22" width="9" height="2" fill="black"/>
  <rect x="7" y="27" width="9" height="2" fill="black"/>
  <rect x="7" y="20" width="22" height="1" fill="black"/>
  <rect x="7" y="51" width="22" height="1" fill="black"/>
  <rect x="7" y="21" width="23" height="1" fill="black"/>
  <rect x="8" y="29" width="8" height="1" fill="black"/>
  <rect x="8" y="30" width="9" height="1" fill="black"/>
  <rect x="8" y="50" width="21" height="1" fill="black"/>
  <rect x="9" y="31" width="10" height="1" fill="black"/>
  <rect x="9" y="32" width="20" height="1" fill="black"/>
  <rect x="10" y="33" width="19" height="1" fill="black"/>
  <rect x="10" y="49" width="19" height="1" fill="black"/>
  <rect x="11" y="1" width="2" height="2" fill="black"/>
  <rect x="11" y="3" width="3" height="1" fill="black"/>
  <rect x="11" y="4" width="4" height="1" fill="black"/>
  <rect x="11" y="5" width="7" height="1" fill="black"/>
  <rect x="11" y="34" width="18" height="2" fill="black"/>
  <rect x="12" y="0" width="1" height="1" fill="black"/>
  <rect x="12" y="64" width="7" height="1" fill="black"/>
  <rect x="12" y="40" width="8" height="2" fill="black"/>
  <rect x="12" y="65" width="15" height="1" fill="black"/>
  <rect x="12" y="36" width="17" height="4" fill="black"/>
  <rect x="12" y="48" width="17" height="1" fill="black"/>
  <rect x="13" y="6" width="7" height="1" fill="black"/>
  <rect x="13" y="63" width="7" height="1" fill="black"/>
  <rect x="13" y="42" width="8" height="1" fill="black"/>
  <rect x="13" y="62" width="8" height="1" fill="black"/>
  <rect x="13" y="43" width="9" height="1" fill="black"/>
  <rect x="13" y="61" width="14" height="1" fill="black"/>
  <rect x="13" y="66" width="14" height="1" fill="black"/>
  <rect x="13" y="67" width="15" height="1" fill="black"/>
  <rect x="13" y="47" width="16" height="1" fill="black"/>
  <rect x="13" y="57" width="38" height="1" fill="black"/>
  <rect x="14" y="7" width="7" height="1" fill="black"/>
  <rect x="14" y="68" width="7" height="1" fill="black"/>
  <rect x="14" y="13" width="8" height="1" fill="black"/>
  <rect x="14" y="44" width="15" height="3" fill="black"/>
  <rect x="14" y="58" width="37" height="3" fill="black"/>
  <rect x="16" y="8" width="6" height="1" fill="black"/>
  <rect x="16" y="12" width="6" height="1" fill="black"/>
  <rect x="17" y="9" width="5" height="3" fill="black"/>
  <rect x="17" y="22" width="30" height="3" fill="black"/>
  <rect x="18" y="25" width="28" height="1" fill="black"/>
  <rect x="19" y="26" width="27" height="1" fill="black"/>
  <rect x="20" y="28" width="6" height="4" fill="black"/>
  <rect x="20" y="27" width="7" height="1" fill="black"/>
  <rect x="22" y="40" width="7" height="1" fill="black"/>
  <rect x="23" y="64" width="2" height="1" fill="black"/>
  <rect x="23" y="41" width="6" height="3" fill="black"/>
  <rect x="25" y="68" width="3" height="1" fill="black"/>
  <rect x="26" y="70" width="1" height="1" fill="black"/>
  <rect x="26" y="69" width="2" height="1" fill="black"/>
  <rect x="32" y="61" width="19" height="1" fill="black"/>
  <rect x="34" y="21" width="13" height="1" fill="black"/>
  <rect x="36" y="20" width="21" height="1" fill="black"/>
  <rect x="37" y="68" width="2" height="2" fill="black"/>
  <rect x="37" y="40" width="5" height="4" fill="black"/>
  <rect x="37" y="28" width="7" height="4" fill="black"/>
  <rect x="37" y="27" width="8" height="1" fill="black"/>
  <rect x="37" y="45" width="13" height="2" fill="black"/>
  <rect x="37" y="44" width="14" height="1" fill="black"/>
  <rect x="37" y="47" width="14" height="1" fill="black"/>
  <rect x="37" y="67" width="14" height="1" fill="black"/>
  <rect x="37" y="39" width="15" height="1" fill="black"/>
  <rect x="37" y="65" width="15" height="2" fill="black"/>
  <rect x="37" y="35" width="16" height="4" fill="black"/>
  <rect x="37" y="48" width="16" height="1" fill="black"/>
  <rect x="37" y="33" width="17" height="2" fill="black"/>
  <rect x="37" y="32" width="18" height="1" fill="black"/>
  <rect x="37" y="49" width="18" height="1" fill="black"/>
  <rect x="37" y="50" width="19" height="1" fill="black"/>
  <rect x="37" y="51" width="20" height="1" fill="black"/>
  <rect x="37" y="52" width="22" height="1" fill="black"/>
  <rect x="37" y="53" width="23" height="1" fill="black"/>
  <rect x="37" y="54" width="24" height="2" fill="black"/>
  <rect x="38" y="70" width="1" height="1" fill="black"/>
  <rect x="38" y="19" width="20" height="1" fill="black"/>
  <rect x="39" y="64" width="2" height="1" fill="black"/>
  <rect x="39" y="18" width="22" height="1" fill="black"/>
  <rect x="41" y="17" width="21" height="1" fill="black"/>
  <rect x="42" y="9" width="5" height="2" fill="black"/>
  <rect x="42" y="8" width="6" height="1" fill="black"/>
  <rect x="42" y="11" width="6" height="1" fill="black"/>
  <rect x="42" y="12" width="7" height="1" fill="black"/>
  <rect x="42" y="13" width="9" height="1" fill="black"/>
  <rect x="43" y="7" width="7" height="1" fill="black"/>
  <rect x="43" y="43" width="8" height="1" fill="black"/>
  <rect x="43" y="16" width="20" height="1" fill="black"/>
  <rect x="43" y="14" width="21" height="2" fill="black"/>
  <rect x="44" y="6" width="7" height="1" fill="black"/>
  <rect x="44" y="68" width="7" height="1" fill="black"/>
  <rect x="44" y="40" width="8" height="3" fill="black"/>
  <rect x="44" y="62" width="8" height="1" fill="black"/>
  <rect x="45" y="63" width="7" height="2" fill="black"/>
  <rect x="45" y="31" width="11" height="1" fill="black"/>
  <rect x="46" y="5" width="7" height="1" fill="black"/>
  <rect x="47" y="30" width="9" height="1" fill="black"/>
  <rect x="48" y="4" width="5" height="1" fill="black"/>
  <rect x="48" y="21" width="9" height="1" fill="black"/>
  <rect x="48" y="29" width="9" height="1" fill="black"/>
  <rect x="49" y="28" width="8" height="1" fill="black"/>
  <rect x="49" y="22" width="9" height="6" fill="black"/>
  <rect x="50" y="3" width="4" height="1" fill="black"/>
  <rect x="51" y="0" width="1" height="1" fill="black"/>
  <rect x="51" y="1" width="2" height="1" fill="black"/>
  <rect x="51" y="2" width="3" height="1" fill="black"/>
  <rect x="54" y="64" width="4" height="3" fill="black"/>
  <rect x="54" y="63" width="5" height="1" fill="black"/>
  <rect x="54" y="62" width="6" height="1" fill="black"/>
  <rect x="54" y="57" width="8" height="1" fill="black"/>
  <rect x="55" y="67" width="3" height="1" fill="black"/>
  <rect x="55" y="61" width="5" height="1" fill="black"/>
  <rect x="55" y="58" width="6" height="3" fill="black"/>
  <rect x="55" y="13" width="10" height="1" fill="black"/>
  <rect x="57" y="68" width="1" height="1" fill="black"/>
  <rect x="59" y="12" width="6" height="1" fill="black"/>
  <rect x="60" y="5" width="1" height="1" fill="black"/>
  <rect x="60" y="6" width="2" height="1" fill="black"/>
  <rect x="60" y="11" width="4" height="1" fill="black"/>
  <rect x="61" y="7" width="2" height="1" fill="black"/>
  <rect x="61" y="8" width="3" height="3" fill="black"/>
</svg>
