<?xml version="1.0" encoding="UTF-8"?>
<svg xmlns="http://www.w3.org/2000/svg" width="1mm" height="1.079530mm" viewBox="0 0 65.769 71.000">
  <path fill="black" fill-rule="evenodd" d="M 2.598 6.0 C 2.598 6.0 4.598 6.0 4.598 6.0 C 4.598 6.0 3.931 10.667 4.598 12.0 C 5.264 13.333 6.598 13.833 8.598 14.0 C 10.598 14.167 16.598 13.0 16.598 13.0 C 16.598 13.0 17.598 9.0 17.598 9.0 C 17.598 9.0 12.598 7.333 11.598 6.0 C 10.598 4.667 11.264 2.0 11.598 1.0 C 11.931 0.0 13.598 0.0 13.598 0.0 C 13.598 0.0 13.264 2.167 13.598 3.0 C 13.931 3.833 14.764 4.667 15.598 5.0 C 16.431 5.333 17.431 4.5 18.598 5.0 C 19.764 5.5 22.098 6.0 22.598 8.0 C 23.098 10.0 21.598 17.0 21.598 17.0 C 21.598 17.0 28.098 19.167 29.598 20.0 C 31.098 20.833 29.764 21.667 30.598 22.0 C 31.431 22.333 32.431 22.833 34.598 22.0 C 36.764 21.167 42.264 19.333 43.598 17.0 C 44.931 14.667 42.598 8.0 42.598 8.0 C 42.598 8.0 49.098 5.333 50.598 4.0 C 52.098 2.667 51.598 0.0 51.598 0.0 C 51.598 0.0 54.098 1.333 54.598 2.0 C 55.098 2.667 55.764 2.833 54.598 4.0 C 53.431 5.167 47.598 9.0 47.598 9.0 C 47.598 9.0 47.598 12.333 49.598 13.0 C 51.598 13.667 57.598 13.333 59.598 13.0 C 61.598 12.667 61.431 12.333 61.598 11.0 C 61.764 9.667 60.598 5.0 60.598 5.0 C 60.598 5.0 63.764 6.5 64.598 8.0 C 65.431 9.5 66.098 12.167 65.598 14.0 C 65.098 15.833 62.931 18.0 61.598 19.0 C 60.264 20.0 57.598 20.0 57.598 20.0 C 57.598 20.0 59.264 25.5 58.598 28.0 C 57.931 30.5 54.598 32.5 53.598 35.0 C 52.598 37.5 53.098 41.333 52.598 43.0 C 52.098 44.667 50.764 44.167 50.598 45.0 C 50.431 45.833 50.764 47.333 51.598 48.0 C 52.431 48.667 53.931 48.0 55.598 49.0 C 57.264 50.0 60.431 52.5 61.598 54.0 C 62.764 55.5 62.764 56.5 62.598 58.0 C 62.431 59.5 61.264 62.0 60.598 63.0 C 59.931 64.0 58.931 63.0 58.598 64.0 C 58.264 65.0 58.598 69.0 58.598 69.0 C 58.598 69.0 55.264 69.0 54.598 67.0 C 53.931 65.0 54.598 57.0 54.598 57.0 C 54.598 57.0 51.598 57.0 51.598 57.0 C 51.598 57.0 51.598 69.0 51.598 69.0 C 51.598 69.0 39.598 68.0 39.598 68.0 C 39.598 68.0 38.598 71.0 38.598 71.0 C 38.598 71.0 37.598 65.0 37.598 65.0 C 37.598 65.0 45.598 65.0 45.598 65.0 C 45.598 65.0 45.598 63.0 45.598 63.0 C 45.598 63.0 36.598 61.167 32.598 61.0 C 28.598 60.833 23.764 61.5 21.598 62.0 C 19.431 62.5 19.598 64.0 19.598 64.0 C 19.598 64.0 27.598 65.0 27.598 65.0 C 27.598 65.0 27.598 71.0 27.598 71.0 C 27.598 71.0 27.764 68.333 25.598 68.0 C 23.431 67.667 16.764 69.333 14.598 69.0 C 12.431 68.667 12.598 67.333 12.598 66.0 C 12.598 64.667 14.431 62.5 14.598 61.0 C 14.764 59.5 13.598 57.0 13.598 57.0 C 13.598 57.0 9.598 59.0 9.598 59.0 C 9.598 59.0 11.598 67.0 11.598 67.0 C 11.598 67.0 7.598 69.0 7.598 69.0 C 7.598 69.0 8.264 66.5 7.598 65.0 C 6.931 63.5 4.264 61.667 3.598 60.0 C 2.931 58.333 2.764 56.667 3.598 55.0 C 4.431 53.333 7.098 51.0 8.598 50.0 C 10.098 49.0 11.598 49.5 12.598 49.0 C 13.598 48.5 14.264 47.833 14.598 47.0 C 14.931 46.167 14.931 44.833 14.598 44.0 C 14.264 43.167 12.931 43.333 12.598 42.0 C 12.264 40.667 13.431 38.167 12.598 36.0 C 11.764 33.833 8.431 31.667 7.598 29.0 C 6.764 26.333 8.764 22.167 7.598 20.0 C 6.431 17.833 1.764 17.833 0.598 16.0 C -0.569 14.167 0.264 10.333 0.598 9.0 C 0.931 7.667 2.264 8.5 2.598 8.0 C 2.931 7.5 2.598 6.0 2.598 6.0 Z M 48.598 21.0 C 48.598 21.0 47.264 25.833 46.598 27.0 C 45.931 28.167 44.931 27.167 44.598 28.0 C 44.264 28.833 44.598 32.0 44.598 32.0 C 44.598 32.0 48.931 30.833 49.598 29.0 C 50.264 27.167 48.598 21.0 48.598 21.0 Z M 20.598 32.0 C 20.598 32.0 21.264 28.667 20.598 27.0 C 19.931 25.333 16.598 22.0 16.598 22.0 C 16.598 22.0 15.931 28.333 16.598 30.0 C 17.264 31.667 20.598 32.0 20.598 32.0 Z M 37.598 56.0 C 37.598 56.0 37.598 27.0 37.598 27.0 C 37.598 27.0 27.598 27.0 27.598 27.0 C 27.598 27.0 26.598 32.0 26.598 32.0 C 26.598 32.0 29.598 32.0 29.598 32.0 C 29.598 32.0 29.598 55.0 29.598 55.0 C 29.598 55.0 37.598 56.0 37.598 56.0 Z M 23.598 44.0 C 23.598 44.0 23.598 41.0 23.598 41.0 C 23.598 41.0 20.598 40.0 20.598 40.0 C 20.598 40.0 20.098 41.333 20.598 42.0 C 21.098 42.667 23.598 44.0 23.598 44.0 Z M 42.598 44.0 C 42.598 44.0 44.264 43.667 44.598 43.0 C 44.931 42.333 44.598 40.0 44.598 40.0 C 44.598 40.0 42.598 40.0 42.598 40.0 C 42.598 40.0 42.598 44.0 42.598 44.0 Z"/>
</svg>
