<?xml version="1.0" encoding="UTF-8"?>
<svg xmlns="http://www.w3.org/2000/svg" width="58mm" height="86mm" viewBox="0 0 58 86">
  <rect x="0" y="39" width="14" height="9" fill="black"/>
  <rect x="1" y="74" width="7" height="1" fill="black"/>
  <rect x="2" y="10" width="5" height="1" fill="black"/>
  <rect x="2" y="72" width="5" height="1" fill="black"/>
  <rect x="2" y="11" width="6" height="4" fill="black"/>
  <rect x="2" y="73" width="6" height="1" fill="black"/>
  <rect x="2" y="75" width="6" height="1" fill="black"/>
  <rect x="2" y="38" width="12" height="1" fill="black"/>
  <rect x="2" y="48" width="12" height="1" fill="black"/>
  <rect x="3" y="68" width="3" height="3" fill="black"/>
  <rect x="3" y="15" width="4" height="2" fill="black"/>
  <rect x="3" y="71" width="4" height="1" fill="black"/>
  <rect x="3" y="76" width="4" height="1" fill="black"/>
  <rect x="3" y="37" width="11" height="1" fill="black"/>
  <rect x="4" y="9" width="1" height="1" fill="black"/>
  <rect x="4" y="17" width="2" height="2" fill="black"/>
  <rect x="4" y="19" width="3" height="1" fill="black"/>
  <rect x="4" y="67" width="3" height="1" fill="black"/>
  <rect x="4" y="20" width="4" height="1" fill="black"/>
  <rect x="4" y="66" width="4" height="1" fill="black"/>
  <rect x="4" y="49" width="10" height="1" fill="black"/>
  <rect x="5" y="77" width="1" height="1" fill="black"/>
  <rect x="5" y="21" width="4" height="1" fill="black"/>
  <rect x="5" y="65" width="4" height="1" fill="black"/>
  <rect x="5" y="36" width="9" height="1" fill="black"/>
  <rect x="5" y="50" width="9" height="2" fill="black"/>
  <rect x="6" y="33" width="7" height="1" fill="black"/>
  <rect x="6" y="34" width="8" height="2" fill="black"/>
  <rect x="6" y="52" width="8" height="2" fill="black"/>
  <rect x="6" y="28" width="25" height="1" fill="black"/>
  <rect x="6" y="58" width="46" height="1" fill="black"/>
  <rect x="6" y="64" width="46" height="1" fill="black"/>
  <rect x="6" y="22" width="47" height="1" fill="black"/>
  <rect x="6" y="26" width="47" height="2" fill="black"/>
  <rect x="6" y="59" width="47" height="2" fill="black"/>
  <rect x="7" y="32" width="3" height="1" fill="black"/>
  <rect x="7" y="30" width="4" height="2" fill="black"/>
  <rect x="7" y="29" width="5" height="1" fill="black"/>
  <rect x="7" y="54" width="7" height="3" fill="black"/>
  <rect x="7" y="57" width="22" height="1" fill="black"/>
  <rect x="7" y="24" width="44" height="1" fill="black"/>
  <rect x="7" y="62" width="44" height="1" fill="black"/>
  <rect x="7" y="23" width="45" height="1" fill="black"/>
  <rect x="7" y="25" width="45" height="1" fill="black"/>
  <rect x="7" y="61" width="45" height="1" fill="black"/>
  <rect x="7" y="63" width="45" height="1" fill="black"/>
  <rect x="11" y="21" width="32" height="1" fill="black"/>
  <rect x="11" y="65" width="37" height="1" fill="black"/>
  <rect x="12" y="20" width="1" height="1" fill="black"/>
  <rect x="15" y="66" width="3" height="2" fill="black"/>
  <rect x="16" y="19" width="2" height="2" fill="black"/>
  <rect x="16" y="18" width="3" height="1" fill="black"/>
  <rect x="16" y="68" width="3" height="2" fill="black"/>
  <rect x="17" y="17" width="2" height="1" fill="black"/>
  <rect x="17" y="16" width="3" height="1" fill="black"/>
  <rect x="17" y="70" width="3" height="1" fill="black"/>
  <rect x="18" y="15" width="3" height="1" fill="black"/>
  <rect x="18" y="71" width="3" height="1" fill="black"/>
  <rect x="18" y="72" width="4" height="1" fill="black"/>
  <rect x="19" y="14" width="3" height="1" fill="black"/>
  <rect x="19" y="73" width="4" height="1" fill="black"/>
  <rect x="19" y="1" width="6" height="4" fill="black"/>
  <rect x="19" y="79" width="6" height="4" fill="black"/>
  <rect x="20" y="12" width="3" height="2" fill="black"/>
  <rect x="20" y="74" width="3" height="1" fill="black"/>
  <rect x="20" y="0" width="4" height="1" fill="black"/>
  <rect x="20" y="6" width="4" height="1" fill="black"/>
  <rect x="20" y="77" width="4" height="2" fill="black"/>
  <rect x="20" y="83" width="4" height="1" fill="black"/>
  <rect x="20" y="5" width="5" height="1" fill="black"/>
  <rect x="20" y="32" width="5" height="22" fill="black"/>
  <rect x="20" y="30" width="6" height="2" fill="black"/>
  <rect x="20" y="54" width="6" height="2" fill="black"/>
  <rect x="20" y="29" width="7" height="1" fill="black"/>
  <rect x="20" y="56" width="7" height="1" fill="black"/>
  <rect x="21" y="7" width="3" height="5" fill="black"/>
  <rect x="21" y="75" width="3" height="2" fill="black"/>
  <rect x="21" y="20" width="17" height="1" fill="black"/>
  <rect x="21" y="66" width="17" height="1" fill="black"/>
  <rect x="22" y="19" width="14" height="1" fill="black"/>
  <rect x="22" y="67" width="14" height="1" fill="black"/>
  <rect x="23" y="18" width="12" height="1" fill="black"/>
  <rect x="23" y="68" width="12" height="2" fill="black"/>
  <rect x="24" y="71" width="10" height="1" fill="black"/>
  <rect x="24" y="16" width="11" height="2" fill="black"/>
  <rect x="24" y="70" width="11" height="1" fill="black"/>
  <rect x="32" y="34" width="10" height="19" fill="black"/>
  <rect x="33" y="7" width="6" height="1" fill="black"/>
  <rect x="33" y="80" width="6" height="5" fill="black"/>
  <rect x="33" y="5" width="7" height="2" fill="black"/>
  <rect x="34" y="77" width="3" height="1" fill="black"/>
  <rect x="34" y="3" width="4" height="1" fill="black"/>
  <rect x="34" y="9" width="4" height="1" fill="black"/>
  <rect x="34" y="78" width="4" height="2" fill="black"/>
  <rect x="34" y="85" width="4" height="1" fill="black"/>
  <rect x="34" y="4" width="5" height="1" fill="black"/>
  <rect x="34" y="8" width="5" height="1" fill="black"/>
  <rect x="35" y="11" width="2" height="1" fill="black"/>
  <rect x="35" y="76" width="2" height="1" fill="black"/>
  <rect x="35" y="10" width="3" height="1" fill="black"/>
  <rect x="35" y="12" width="3" height="1" fill="black"/>
  <rect x="35" y="74" width="3" height="2" fill="black"/>
  <rect x="35" y="73" width="4" height="1" fill="black"/>
  <rect x="36" y="13" width="3" height="1" fill="black"/>
  <rect x="36" y="14" width="4" height="1" fill="black"/>
  <rect x="36" y="72" width="4" height="1" fill="black"/>
  <rect x="37" y="15" width="4" height="1" fill="black"/>
  <rect x="37" y="71" width="4" height="1" fill="black"/>
  <rect x="38" y="16" width="4" height="1" fill="black"/>
  <rect x="38" y="70" width="4" height="1" fill="black"/>
  <rect x="39" y="17" width="3" height="1" fill="black"/>
  <rect x="39" y="69" width="3" height="1" fill="black"/>
  <rect x="40" y="18" width="3" height="3" fill="black"/>
  <rect x="40" y="66" width="3" height="3" fill="black"/>
  <rect x="44" y="21" width="4" height="1" fill="black"/>
  <rect x="44" y="28" width="8" height="1" fill="black"/>
  <rect x="44" y="57" width="8" height="1" fill="black"/>
  <rect x="45" y="66" width="2" height="1" fill="black"/>
  <rect x="47" y="29" width="5" height="1" fill="black"/>
  <rect x="47" y="56" width="5" height="1" fill="black"/>
  <rect x="48" y="30" width="4" height="2" fill="black"/>
  <rect x="48" y="53" width="4" height="3" fill="black"/>
  <rect x="49" y="32" width="3" height="3" fill="black"/>
  <rect x="49" y="35" width="4" height="2" fill="black"/>
  <rect x="49" y="50" width="4" height="3" fill="black"/>
  <rect x="49" y="49" width="5" height="1" fill="black"/>
  <rect x="49" y="37" width="6" height="1" fill="black"/>
  <rect x="49" y="38" width="8" height="1" fill="black"/>
  <rect x="49" y="39" width="9" height="10" fill="black"/>
  <rect x="50" y="65" width="3" height="1" fill="black"/>
  <rect x="50" y="21" width="4" height="1" fill="black"/>
  <rect x="50" y="66" width="4" height="1" fill="black"/>
  <rect x="50" y="75" width="6" height="3" fill="black"/>
  <rect x="50" y="11" width="7" height="1" fill="black"/>
  <rect x="51" y="20" width="3" height="1" fill="black"/>
  <rect x="51" y="67" width="3" height="1" fill="black"/>
  <rect x="51" y="9" width="5" height="1" fill="black"/>
  <rect x="51" y="12" width="5" height="2" fill="black"/>
  <rect x="51" y="73" width="5" height="2" fill="black"/>
  <rect x="51" y="78" width="5" height="1" fill="black"/>
  <rect x="51" y="10" width="6" height="1" fill="black"/>
  <rect x="52" y="19" width="2" height="1" fill="black"/>
  <rect x="52" y="8" width="3" height="1" fill="black"/>
  <rect x="52" y="15" width="3" height="2" fill="black"/>
  <rect x="52" y="18" width="3" height="1" fill="black"/>
  <rect x="52" y="68" width="3" height="5" fill="black"/>
  <rect x="52" y="14" width="4" height="1" fill="black"/>
  <rect x="53" y="17" width="2" height="1" fill="black"/>
</svg>
