<?xml version="1.0" encoding="UTF-8"?>
<svg xmlns="http://www.w3.org/2000/svg" width="1mm" height="1.482759mm" viewBox="0 0 58.000 86.000">
  <path fill="black" fill-rule="evenodd" d="M 56.0 79.0 C 56.0 79.0 50.0 78.0 50.0 78.0 C 50.0 78.0 49.667 75.833 50.0 75.0 C 50.333 74.167 51.667 74.167 52.0 73.0 C 52.333 71.833 52.333 69.0 52.0 68.0 C 51.667 67.0 50.333 67.5 50.0 67.0 C 49.667 66.5 50.0 65.0 50.0 65.0 C 50.0 65.0 48.5 64.667 48.0 65.0 C 47.5 65.333 47.0 67.0 47.0 67.0 C 47.0 67.0 43.0 66.0 43.0 66.0 C 43.0 66.0 42.833 69.667 42.0 71.0 C 41.167 72.333 38.667 71.5 38.0 74.0 C 37.333 76.5 38.0 86.0 38.0 86.0 C 38.0 86.0 33.0 85.0 33.0 85.0 C 33.0 85.0 32.667 82.0 33.0 80.0 C 33.333 78.0 33.833 74.833 35.0 73.0 C 36.167 71.167 39.167 70.167 40.0 69.0 C 40.833 67.833 40.0 66.0 40.0 66.0 C 40.0 66.0 37.0 66.0 36.0 67.0 C 35.0 68.0 34.0 72.0 34.0 72.0 C 34.0 72.0 24.0 72.0 24.0 72.0 C 24.0 72.0 23.5 69.0 23.0 68.0 C 22.5 67.0 21.833 66.333 21.0 66.0 C 20.167 65.667 18.0 66.0 18.0 66.0 C 18.0 66.0 18.0 68.5 19.0 70.0 C 20.0 71.5 23.167 72.667 24.0 75.0 C 24.833 77.333 24.0 84.0 24.0 84.0 C 24.0 84.0 19.0 83.0 19.0 83.0 C 19.0 83.0 21.0 75.0 21.0 75.0 C 21.0 75.0 19.0 74.5 18.0 73.0 C 17.0 71.5 16.5 67.333 15.0 66.0 C 13.5 64.667 10.5 64.667 9.0 65.0 C 7.5 65.333 6.5 67.0 6.0 68.0 C 5.5 69.0 5.667 70.167 6.0 71.0 C 6.333 71.833 7.667 72.167 8.0 73.0 C 8.333 73.833 8.333 75.167 8.0 76.0 C 7.667 76.833 6.0 78.0 6.0 78.0 C 6.0 78.0 1.0 75.0 1.0 75.0 C 1.0 75.0 3.0 67.833 4.0 66.0 C 5.0 64.167 6.5 66.0 7.0 64.0 C 7.5 62.0 7.5 56.5 7.0 54.0 C 6.5 51.5 5.167 50.0 4.0 49.0 C 2.833 48.0 0.0 48.0 0.0 48.0 C 0.0 48.0 0.0 39.0 0.0 39.0 C 0.0 39.0 3.833 38.0 5.0 37.0 C 6.167 36.0 6.667 35.333 7.0 33.0 C 7.333 30.667 7.5 25.0 7.0 23.0 C 6.5 21.0 4.833 23.167 4.0 21.0 C 3.167 18.833 2.0 10.0 2.0 10.0 C 2.0 10.0 4.0 8.833 5.0 9.0 C 6.0 9.167 8.0 11.0 8.0 11.0 C 8.0 11.0 5.833 17.167 6.0 19.0 C 6.167 20.833 8.167 21.5 9.0 22.0 C 9.833 22.5 10.5 22.333 11.0 22.0 C 11.5 21.667 12.0 20.0 12.0 20.0 C 12.0 20.0 16.0 21.0 16.0 21.0 C 16.0 21.0 16.333 17.167 17.0 16.0 C 17.667 14.833 19.5 16.667 20.0 14.0 C 20.5 11.333 20.0 0.0 20.0 0.0 C 20.0 0.0 25.0 1.0 25.0 1.0 C 25.0 1.0 25.167 4.167 25.0 6.0 C 24.833 7.833 25.0 10.167 24.0 12.0 C 23.0 13.833 20.0 15.5 19.0 17.0 C 18.0 18.5 18.0 21.0 18.0 21.0 C 18.0 21.0 20.0 21.833 21.0 21.0 C 22.0 20.167 21.667 16.833 24.0 16.0 C 26.333 15.167 35.0 16.0 35.0 16.0 C 35.0 16.0 35.0 19.0 35.0 19.0 C 35.0 19.0 40.0 21.0 40.0 21.0 C 40.0 21.0 40.667 19.0 40.0 18.0 C 39.333 17.0 37.167 16.667 36.0 15.0 C 34.833 13.333 33.333 10.0 33.0 8.0 C 32.667 6.0 34.0 3.0 34.0 3.0 C 34.0 3.0 37.0 2.667 38.0 3.0 C 39.0 3.333 40.0 5.0 40.0 5.0 C 40.0 5.0 37.0 12.0 37.0 12.0 C 37.0 12.0 41.0 14.333 42.0 16.0 C 43.0 17.667 43.0 22.0 43.0 22.0 C 43.0 22.0 48.5 22.333 50.0 22.0 C 51.5 21.667 51.5 20.833 52.0 20.0 C 52.5 19.167 53.333 18.333 53.0 17.0 C 52.667 15.667 50.167 13.5 50.0 12.0 C 49.833 10.5 51.167 8.667 52.0 8.0 C 52.833 7.333 54.167 7.667 55.0 8.0 C 55.833 8.333 57.167 7.667 57.0 10.0 C 56.833 12.333 55.0 19.667 54.0 22.0 C 53.0 24.333 51.0 24.0 51.0 24.0 C 51.0 24.0 52.833 24.167 53.0 26.0 C 53.167 27.833 52.0 33.167 52.0 35.0 C 52.0 36.833 52.0 36.333 53.0 37.0 C 54.0 37.667 58.0 39.0 58.0 39.0 C 58.0 39.0 58.0 49.0 58.0 49.0 C 58.0 49.0 53.0 50.0 53.0 50.0 C 53.0 50.0 53.333 59.0 53.0 61.0 C 52.667 63.0 51.0 62.0 51.0 62.0 C 51.0 62.0 54.167 65.167 55.0 68.0 C 55.833 70.833 56.0 79.0 56.0 79.0 Z M 47.0 29.0 C 44.0 28.333 34.5 27.833 31.0 28.0 C 27.5 28.167 27.0 25.667 26.0 30.0 C 25.0 34.333 24.833 49.5 25.0 54.0 C 25.167 58.5 23.833 56.333 27.0 57.0 C 30.167 57.667 40.5 58.167 44.0 58.0 C 47.5 57.833 47.167 60.333 48.0 56.0 C 48.833 51.667 49.167 36.5 49.0 32.0 C 48.833 27.5 50.0 29.667 47.0 29.0 Z M 20.0 57.0 C 20.0 57.0 20.0 29.0 20.0 29.0 C 20.0 29.0 13.667 28.333 12.0 29.0 C 10.333 29.667 10.0 33.0 10.0 33.0 C 10.0 33.0 14.0 34.0 14.0 34.0 C 14.0 34.0 14.0 57.0 14.0 57.0 C 14.0 57.0 20.0 57.0 20.0 57.0 Z M 32.0 34.0 C 32.0 34.0 42.0 34.0 42.0 34.0 C 42.0 34.0 42.0 53.0 42.0 53.0 C 42.0 53.0 32.0 53.0 32.0 53.0 C 32.0 53.0 32.0 34.0 32.0 34.0 Z"/>
</svg>
