<?xml version="1.0" encoding="UTF-8"?>
<svg xmlns="http://www.w3.org/2000/svg" width="1mm" height="1.004183mm" viewBox="0 0 81.133 81.473">
  <path fill="black" fill-rule="evenodd" d="M 39.962 0.008 C 43.795 0.175 52.962 3.008 52.962 3.008 C 52.962 3.008 50.129 15.675 52.962 20.008 C 55.795 24.342 67.129 23.008 69.962 29.008 C 72.795 35.008 69.295 51.175 69.962 56.008 C 70.629 60.842 72.129 56.342 73.962 58.008 C 75.795 59.675 80.295 63.508 80.962 66.008 C 81.629 68.508 80.295 70.508 77.962 73.008 C 75.629 75.508 69.962 79.842 66.962 81.008 C 63.962 82.175 61.462 80.842 59.962 80.008 C 58.462 79.175 59.462 77.675 57.962 76.008 C 56.462 74.342 53.295 70.508 50.962 70.008 C 48.629 69.508 45.295 72.175 43.962 73.008 C 42.629 73.842 43.795 74.675 42.962 75.008 C 42.129 75.342 41.129 75.842 38.962 75.008 C 36.795 74.175 29.962 70.008 29.962 70.008 C 29.962 70.008 23.629 78.175 20.962 80.008 C 18.295 81.842 16.462 81.675 13.962 81.008 C 11.462 80.342 7.295 77.175 5.962 76.008 C 4.629 74.842 6.795 75.175 5.962 74.008 C 5.129 72.842 1.795 70.675 0.962 69.008 C 0.129 67.342 -0.705 66.175 0.962 64.008 C 2.629 61.842 9.295 61.675 10.962 56.008 C 12.629 50.342 10.295 35.008 10.962 30.008 C 11.629 25.008 12.129 27.675 14.962 26.008 C 17.795 24.342 25.795 23.675 27.962 20.008 C 30.129 16.342 27.629 7.008 27.962 4.008 C 28.295 1.008 27.962 2.675 29.962 2.008 C 31.962 1.342 36.129 -0.158 39.962 0.008 Z M 32.962 26.008 C 32.962 26.008 47.962 26.008 47.962 26.008 C 47.962 26.008 49.629 21.508 49.962 18.008 C 50.295 14.508 49.962 5.008 49.962 5.008 C 49.962 5.008 41.795 3.175 38.962 3.008 C 36.129 2.842 34.295 3.508 32.962 4.008 C 31.629 4.508 30.962 2.342 30.962 6.008 C 30.962 9.675 32.962 26.008 32.962 26.008 Z M 32.962 13.008 C 32.962 13.008 33.962 6.008 33.962 6.008 C 33.962 6.008 47.962 6.008 47.962 6.008 C 47.962 6.008 47.962 13.008 47.962 13.008 C 47.962 13.008 32.962 13.008 32.962 13.008 Z M 33.962 16.008 C 33.962 16.008 46.962 16.008 46.962 16.008 C 46.962 16.008 46.962 24.008 46.962 24.008 C 46.962 24.008 34.962 24.008 34.962 24.008 C 34.962 24.008 33.962 16.008 33.962 16.008 Z M 35.962 57.008 C 35.962 57.008 35.962 29.008 35.962 29.008 C 35.962 29.008 31.462 28.675 29.962 29.008 C 28.462 29.342 27.462 30.175 26.962 31.008 C 26.462 31.842 26.962 34.008 26.962 34.008 C 26.962 34.008 29.962 35.008 29.962 35.008 C 29.962 35.008 29.962 57.008 29.962 57.008 C 29.962 57.008 35.962 57.008 35.962 57.008 Z M 50.962 58.008 C 50.962 58.008 50.962 29.008 50.962 29.008 C 50.962 29.008 47.462 28.675 45.962 29.008 C 44.462 29.342 42.629 30.175 41.962 31.008 C 41.295 31.842 41.962 34.008 41.962 34.008 C 41.962 34.008 44.962 35.008 44.962 35.008 C 44.962 35.008 44.962 57.008 44.962 57.008 C 44.962 57.008 50.962 58.008 50.962 58.008 Z M 31.962 62.008 C 31.962 62.008 29.462 61.175 27.962 60.008 C 26.462 58.842 23.795 56.175 22.962 55.008 C 22.129 53.842 22.962 53.008 22.962 53.008 C 22.962 53.008 21.629 52.008 19.962 53.008 C 18.295 54.008 14.462 58.008 12.962 59.008 C 11.462 60.008 12.462 57.675 10.962 59.008 C 9.462 60.342 3.962 67.008 3.962 67.008 C 3.962 67.008 8.629 74.175 10.962 76.008 C 13.295 77.842 14.462 80.342 17.962 78.008 C 21.462 75.675 31.962 62.008 31.962 62.008 Z M 49.962 61.008 C 49.962 61.008 47.795 61.175 49.962 64.008 C 52.129 66.842 59.629 76.008 62.962 78.008 C 66.295 80.008 67.629 77.675 69.962 76.008 C 72.295 74.342 75.795 69.842 76.962 68.008 C 78.129 66.175 77.295 65.842 76.962 65.008 C 76.629 64.175 75.629 63.342 74.962 63.008 C 74.295 62.675 73.962 63.842 72.962 63.008 C 71.962 62.175 70.962 59.675 68.962 58.008 C 66.962 56.342 62.629 53.842 60.962 53.008 C 59.295 52.175 60.462 51.675 58.962 53.008 C 57.462 54.342 53.462 59.675 51.962 61.008 C 50.462 62.342 49.962 61.008 49.962 61.008 Z M 28.962 64.008 C 28.295 65.008 26.129 67.342 24.962 68.008 C 23.795 68.675 23.629 69.175 21.962 68.008 C 20.295 66.842 16.129 62.508 14.962 61.008 C 13.795 59.508 13.962 60.008 14.962 59.008 C 15.962 58.008 20.962 55.008 20.962 55.008 C 20.962 55.008 24.629 59.842 25.962 61.008 C 27.295 62.175 28.962 62.008 28.962 62.008 C 28.962 62.008 29.629 63.008 28.962 64.008 Z M 52.962 65.008 C 52.462 64.008 51.795 63.675 52.962 62.008 C 54.129 60.342 59.962 55.008 59.962 55.008 C 59.962 55.008 65.962 59.008 65.962 59.008 C 65.962 59.008 66.129 61.508 64.962 63.008 C 63.795 64.508 60.462 67.175 58.962 68.008 C 57.462 68.842 56.962 68.508 55.962 68.008 C 54.962 67.508 53.462 66.008 52.962 65.008 Z M 21.962 72.008 C 21.962 72.008 20.129 74.342 18.962 75.008 C 17.795 75.675 16.962 77.008 14.962 76.008 C 12.962 75.008 8.295 70.675 6.962 69.008 C 5.629 67.342 6.129 67.175 6.962 66.008 C 7.795 64.842 11.962 62.008 11.962 62.008 C 11.962 62.008 21.962 72.008 21.962 72.008 Z M 58.962 72.008 C 58.962 72.008 68.962 62.008 68.962 62.008 C 68.962 62.008 74.962 66.008 74.962 66.008 C 74.962 66.008 71.962 71.842 70.962 73.008 C 69.962 74.175 69.629 72.508 68.962 73.008 C 68.295 73.508 67.795 75.508 66.962 76.008 C 66.129 76.508 65.295 76.675 63.962 76.008 C 62.629 75.342 58.962 72.008 58.962 72.008 Z"/>
</svg>
