<?xml version="1.0" encoding="UTF-8"?>
<svg xmlns="http://www.w3.org/2000/svg" width="1mm" height="1.012500mm" viewBox="0 0 80 81">
  <rect x="0" y="66" width="3" height="1" fill="black"/>
  <rect x="0" y="65" width="4" height="1" fill="black"/>
  <rect x="0" y="67" width="4" height="2" fill="black"/>
  <rect x="0" y="64" width="5" height="1" fill="black"/>
  <rect x="1" y="69" width="4" height="1" fill="black"/>
  <rect x="1" y="63" width="5" height="1" fill="black"/>
  <rect x="2" y="70" width="4" height="2" fill="black"/>
  <rect x="2" y="62" width="5" height="1" fill="black"/>
  <rect x="3" y="72" width="4" height="1" fill="black"/>
  <rect x="3" y="61" width="5" height="1" fill="black"/>
  <rect x="4" y="73" width="4" height="1" fill="black"/>
  <rect x="4" y="60" width="5" height="1" fill="black"/>
  <rect x="5" y="74" width="4" height="1" fill="black"/>
  <rect x="5" y="59" width="5" height="1" fill="black"/>
  <rect x="5" y="75" width="5" height="1" fill="black"/>
  <rect x="6" y="66" width="10" height="1" fill="black"/>
  <rect x="6" y="67" width="11" height="1" fill="black"/>
  <rect x="6" y="68" width="12" height="1" fill="black"/>
  <rect x="7" y="58" width="5" height="1" fill="black"/>
  <rect x="7" y="76" width="5" height="1" fill="black"/>
  <rect x="7" y="64" width="6" height="1" fill="black"/>
  <rect x="7" y="65" width="8" height="1" fill="black"/>
  <rect x="7" y="69" width="12" height="1" fill="black"/>
  <rect x="8" y="63" width="4" height="1" fill="black"/>
  <rect x="8" y="57" width="5" height="1" fill="black"/>
  <rect x="8" y="77" width="6" height="1" fill="black"/>
  <rect x="8" y="70" width="12" height="1" fill="black"/>
  <rect x="9" y="56" width="5" height="1" fill="black"/>
  <rect x="9" y="71" width="12" height="1" fill="black"/>
  <rect x="9" y="78" width="12" height="1" fill="black"/>
  <rect x="10" y="62" width="1" height="1" fill="black"/>
  <rect x="10" y="55" width="6" height="1" fill="black"/>
  <rect x="10" y="54" width="7" height="1" fill="black"/>
  <rect x="10" y="53" width="9" height="1" fill="black"/>
  <rect x="10" y="72" width="10" height="1" fill="black"/>
  <rect x="10" y="31" width="16" height="3" fill="black"/>
  <rect x="10" y="30" width="17" height="1" fill="black"/>
  <rect x="10" y="34" width="18" height="1" fill="black"/>
  <rect x="10" y="35" width="19" height="16" fill="black"/>
  <rect x="10" y="52" width="19" height="1" fill="black"/>
  <rect x="11" y="73" width="8" height="1" fill="black"/>
  <rect x="11" y="79" width="9" height="1" fill="black"/>
  <rect x="11" y="29" width="18" height="1" fill="black"/>
  <rect x="11" y="51" width="18" height="1" fill="black"/>
  <rect x="12" y="74" width="6" height="1" fill="black"/>
  <rect x="12" y="28" width="56" height="1" fill="black"/>
  <rect x="13" y="80" width="5" height="1" fill="black"/>
  <rect x="13" y="27" width="53" height="1" fill="black"/>
  <rect x="14" y="75" width="2" height="1" fill="black"/>
  <rect x="14" y="59" width="10" height="1" fill="black"/>
  <rect x="14" y="60" width="11" height="1" fill="black"/>
  <rect x="14" y="26" width="51" height="1" fill="black"/>
  <rect x="15" y="58" width="8" height="1" fill="black"/>
  <rect x="15" y="61" width="12" height="1" fill="black"/>
  <rect x="16" y="57" width="6" height="1" fill="black"/>
  <rect x="16" y="62" width="12" height="1" fill="black"/>
  <rect x="16" y="25" width="16" height="1" fill="black"/>
  <rect x="17" y="77" width="5" height="1" fill="black"/>
  <rect x="17" y="63" width="11" height="1" fill="black"/>
  <rect x="18" y="56" width="3" height="1" fill="black"/>
  <rect x="18" y="76" width="5" height="1" fill="black"/>
  <rect x="18" y="64" width="9" height="1" fill="black"/>
  <rect x="18" y="24" width="14" height="1" fill="black"/>
  <rect x="19" y="55" width="1" height="1" fill="black"/>
  <rect x="19" y="75" width="5" height="1" fill="black"/>
  <rect x="19" y="65" width="7" height="1" fill="black"/>
  <rect x="20" y="66" width="5" height="1" fill="black"/>
  <rect x="20" y="74" width="5" height="1" fill="black"/>
  <rect x="20" y="23" width="12" height="1" fill="black"/>
  <rect x="21" y="67" width="3" height="1" fill="black"/>
  <rect x="21" y="73" width="5" height="1" fill="black"/>
  <rect x="22" y="72" width="5" height="1" fill="black"/>
  <rect x="22" y="53" width="7" height="2" fill="black"/>
  <rect x="22" y="22" width="9" height="1" fill="black"/>
  <rect x="23" y="71" width="5" height="1" fill="black"/>
  <rect x="23" y="55" width="6" height="1" fill="black"/>
  <rect x="24" y="56" width="5" height="1" fill="black"/>
  <rect x="24" y="70" width="5" height="1" fill="black"/>
  <rect x="24" y="21" width="7" height="1" fill="black"/>
  <rect x="25" y="57" width="20" height="1" fill="black"/>
  <rect x="25" y="69" width="30" height="1" fill="black"/>
  <rect x="26" y="20" width="5" height="1" fill="black"/>
  <rect x="26" y="58" width="27" height="1" fill="black"/>
  <rect x="26" y="68" width="28" height="1" fill="black"/>
  <rect x="27" y="6" width="3" height="10" fill="black"/>
  <rect x="27" y="5" width="4" height="1" fill="black"/>
  <rect x="27" y="16" width="4" height="4" fill="black"/>
  <rect x="27" y="4" width="5" height="1" fill="black"/>
  <rect x="27" y="59" width="25" height="1" fill="black"/>
  <rect x="27" y="66" width="25" height="1" fill="black"/>
  <rect x="27" y="67" width="26" height="1" fill="black"/>
  <rect x="28" y="3" width="10" height="1" fill="black"/>
  <rect x="28" y="65" width="23" height="1" fill="black"/>
  <rect x="29" y="2" width="21" height="1" fill="black"/>
  <rect x="29" y="64" width="21" height="1" fill="black"/>
  <rect x="29" y="60" width="22" height="1" fill="black"/>
  <rect x="30" y="61" width="19" height="1" fill="black"/>
  <rect x="30" y="63" width="19" height="1" fill="black"/>
  <rect x="30" y="70" width="19" height="1" fill="black"/>
  <rect x="31" y="62" width="18" height="1" fill="black"/>
  <rect x="32" y="7" width="15" height="6" fill="black"/>
  <rect x="32" y="71" width="15" height="1" fill="black"/>
  <rect x="33" y="16" width="13" height="6" fill="black"/>
  <rect x="33" y="1" width="14" height="1" fill="black"/>
  <rect x="33" y="6" width="14" height="1" fill="black"/>
  <rect x="34" y="72" width="11" height="1" fill="black"/>
  <rect x="34" y="22" width="12" height="2" fill="black"/>
  <rect x="35" y="31" width="6" height="3" fill="black"/>
  <rect x="35" y="30" width="7" height="1" fill="black"/>
  <rect x="35" y="34" width="8" height="1" fill="black"/>
  <rect x="35" y="35" width="9" height="22" fill="black"/>
  <rect x="35" y="29" width="10" height="1" fill="black"/>
  <rect x="36" y="73" width="7" height="1" fill="black"/>
  <rect x="38" y="74" width="4" height="1" fill="black"/>
  <rect x="39" y="0" width="1" height="1" fill="black"/>
  <rect x="41" y="3" width="11" height="1" fill="black"/>
  <rect x="47" y="4" width="5" height="1" fill="black"/>
  <rect x="47" y="24" width="14" height="1" fill="black"/>
  <rect x="47" y="25" width="16" height="1" fill="black"/>
  <rect x="48" y="18" width="4" height="2" fill="black"/>
  <rect x="48" y="20" width="6" height="1" fill="black"/>
  <rect x="48" y="21" width="7" height="1" fill="black"/>
  <rect x="48" y="22" width="9" height="1" fill="black"/>
  <rect x="48" y="23" width="11" height="1" fill="black"/>
  <rect x="49" y="5" width="3" height="2" fill="black"/>
  <rect x="49" y="9" width="3" height="9" fill="black"/>
  <rect x="49" y="7" width="4" height="2" fill="black"/>
  <rect x="50" y="57" width="4" height="1" fill="black"/>
  <rect x="50" y="56" width="5" height="1" fill="black"/>
  <rect x="50" y="70" width="5" height="1" fill="black"/>
  <rect x="50" y="55" width="6" height="1" fill="black"/>
  <rect x="50" y="54" width="7" height="1" fill="black"/>
  <rect x="50" y="53" width="8" height="1" fill="black"/>
  <rect x="50" y="29" width="19" height="24" fill="black"/>
  <rect x="51" y="71" width="5" height="1" fill="black"/>
  <rect x="52" y="72" width="5" height="1" fill="black"/>
  <rect x="52" y="64" width="10" height="1" fill="black"/>
  <rect x="52" y="63" width="11" height="1" fill="black"/>
  <rect x="52" y="62" width="12" height="1" fill="black"/>
  <rect x="53" y="65" width="8" height="1" fill="black"/>
  <rect x="53" y="61" width="11" height="1" fill="black"/>
  <rect x="54" y="73" width="4" height="1" fill="black"/>
  <rect x="54" y="66" width="5" height="1" fill="black"/>
  <rect x="54" y="60" width="11" height="1" fill="black"/>
  <rect x="55" y="67" width="3" height="1" fill="black"/>
  <rect x="55" y="74" width="4" height="1" fill="black"/>
  <rect x="55" y="59" width="10" height="1" fill="black"/>
  <rect x="56" y="75" width="4" height="1" fill="black"/>
  <rect x="56" y="58" width="8" height="1" fill="black"/>
  <rect x="57" y="76" width="4" height="1" fill="black"/>
  <rect x="57" y="77" width="5" height="1" fill="black"/>
  <rect x="57" y="57" width="6" height="1" fill="black"/>
  <rect x="58" y="56" width="3" height="1" fill="black"/>
  <rect x="58" y="71" width="12" height="1" fill="black"/>
  <rect x="58" y="78" width="12" height="1" fill="black"/>
  <rect x="59" y="55" width="1" height="1" fill="black"/>
  <rect x="59" y="79" width="9" height="1" fill="black"/>
  <rect x="59" y="72" width="11" height="1" fill="black"/>
  <rect x="59" y="70" width="12" height="1" fill="black"/>
  <rect x="60" y="73" width="8" height="1" fill="black"/>
  <rect x="60" y="53" width="9" height="1" fill="black"/>
  <rect x="60" y="69" width="12" height="1" fill="black"/>
  <rect x="61" y="80" width="5" height="1" fill="black"/>
  <rect x="61" y="74" width="6" height="1" fill="black"/>
  <rect x="62" y="54" width="7" height="1" fill="black"/>
  <rect x="62" y="67" width="11" height="2" fill="black"/>
  <rect x="63" y="75" width="3" height="1" fill="black"/>
  <rect x="63" y="55" width="6" height="1" fill="black"/>
  <rect x="64" y="66" width="10" height="1" fill="black"/>
  <rect x="65" y="56" width="5" height="1" fill="black"/>
  <rect x="65" y="65" width="8" height="1" fill="black"/>
  <rect x="66" y="57" width="5" height="1" fill="black"/>
  <rect x="66" y="77" width="5" height="1" fill="black"/>
  <rect x="66" y="64" width="6" height="1" fill="black"/>
  <rect x="67" y="63" width="4" height="1" fill="black"/>
  <rect x="67" y="76" width="6" height="1" fill="black"/>
  <rect x="68" y="62" width="1" height="1" fill="black"/>
  <rect x="68" y="58" width="5" height="1" fill="black"/>
  <rect x="69" y="59" width="5" height="1" fill="black"/>
  <rect x="69" y="75" width="5" height="1" fill="black"/>
  <rect x="70" y="60" width="5" height="1" fill="black"/>
  <rect x="70" y="74" width="5" height="1" fill="black"/>
  <rect x="71" y="61" width="5" height="1" fill="black"/>
  <rect x="71" y="73" width="5" height="1" fill="black"/>
  <rect x="72" y="62" width="5" height="1" fill="black"/>
  <rect x="72" y="72" width="5" height="1" fill="black"/>
  <rect x="73" y="71" width="4" height="1" fill="black"/>
  <rect x="74" y="63" width="4" height="1" fill="black"/>
  <rect x="74" y="70" width="4" height="1" fill="black"/>
  <rect x="75" y="69" width="3" height="1" fill="black"/>
  <rect x="75" y="64" width="4" height="1" fill="black"/>
  <rect x="75" y="68" width="4" height="1" fill="black"/>
  <rect x="76" y="66" width="3" height="2" fill="black"/>
  <rect x="76" y="65" width="4" height="1" fill="black"/>
</svg>
