<?xml version="1.0" encoding="UTF-8"?>
<svg xmlns="http://www.w3.org/2000/svg" width="1mm" height="0.990741mm" viewBox="0 0 216 214">
  <rect x="0" y="126" width="2" height="1" fill="black"/>
  <rect x="0" y="127" width="4" height="1" fill="black"/>
  <rect x="0" y="128" width="6" height="1" fill="black"/>
  <rect x="1" y="88" width="3" height="1" fill="black"/>
  <rect x="1" y="87" width="5" height="1" fill="black"/>
  <rect x="1" y="86" width="6" height="1" fill="black"/>
  <rect x="1" y="85" width="8" height="1" fill="black"/>
  <rect x="1" y="129" width="8" height="1" fill="black"/>
  <rect x="1" y="130" width="10" height="1" fill="black"/>
  <rect x="2" y="84" width="10" height="1" fill="black"/>
  <rect x="2" y="83" width="14" height="1" fill="black"/>
  <rect x="2" y="81" width="52" height="1" fill="black"/>
  <rect x="2" y="82" width="53" height="1" fill="black"/>
  <rect x="2" y="131" width="61" height="2" fill="black"/>
  <rect x="3" y="80" width="51" height="1" fill="black"/>
  <rect x="3" y="133" width="60" height="1" fill="black"/>
  <rect x="4" y="79" width="50" height="1" fill="black"/>
  <rect x="4" y="134" width="59" height="2" fill="black"/>
  <rect x="5" y="77" width="49" height="2" fill="black"/>
  <rect x="5" y="136" width="58" height="1" fill="black"/>
  <rect x="6" y="76" width="48" height="1" fill="black"/>
  <rect x="6" y="137" width="57" height="1" fill="black"/>
  <rect x="7" y="75" width="48" height="1" fill="black"/>
  <rect x="7" y="138" width="56" height="1" fill="black"/>
  <rect x="8" y="74" width="47" height="1" fill="black"/>
  <rect x="8" y="139" width="55" height="1" fill="black"/>
  <rect x="9" y="140" width="54" height="1" fill="black"/>
  <rect x="10" y="73" width="45" height="1" fill="black"/>
  <rect x="11" y="72" width="45" height="1" fill="black"/>
  <rect x="11" y="141" width="52" height="1" fill="black"/>
  <rect x="12" y="71" width="45" height="1" fill="black"/>
  <rect x="12" y="93" width="51" height="2" fill="black"/>
  <rect x="12" y="120" width="51" height="2" fill="black"/>
  <rect x="12" y="142" width="51" height="1" fill="black"/>
  <rect x="13" y="95" width="50" height="1" fill="black"/>
  <rect x="13" y="119" width="50" height="1" fill="black"/>
  <rect x="13" y="122" width="50" height="1" fill="black"/>
  <rect x="13" y="143" width="50" height="1" fill="black"/>
  <rect x="14" y="70" width="44" height="1" fill="black"/>
  <rect x="14" y="96" width="49" height="1" fill="black"/>
  <rect x="14" y="118" width="49" height="1" fill="black"/>
  <rect x="15" y="144" width="48" height="1" fill="black"/>
  <rect x="16" y="92" width="47" height="1" fill="black"/>
  <rect x="16" y="97" width="47" height="1" fill="black"/>
  <rect x="16" y="145" width="47" height="1" fill="black"/>
  <rect x="16" y="69" width="81" height="1" fill="black"/>
  <rect x="17" y="123" width="10" height="1" fill="black"/>
  <rect x="17" y="117" width="46" height="1" fill="black"/>
  <rect x="17" y="68" width="80" height="1" fill="black"/>
  <rect x="18" y="124" width="4" height="1" fill="black"/>
  <rect x="18" y="146" width="46" height="1" fill="black"/>
  <rect x="19" y="98" width="44" height="1" fill="black"/>
  <rect x="19" y="116" width="44" height="1" fill="black"/>
  <rect x="20" y="91" width="7" height="1" fill="black"/>
  <rect x="20" y="99" width="43" height="1" fill="black"/>
  <rect x="20" y="115" width="43" height="1" fill="black"/>
  <rect x="20" y="147" width="44" height="1" fill="black"/>
  <rect x="21" y="83" width="35" height="1" fill="black"/>
  <rect x="21" y="67" width="176" height="1" fill="black"/>
  <rect x="22" y="100" width="41" height="1" fill="black"/>
  <rect x="23" y="114" width="40" height="1" fill="black"/>
  <rect x="24" y="101" width="39" height="1" fill="black"/>
  <rect x="24" y="113" width="39" height="1" fill="black"/>
  <rect x="25" y="102" width="38" height="1" fill="black"/>
  <rect x="25" y="112" width="38" height="1" fill="black"/>
  <rect x="26" y="103" width="37" height="1" fill="black"/>
  <rect x="27" y="111" width="36" height="1" fill="black"/>
  <rect x="27" y="66" width="167" height="1" fill="black"/>
  <rect x="28" y="104" width="35" height="1" fill="black"/>
  <rect x="29" y="148" width="14" height="1" fill="black"/>
  <rect x="29" y="105" width="34" height="1" fill="black"/>
  <rect x="29" y="110" width="34" height="1" fill="black"/>
  <rect x="30" y="84" width="32" height="1" fill="black"/>
  <rect x="30" y="109" width="33" height="1" fill="black"/>
  <rect x="31" y="85" width="32" height="1" fill="black"/>
  <rect x="31" y="106" width="32" height="3" fill="black"/>
  <rect x="31" y="130" width="32" height="1" fill="black"/>
  <rect x="33" y="86" width="30" height="1" fill="black"/>
  <rect x="33" y="91" width="30" height="1" fill="black"/>
  <rect x="33" y="123" width="30" height="1" fill="black"/>
  <rect x="34" y="87" width="29" height="1" fill="black"/>
  <rect x="34" y="90" width="29" height="1" fill="black"/>
  <rect x="34" y="124" width="29" height="1" fill="black"/>
  <rect x="34" y="129" width="29" height="1" fill="black"/>
  <rect x="35" y="88" width="28" height="2" fill="black"/>
  <rect x="35" y="125" width="28" height="4" fill="black"/>
  <rect x="40" y="43" width="11" height="1" fill="black"/>
  <rect x="40" y="44" width="15" height="1" fill="black"/>
  <rect x="40" y="45" width="23" height="1" fill="black"/>
  <rect x="41" y="42" width="3" height="1" fill="black"/>
  <rect x="41" y="174" width="3" height="1" fill="black"/>
  <rect x="41" y="173" width="5" height="1" fill="black"/>
  <rect x="41" y="172" width="12" height="1" fill="black"/>
  <rect x="41" y="171" width="14" height="1" fill="black"/>
  <rect x="41" y="170" width="17" height="1" fill="black"/>
  <rect x="41" y="46" width="134" height="3" fill="black"/>
  <rect x="42" y="169" width="20" height="1" fill="black"/>
  <rect x="42" y="168" width="111" height="1" fill="black"/>
  <rect x="42" y="49" width="132" height="3" fill="black"/>
  <rect x="42" y="167" width="134" height="1" fill="black"/>
  <rect x="43" y="54" width="130" height="2" fill="black"/>
  <rect x="43" y="52" width="131" height="2" fill="black"/>
  <rect x="43" y="162" width="131" height="1" fill="black"/>
  <rect x="43" y="163" width="132" height="4" fill="black"/>
  <rect x="44" y="56" width="128" height="4" fill="black"/>
  <rect x="44" y="159" width="130" height="3" fill="black"/>
  <rect x="45" y="148" width="20" height="1" fill="black"/>
  <rect x="45" y="60" width="126" height="1" fill="black"/>
  <rect x="45" y="156" width="128" height="2" fill="black"/>
  <rect x="45" y="158" width="129" height="1" fill="black"/>
  <rect x="46" y="149" width="20" height="1" fill="black"/>
  <rect x="46" y="150" width="30" height="1" fill="black"/>
  <rect x="46" y="61" width="125" height="3" fill="black"/>
  <rect x="46" y="151" width="125" height="2" fill="black"/>
  <rect x="46" y="64" width="126" height="1" fill="black"/>
  <rect x="46" y="153" width="126" height="3" fill="black"/>
  <rect x="46" y="65" width="140" height="1" fill="black"/>
  <rect x="65" y="170" width="86" height="1" fill="black"/>
  <rect x="65" y="169" width="87" height="1" fill="black"/>
  <rect x="65" y="45" width="110" height="1" fill="black"/>
  <rect x="66" y="24" width="18" height="2" fill="black"/>
  <rect x="66" y="26" width="19" height="3" fill="black"/>
  <rect x="66" y="29" width="20" height="2" fill="black"/>
  <rect x="66" y="183" width="20" height="4" fill="black"/>
  <rect x="66" y="31" width="21" height="1" fill="black"/>
  <rect x="66" y="181" width="21" height="2" fill="black"/>
  <rect x="66" y="32" width="22" height="1" fill="black"/>
  <rect x="66" y="180" width="22" height="1" fill="black"/>
  <rect x="66" y="33" width="23" height="1" fill="black"/>
  <rect x="66" y="179" width="59" height="1" fill="black"/>
  <rect x="66" y="171" width="85" height="8" fill="black"/>
  <rect x="66" y="34" width="86" height="11" fill="black"/>
  <rect x="67" y="21" width="17" height="3" fill="black"/>
  <rect x="67" y="187" width="19" height="2" fill="black"/>
  <rect x="68" y="20" width="16" height="1" fill="black"/>
  <rect x="68" y="19" width="17" height="1" fill="black"/>
  <rect x="68" y="191" width="17" height="4" fill="black"/>
  <rect x="68" y="189" width="18" height="2" fill="black"/>
  <rect x="69" y="196" width="15" height="1" fill="black"/>
  <rect x="69" y="16" width="16" height="3" fill="black"/>
  <rect x="69" y="195" width="16" height="1" fill="black"/>
  <rect x="69" y="197" width="16" height="1" fill="black"/>
  <rect x="70" y="14" width="15" height="2" fill="black"/>
  <rect x="70" y="198" width="15" height="1" fill="black"/>
  <rect x="71" y="13" width="14" height="1" fill="black"/>
  <rect x="71" y="199" width="14" height="1" fill="black"/>
  <rect x="72" y="12" width="13" height="1" fill="black"/>
  <rect x="72" y="200" width="13" height="2" fill="black"/>
  <rect x="72" y="11" width="14" height="1" fill="black"/>
  <rect x="73" y="202" width="12" height="1" fill="black"/>
  <rect x="73" y="10" width="13" height="1" fill="black"/>
  <rect x="74" y="203" width="11" height="1" fill="black"/>
  <rect x="74" y="204" width="12" height="1" fill="black"/>
  <rect x="74" y="9" width="13" height="1" fill="black"/>
  <rect x="75" y="8" width="12" height="1" fill="black"/>
  <rect x="75" y="205" width="12" height="1" fill="black"/>
  <rect x="76" y="7" width="11" height="1" fill="black"/>
  <rect x="76" y="206" width="11" height="1" fill="black"/>
  <rect x="77" y="6" width="11" height="1" fill="black"/>
  <rect x="77" y="207" width="11" height="1" fill="black"/>
  <rect x="77" y="150" width="22" height="1" fill="black"/>
  <rect x="78" y="5" width="10" height="1" fill="black"/>
  <rect x="78" y="208" width="10" height="1" fill="black"/>
  <rect x="79" y="209" width="10" height="1" fill="black"/>
  <rect x="79" y="70" width="17" height="1" fill="black"/>
  <rect x="79" y="149" width="18" height="1" fill="black"/>
  <rect x="80" y="4" width="9" height="1" fill="black"/>
  <rect x="80" y="132" width="15" height="5" fill="black"/>
  <rect x="80" y="71" width="16" height="12" fill="black"/>
  <rect x="80" y="120" width="16" height="1" fill="black"/>
  <rect x="80" y="128" width="16" height="4" fill="black"/>
  <rect x="80" y="137" width="16" height="11" fill="black"/>
  <rect x="80" y="83" width="17" height="1" fill="black"/>
  <rect x="80" y="118" width="17" height="2" fill="black"/>
  <rect x="80" y="121" width="17" height="7" fill="black"/>
  <rect x="80" y="148" width="17" height="1" fill="black"/>
  <rect x="80" y="117" width="18" height="1" fill="black"/>
  <rect x="80" y="84" width="19" height="1" fill="black"/>
  <rect x="80" y="116" width="19" height="1" fill="black"/>
  <rect x="80" y="115" width="20" height="1" fill="black"/>
  <rect x="80" y="113" width="21" height="2" fill="black"/>
  <rect x="80" y="112" width="22" height="1" fill="black"/>
  <rect x="80" y="111" width="24" height="1" fill="black"/>
  <rect x="80" y="110" width="26" height="1" fill="black"/>
  <rect x="80" y="109" width="27" height="1" fill="black"/>
  <rect x="80" y="108" width="30" height="1" fill="black"/>
  <rect x="80" y="107" width="31" height="1" fill="black"/>
  <rect x="80" y="106" width="35" height="1" fill="black"/>
  <rect x="80" y="105" width="37" height="1" fill="black"/>
  <rect x="80" y="104" width="38" height="1" fill="black"/>
  <rect x="80" y="103" width="41" height="1" fill="black"/>
  <rect x="80" y="102" width="43" height="1" fill="black"/>
  <rect x="80" y="101" width="45" height="1" fill="black"/>
  <rect x="80" y="100" width="49" height="1" fill="black"/>
  <rect x="80" y="99" width="51" height="1" fill="black"/>
  <rect x="80" y="98" width="53" height="1" fill="black"/>
  <rect x="80" y="97" width="57" height="1" fill="black"/>
  <rect x="80" y="96" width="59" height="1" fill="black"/>
  <rect x="80" y="95" width="60" height="1" fill="black"/>
  <rect x="80" y="85" width="61" height="10" fill="black"/>
  <rect x="81" y="3" width="9" height="1" fill="black"/>
  <rect x="81" y="210" width="9" height="1" fill="black"/>
  <rect x="82" y="211" width="8" height="1" fill="black"/>
  <rect x="83" y="2" width="7" height="1" fill="black"/>
  <rect x="85" y="1" width="5" height="1" fill="black"/>
  <rect x="86" y="212" width="4" height="1" fill="black"/>
  <rect x="87" y="0" width="3" height="1" fill="black"/>
  <rect x="87" y="213" width="3" height="1" fill="black"/>
  <rect x="91" y="19" width="8" height="1" fill="black"/>
  <rect x="91" y="20" width="9" height="1" fill="black"/>
  <rect x="91" y="194" width="9" height="2" fill="black"/>
  <rect x="91" y="21" width="10" height="2" fill="black"/>
  <rect x="91" y="193" width="10" height="1" fill="black"/>
  <rect x="91" y="23" width="11" height="2" fill="black"/>
  <rect x="91" y="191" width="11" height="2" fill="black"/>
  <rect x="91" y="25" width="12" height="1" fill="black"/>
  <rect x="91" y="190" width="12" height="1" fill="black"/>
  <rect x="91" y="26" width="13" height="2" fill="black"/>
  <rect x="91" y="189" width="13" height="1" fill="black"/>
  <rect x="91" y="28" width="14" height="1" fill="black"/>
  <rect x="91" y="33" width="33" height="1" fill="black"/>
  <rect x="91" y="180" width="33" height="1" fill="black"/>
  <rect x="92" y="198" width="6" height="2" fill="black"/>
  <rect x="92" y="18" width="7" height="1" fill="black"/>
  <rect x="92" y="196" width="7" height="2" fill="black"/>
  <rect x="92" y="29" width="13" height="2" fill="black"/>
  <rect x="92" y="188" width="13" height="1" fill="black"/>
  <rect x="92" y="187" width="14" height="1" fill="black"/>
  <rect x="92" y="31" width="32" height="2" fill="black"/>
  <rect x="92" y="181" width="32" height="1" fill="black"/>
  <rect x="93" y="13" width="3" height="1" fill="black"/>
  <rect x="93" y="14" width="4" height="2" fill="black"/>
  <rect x="93" y="200" width="4" height="2" fill="black"/>
  <rect x="93" y="16" width="5" height="2" fill="black"/>
  <rect x="93" y="185" width="14" height="2" fill="black"/>
  <rect x="93" y="182" width="31" height="1" fill="black"/>
  <rect x="94" y="12" width="2" height="1" fill="black"/>
  <rect x="94" y="202" width="2" height="1" fill="black"/>
  <rect x="94" y="184" width="14" height="1" fill="black"/>
  <rect x="94" y="183" width="30" height="1" fill="black"/>
  <rect x="101" y="84" width="39" height="1" fill="black"/>
  <rect x="101" y="150" width="53" height="1" fill="black"/>
  <rect x="106" y="68" width="2" height="1" fill="black"/>
  <rect x="110" y="30" width="14" height="1" fill="black"/>
  <rect x="111" y="184" width="13" height="1" fill="black"/>
  <rect x="111" y="29" width="14" height="1" fill="black"/>
  <rect x="112" y="185" width="12" height="1" fill="black"/>
  <rect x="112" y="27" width="13" height="2" fill="black"/>
  <rect x="113" y="186" width="11" height="1" fill="black"/>
  <rect x="113" y="187" width="12" height="2" fill="black"/>
  <rect x="113" y="26" width="13" height="1" fill="black"/>
  <rect x="113" y="125" width="69" height="1" fill="black"/>
  <rect x="113" y="126" width="70" height="2" fill="black"/>
  <rect x="113" y="128" width="71" height="1" fill="black"/>
  <rect x="113" y="129" width="73" height="1" fill="black"/>
  <rect x="113" y="130" width="75" height="1" fill="black"/>
  <rect x="113" y="132" width="101" height="1" fill="black"/>
  <rect x="113" y="131" width="102" height="1" fill="black"/>
  <rect x="114" y="24" width="12" height="2" fill="black"/>
  <rect x="114" y="189" width="12" height="1" fill="black"/>
  <rect x="114" y="124" width="69" height="1" fill="black"/>
  <rect x="114" y="133" width="100" height="1" fill="black"/>
  <rect x="115" y="23" width="11" height="1" fill="black"/>
  <rect x="115" y="190" width="11" height="1" fill="black"/>
  <rect x="115" y="123" width="68" height="1" fill="black"/>
  <rect x="116" y="21" width="10" height="2" fill="black"/>
  <rect x="116" y="191" width="10" height="3" fill="black"/>
  <rect x="116" y="122" width="86" height="1" fill="black"/>
  <rect x="116" y="134" width="98" height="1" fill="black"/>
  <rect x="117" y="19" width="9" height="2" fill="black"/>
  <rect x="117" y="194" width="9" height="1" fill="black"/>
  <rect x="117" y="68" width="27" height="1" fill="black"/>
  <rect x="117" y="121" width="87" height="1" fill="black"/>
  <rect x="118" y="17" width="7" height="2" fill="black"/>
  <rect x="118" y="195" width="7" height="2" fill="black"/>
  <rect x="119" y="14" width="4" height="1" fill="black"/>
  <rect x="119" y="15" width="5" height="2" fill="black"/>
  <rect x="119" y="197" width="5" height="3" fill="black"/>
  <rect x="119" y="120" width="86" height="1" fill="black"/>
  <rect x="120" y="13" width="2" height="1" fill="black"/>
  <rect x="120" y="200" width="4" height="1" fill="black"/>
  <rect x="121" y="202" width="2" height="1" fill="black"/>
  <rect x="121" y="201" width="3" height="1" fill="black"/>
  <rect x="123" y="119" width="82" height="1" fill="black"/>
  <rect x="125" y="118" width="80" height="1" fill="black"/>
  <rect x="126" y="2" width="6" height="1" fill="black"/>
  <rect x="126" y="179" width="25" height="1" fill="black"/>
  <rect x="127" y="213" width="3" height="1" fill="black"/>
  <rect x="127" y="1" width="4" height="1" fill="black"/>
  <rect x="127" y="212" width="4" height="1" fill="black"/>
  <rect x="127" y="211" width="7" height="1" fill="black"/>
  <rect x="127" y="3" width="8" height="1" fill="black"/>
  <rect x="127" y="4" width="10" height="1" fill="black"/>
  <rect x="128" y="210" width="7" height="1" fill="black"/>
  <rect x="128" y="5" width="10" height="1" fill="black"/>
  <rect x="128" y="180" width="23" height="1" fill="black"/>
  <rect x="129" y="209" width="8" height="1" fill="black"/>
  <rect x="129" y="6" width="10" height="1" fill="black"/>
  <rect x="129" y="33" width="22" height="1" fill="black"/>
  <rect x="129" y="181" width="22" height="1" fill="black"/>
  <rect x="129" y="117" width="73" height="1" fill="black"/>
  <rect x="130" y="208" width="9" height="1" fill="black"/>
  <rect x="130" y="207" width="10" height="1" fill="black"/>
  <rect x="130" y="7" width="11" height="1" fill="black"/>
  <rect x="130" y="8" width="12" height="1" fill="black"/>
  <rect x="130" y="31" width="21" height="2" fill="black"/>
  <rect x="130" y="182" width="21" height="2" fill="black"/>
  <rect x="131" y="9" width="11" height="1" fill="black"/>
  <rect x="131" y="206" width="11" height="1" fill="black"/>
  <rect x="131" y="10" width="12" height="1" fill="black"/>
  <rect x="131" y="205" width="12" height="1" fill="black"/>
  <rect x="131" y="28" width="19" height="3" fill="black"/>
  <rect x="131" y="184" width="20" height="2" fill="black"/>
  <rect x="131" y="116" width="68" height="1" fill="black"/>
  <rect x="132" y="11" width="12" height="1" fill="black"/>
  <rect x="132" y="204" width="12" height="1" fill="black"/>
  <rect x="132" y="12" width="13" height="2" fill="black"/>
  <rect x="132" y="203" width="13" height="1" fill="black"/>
  <rect x="132" y="14" width="14" height="1" fill="black"/>
  <rect x="132" y="201" width="14" height="2" fill="black"/>
  <rect x="132" y="15" width="15" height="2" fill="black"/>
  <rect x="132" y="17" width="16" height="2" fill="black"/>
  <rect x="132" y="23" width="17" height="4" fill="black"/>
  <rect x="132" y="27" width="18" height="1" fill="black"/>
  <rect x="132" y="188" width="18" height="3" fill="black"/>
  <rect x="132" y="186" width="19" height="2" fill="black"/>
  <rect x="133" y="200" width="13" height="1" fill="black"/>
  <rect x="133" y="199" width="14" height="1" fill="black"/>
  <rect x="133" y="197" width="15" height="2" fill="black"/>
  <rect x="133" y="19" width="16" height="4" fill="black"/>
  <rect x="133" y="193" width="16" height="1" fill="black"/>
  <rect x="133" y="191" width="17" height="2" fill="black"/>
  <rect x="133" y="115" width="64" height="1" fill="black"/>
  <rect x="134" y="194" width="15" height="3" fill="black"/>
  <rect x="137" y="114" width="58" height="1" fill="black"/>
  <rect x="138" y="113" width="56" height="1" fill="black"/>
  <rect x="140" y="112" width="53" height="1" fill="black"/>
  <rect x="144" y="111" width="47" height="1" fill="black"/>
  <rect x="145" y="110" width="45" height="1" fill="black"/>
  <rect x="147" y="109" width="42" height="1" fill="black"/>
  <rect x="148" y="68" width="51" height="1" fill="black"/>
  <rect x="149" y="108" width="38" height="1" fill="black"/>
  <rect x="150" y="107" width="36" height="1" fill="black"/>
  <rect x="150" y="69" width="51" height="1" fill="black"/>
  <rect x="151" y="106" width="35" height="1" fill="black"/>
  <rect x="152" y="105" width="34" height="1" fill="black"/>
  <rect x="153" y="104" width="34" height="1" fill="black"/>
  <rect x="153" y="70" width="50" height="1" fill="black"/>
  <rect x="154" y="103" width="35" height="1" fill="black"/>
  <rect x="155" y="150" width="16" height="1" fill="black"/>
  <rect x="155" y="168" width="21" height="1" fill="black"/>
  <rect x="155" y="102" width="36" height="1" fill="black"/>
  <rect x="155" y="71" width="50" height="1" fill="black"/>
  <rect x="156" y="169" width="21" height="1" fill="black"/>
  <rect x="156" y="101" width="37" height="1" fill="black"/>
  <rect x="156" y="72" width="51" height="1" fill="black"/>
  <rect x="157" y="100" width="38" height="1" fill="black"/>
  <rect x="157" y="73" width="51" height="1" fill="black"/>
  <rect x="157" y="74" width="52" height="1" fill="black"/>
  <rect x="157" y="135" width="56" height="1" fill="black"/>
  <rect x="158" y="149" width="13" height="1" fill="black"/>
  <rect x="158" y="44" width="17" height="1" fill="black"/>
  <rect x="158" y="99" width="39" height="1" fill="black"/>
  <rect x="158" y="98" width="40" height="1" fill="black"/>
  <rect x="158" y="97" width="42" height="1" fill="black"/>
  <rect x="158" y="96" width="44" height="1" fill="black"/>
  <rect x="158" y="95" width="46" height="1" fill="black"/>
  <rect x="158" y="93" width="48" height="2" fill="black"/>
  <rect x="158" y="75" width="52" height="2" fill="black"/>
  <rect x="158" y="77" width="53" height="1" fill="black"/>
  <rect x="158" y="78" width="54" height="1" fill="black"/>
  <rect x="159" y="148" width="13" height="1" fill="black"/>
  <rect x="159" y="82" width="34" height="1" fill="black"/>
  <rect x="159" y="91" width="42" height="1" fill="black"/>
  <rect x="159" y="143" width="44" height="1" fill="black"/>
  <rect x="159" y="92" width="45" height="1" fill="black"/>
  <rect x="159" y="142" width="46" height="1" fill="black"/>
  <rect x="159" y="141" width="48" height="1" fill="black"/>
  <rect x="159" y="137" width="53" height="1" fill="black"/>
  <rect x="159" y="79" width="54" height="2" fill="black"/>
  <rect x="159" y="136" width="54" height="1" fill="black"/>
  <rect x="159" y="81" width="55" height="1" fill="black"/>
  <rect x="160" y="87" width="23" height="2" fill="black"/>
  <rect x="160" y="86" width="24" height="1" fill="black"/>
  <rect x="160" y="89" width="24" height="1" fill="black"/>
  <rect x="160" y="85" width="25" height="1" fill="black"/>
  <rect x="160" y="90" width="25" height="1" fill="black"/>
  <rect x="160" y="84" width="28" height="1" fill="black"/>
  <rect x="160" y="83" width="31" height="1" fill="black"/>
  <rect x="160" y="147" width="32" height="1" fill="black"/>
  <rect x="160" y="146" width="34" height="1" fill="black"/>
  <rect x="160" y="145" width="39" height="1" fill="black"/>
  <rect x="160" y="144" width="42" height="1" fill="black"/>
  <rect x="160" y="140" width="48" height="1" fill="black"/>
  <rect x="160" y="139" width="49" height="1" fill="black"/>
  <rect x="160" y="138" width="50" height="1" fill="black"/>
  <rect x="161" y="43" width="14" height="1" fill="black"/>
  <rect x="161" y="170" width="16" height="1" fill="black"/>
  <rect x="165" y="42" width="11" height="1" fill="black"/>
  <rect x="167" y="171" width="10" height="1" fill="black"/>
  <rect x="169" y="41" width="7" height="1" fill="black"/>
  <rect x="170" y="172" width="6" height="1" fill="black"/>
  <rect x="171" y="40" width="5" height="1" fill="black"/>
  <rect x="191" y="123" width="6" height="1" fill="black"/>
  <rect x="192" y="90" width="7" height="1" fill="black"/>
  <rect x="200" y="82" width="15" height="1" fill="black"/>
  <rect x="201" y="130" width="14" height="1" fill="black"/>
  <rect x="204" y="83" width="11" height="1" fill="black"/>
  <rect x="206" y="129" width="10" height="1" fill="black"/>
  <rect x="207" y="84" width="8" height="1" fill="black"/>
  <rect x="209" y="85" width="7" height="1" fill="black"/>
  <rect x="209" y="128" width="7" height="1" fill="black"/>
  <rect x="210" y="127" width="6" height="1" fill="black"/>
  <rect x="211" y="126" width="4" height="1" fill="black"/>
  <rect x="211" y="86" width="5" height="1" fill="black"/>
  <rect x="212" y="87" width="4" height="1" fill="black"/>
  <rect x="213" y="88" width="3" height="1" fill="black"/>
</svg>
