<?xml version="1.0" encoding="UTF-8"?>
<svg xmlns="http://www.w3.org/2000/svg" width="78mm" height="77mm" viewBox="0 0 78 77">
  <rect x="0" y="45" width="1" height="1" fill="black"/>
  <rect x="1" y="31" width="1" height="1" fill="black"/>
  <rect x="1" y="30" width="3" height="1" fill="black"/>
  <rect x="1" y="46" width="3" height="1" fill="black"/>
  <rect x="1" y="29" width="19" height="1" fill="black"/>
  <rect x="1" y="47" width="22" height="1" fill="black"/>
  <rect x="2" y="27" width="18" height="2" fill="black"/>
  <rect x="2" y="48" width="21" height="1" fill="black"/>
  <rect x="3" y="26" width="17" height="1" fill="black"/>
  <rect x="3" y="49" width="20" height="1" fill="black"/>
  <rect x="4" y="50" width="19" height="1" fill="black"/>
  <rect x="5" y="25" width="16" height="1" fill="black"/>
  <rect x="5" y="33" width="18" height="1" fill="black"/>
  <rect x="5" y="42" width="18" height="2" fill="black"/>
  <rect x="5" y="51" width="18" height="1" fill="black"/>
  <rect x="6" y="34" width="17" height="1" fill="black"/>
  <rect x="6" y="24" width="29" height="1" fill="black"/>
  <rect x="7" y="44" width="1" height="1" fill="black"/>
  <rect x="7" y="41" width="16" height="1" fill="black"/>
  <rect x="7" y="52" width="16" height="1" fill="black"/>
  <rect x="8" y="32" width="1" height="1" fill="black"/>
  <rect x="8" y="35" width="15" height="1" fill="black"/>
  <rect x="9" y="36" width="14" height="1" fill="black"/>
  <rect x="9" y="40" width="14" height="1" fill="black"/>
  <rect x="10" y="37" width="13" height="1" fill="black"/>
  <rect x="11" y="39" width="12" height="1" fill="black"/>
  <rect x="11" y="23" width="57" height="1" fill="black"/>
  <rect x="12" y="30" width="11" height="1" fill="black"/>
  <rect x="12" y="32" width="11" height="1" fill="black"/>
  <rect x="12" y="38" width="11" height="1" fill="black"/>
  <rect x="12" y="46" width="11" height="1" fill="black"/>
  <rect x="13" y="31" width="10" height="1" fill="black"/>
  <rect x="13" y="44" width="10" height="2" fill="black"/>
  <rect x="15" y="62" width="1" height="1" fill="black"/>
  <rect x="15" y="15" width="4" height="1" fill="black"/>
  <rect x="15" y="61" width="5" height="1" fill="black"/>
  <rect x="15" y="60" width="8" height="1" fill="black"/>
  <rect x="15" y="16" width="48" height="2" fill="black"/>
  <rect x="16" y="19" width="46" height="2" fill="black"/>
  <rect x="16" y="18" width="47" height="1" fill="black"/>
  <rect x="16" y="56" width="47" height="4" fill="black"/>
  <rect x="17" y="53" width="7" height="1" fill="black"/>
  <rect x="17" y="21" width="45" height="2" fill="black"/>
  <rect x="17" y="54" width="45" height="2" fill="black"/>
  <rect x="24" y="8" width="7" height="3" fill="black"/>
  <rect x="24" y="65" width="7" height="2" fill="black"/>
  <rect x="24" y="11" width="8" height="1" fill="black"/>
  <rect x="24" y="64" width="21" height="1" fill="black"/>
  <rect x="24" y="12" width="31" height="4" fill="black"/>
  <rect x="24" y="60" width="31" height="4" fill="black"/>
  <rect x="25" y="5" width="6" height="3" fill="black"/>
  <rect x="25" y="67" width="6" height="4" fill="black"/>
  <rect x="26" y="4" width="5" height="1" fill="black"/>
  <rect x="26" y="71" width="5" height="1" fill="black"/>
  <rect x="27" y="3" width="4" height="1" fill="black"/>
  <rect x="27" y="72" width="4" height="2" fill="black"/>
  <rect x="28" y="2" width="4" height="1" fill="black"/>
  <rect x="28" y="74" width="4" height="1" fill="black"/>
  <rect x="29" y="1" width="3" height="1" fill="black"/>
  <rect x="29" y="75" width="4" height="1" fill="black"/>
  <rect x="29" y="25" width="6" height="5" fill="black"/>
  <rect x="29" y="42" width="6" height="12" fill="black"/>
  <rect x="29" y="41" width="7" height="1" fill="black"/>
  <rect x="29" y="40" width="8" height="1" fill="black"/>
  <rect x="29" y="39" width="9" height="1" fill="black"/>
  <rect x="29" y="38" width="11" height="1" fill="black"/>
  <rect x="29" y="37" width="13" height="1" fill="black"/>
  <rect x="29" y="36" width="16" height="1" fill="black"/>
  <rect x="29" y="35" width="18" height="1" fill="black"/>
  <rect x="29" y="34" width="21" height="1" fill="black"/>
  <rect x="29" y="30" width="22" height="4" fill="black"/>
  <rect x="31" y="0" width="2" height="1" fill="black"/>
  <rect x="32" y="76" width="1" height="1" fill="black"/>
  <rect x="33" y="69" width="3" height="2" fill="black"/>
  <rect x="33" y="7" width="4" height="2" fill="black"/>
  <rect x="33" y="68" width="4" height="1" fill="black"/>
  <rect x="33" y="9" width="5" height="2" fill="black"/>
  <rect x="33" y="67" width="5" height="1" fill="black"/>
  <rect x="33" y="11" width="12" height="1" fill="black"/>
  <rect x="34" y="4" width="1" height="2" fill="black"/>
  <rect x="34" y="71" width="1" height="2" fill="black"/>
  <rect x="34" y="6" width="2" height="1" fill="black"/>
  <rect x="34" y="66" width="5" height="1" fill="black"/>
  <rect x="34" y="65" width="11" height="1" fill="black"/>
  <rect x="40" y="10" width="5" height="1" fill="black"/>
  <rect x="41" y="9" width="4" height="1" fill="black"/>
  <rect x="41" y="66" width="4" height="2" fill="black"/>
  <rect x="41" y="8" width="5" height="1" fill="black"/>
  <rect x="41" y="44" width="25" height="2" fill="black"/>
  <rect x="41" y="46" width="27" height="1" fill="black"/>
  <rect x="41" y="47" width="36" height="1" fill="black"/>
  <rect x="42" y="7" width="4" height="1" fill="black"/>
  <rect x="42" y="68" width="4" height="2" fill="black"/>
  <rect x="42" y="43" width="31" height="1" fill="black"/>
  <rect x="43" y="5" width="2" height="2" fill="black"/>
  <rect x="43" y="70" width="2" height="2" fill="black"/>
  <rect x="44" y="72" width="1" height="1" fill="black"/>
  <rect x="45" y="42" width="29" height="1" fill="black"/>
  <rect x="46" y="76" width="1" height="1" fill="black"/>
  <rect x="46" y="0" width="2" height="1" fill="black"/>
  <rect x="46" y="75" width="3" height="1" fill="black"/>
  <rect x="46" y="1" width="4" height="1" fill="black"/>
  <rect x="46" y="64" width="9" height="1" fill="black"/>
  <rect x="47" y="74" width="3" height="1" fill="black"/>
  <rect x="47" y="2" width="4" height="1" fill="black"/>
  <rect x="47" y="10" width="7" height="1" fill="black"/>
  <rect x="47" y="11" width="8" height="1" fill="black"/>
  <rect x="47" y="65" width="8" height="1" fill="black"/>
  <rect x="48" y="3" width="4" height="1" fill="black"/>
  <rect x="48" y="73" width="4" height="1" fill="black"/>
  <rect x="48" y="4" width="5" height="2" fill="black"/>
  <rect x="48" y="71" width="5" height="2" fill="black"/>
  <rect x="48" y="6" width="6" height="4" fill="black"/>
  <rect x="48" y="67" width="6" height="4" fill="black"/>
  <rect x="48" y="66" width="7" height="1" fill="black"/>
  <rect x="48" y="41" width="24" height="1" fill="black"/>
  <rect x="50" y="40" width="20" height="1" fill="black"/>
  <rect x="52" y="39" width="17" height="1" fill="black"/>
  <rect x="54" y="38" width="13" height="1" fill="black"/>
  <rect x="54" y="24" width="18" height="1" fill="black"/>
  <rect x="55" y="37" width="12" height="1" fill="black"/>
  <rect x="56" y="60" width="8" height="1" fill="black"/>
  <rect x="56" y="36" width="13" height="1" fill="black"/>
  <rect x="56" y="25" width="18" height="1" fill="black"/>
  <rect x="57" y="53" width="5" height="1" fill="black"/>
  <rect x="57" y="35" width="14" height="1" fill="black"/>
  <rect x="57" y="34" width="16" height="1" fill="black"/>
  <rect x="57" y="26" width="18" height="1" fill="black"/>
  <rect x="57" y="33" width="18" height="1" fill="black"/>
  <rect x="57" y="27" width="19" height="1" fill="black"/>
  <rect x="57" y="28" width="20" height="1" fill="black"/>
  <rect x="57" y="48" width="20" height="1" fill="black"/>
  <rect x="58" y="15" width="5" height="1" fill="black"/>
  <rect x="58" y="31" width="8" height="1" fill="black"/>
  <rect x="58" y="30" width="9" height="1" fill="black"/>
  <rect x="58" y="29" width="11" height="1" fill="black"/>
  <rect x="58" y="52" width="12" height="1" fill="black"/>
  <rect x="58" y="32" width="14" height="1" fill="black"/>
  <rect x="58" y="51" width="15" height="1" fill="black"/>
  <rect x="58" y="50" width="17" height="1" fill="black"/>
  <rect x="58" y="49" width="18" height="1" fill="black"/>
  <rect x="61" y="14" width="3" height="1" fill="black"/>
  <rect x="61" y="61" width="3" height="1" fill="black"/>
  <rect x="69" y="23" width="1" height="1" fill="black"/>
  <rect x="73" y="29" width="5" height="1" fill="black"/>
  <rect x="73" y="46" width="5" height="1" fill="black"/>
  <rect x="76" y="30" width="2" height="1" fill="black"/>
  <rect x="76" y="45" width="2" height="1" fill="black"/>
  <rect x="77" y="31" width="1" height="1" fill="black"/>
</svg>
