<?xml version="1.0" encoding="UTF-8"?>
<svg xmlns="http://www.w3.org/2000/svg" width="1mm" height="0.987048mm" viewBox="0 0 217.333 214.519">
  <path fill="black" fill-rule="evenodd" d="M 0.667 129.37 C -0.833 126.87 0.667 126.37 0.667 126.37 C 0.667 126.37 6.5 130.537 11.667 131.37 C 16.833 132.204 27.667 131.704 31.667 131.37 C 35.667 131.037 35.0 130.37 35.667 129.37 C 36.333 128.37 36.0 126.37 35.667 125.37 C 35.333 124.37 36.5 123.37 33.667 123.37 C 30.833 123.37 18.667 125.37 18.667 125.37 C 18.667 125.37 18.667 123.87 17.667 123.37 C 16.667 122.87 12.667 122.37 12.667 122.37 C 12.667 122.37 12.833 119.537 14.667 118.37 C 16.5 117.204 21.833 116.37 23.667 115.37 C 25.5 114.37 24.333 113.37 25.667 112.37 C 27.0 111.37 30.667 110.37 31.667 109.37 C 32.667 108.37 31.667 106.37 31.667 106.37 C 31.667 106.37 31.667 107.704 29.667 106.37 C 27.667 105.037 22.167 99.87 19.667 98.37 C 17.167 96.87 15.833 98.204 14.667 97.37 C 13.5 96.537 12.667 93.37 12.667 93.37 C 12.667 93.37 17.167 91.537 20.667 91.37 C 24.167 91.204 31.167 92.87 33.667 92.37 C 36.167 91.87 35.667 88.37 35.667 88.37 C 35.667 88.37 33.833 85.204 30.667 84.37 C 27.5 83.537 20.167 83.204 16.667 83.37 C 13.167 83.537 11.667 84.37 9.667 85.37 C 7.667 86.37 6.0 88.704 4.667 89.37 C 3.333 90.037 1.667 89.37 1.667 89.37 C 1.667 89.37 1.5 83.87 2.667 81.37 C 3.833 78.87 7.333 75.537 8.667 74.37 C 10.0 73.204 9.167 75.37 10.667 74.37 C 12.167 73.37 14.833 69.704 17.667 68.37 C 20.5 67.037 22.833 66.704 27.667 66.37 C 32.5 66.037 46.667 66.37 46.667 66.37 C 46.667 66.37 47.0 62.37 46.667 61.37 C 46.333 60.37 45.667 63.37 44.667 60.37 C 43.667 57.37 40.667 43.37 40.667 43.37 C 40.667 43.37 40.5 41.87 44.667 42.37 C 48.833 42.87 65.667 46.37 65.667 46.37 C 65.667 46.37 66.0 29.37 66.667 24.37 C 67.333 19.37 67.667 19.537 69.667 16.37 C 71.667 13.204 75.667 8.037 78.667 5.37 C 81.667 2.704 85.667 1.204 87.667 0.37 C 89.667 -0.463 90.667 0.37 90.667 0.37 C 90.667 0.37 91.0 3.537 90.667 4.37 C 90.333 5.204 89.5 4.037 88.667 5.37 C 87.833 6.704 86.333 8.87 85.667 12.37 C 85.0 15.87 84.0 22.704 84.667 26.37 C 85.333 30.037 89.667 34.37 89.667 34.37 C 89.667 34.37 92.667 33.37 92.667 33.37 C 92.667 33.37 91.5 21.87 91.667 19.37 C 91.833 16.87 93.167 19.537 93.667 18.37 C 94.167 17.204 94.667 12.37 94.667 12.37 C 94.667 12.37 96.667 12.37 96.667 12.37 C 96.667 12.37 98.167 17.704 99.667 20.37 C 101.167 23.037 104.667 26.537 105.667 28.37 C 106.667 30.204 105.667 31.37 105.667 31.37 C 105.667 31.37 109.5 31.704 110.667 31.37 C 111.833 31.037 111.167 31.704 112.667 29.37 C 114.167 27.037 118.5 19.87 119.667 17.37 C 120.833 14.87 119.667 14.37 119.667 14.37 C 119.667 14.37 122.667 13.37 122.667 13.37 C 122.667 13.37 126.333 15.87 126.667 19.37 C 127.0 22.87 124.667 34.37 124.667 34.37 C 124.667 34.37 128.333 35.37 129.667 34.37 C 131.0 33.37 132.0 30.87 132.667 28.37 C 133.333 25.87 133.667 22.204 133.667 19.37 C 133.667 16.537 133.833 14.204 132.667 11.37 C 131.5 8.537 126.667 2.37 126.667 2.37 C 126.667 2.37 131.667 1.37 131.667 1.37 C 131.667 1.37 132.0 3.037 132.667 3.37 C 133.333 3.704 134.5 2.704 135.667 3.37 C 136.833 4.037 138.667 6.704 139.667 7.37 C 140.667 8.037 140.0 5.37 141.667 7.37 C 143.333 9.37 148.333 16.037 149.667 19.37 C 151.0 22.704 149.167 24.87 149.667 27.37 C 150.167 29.87 152.167 31.37 152.667 34.37 C 153.167 37.37 152.667 45.37 152.667 45.37 C 152.667 45.37 157.167 45.704 158.667 45.37 C 160.167 45.037 159.833 43.87 161.667 43.37 C 163.5 42.87 168.0 42.87 169.667 42.37 C 171.333 41.87 170.5 40.704 171.667 40.37 C 172.833 40.037 176.667 40.37 176.667 40.37 C 176.667 40.37 175.5 51.037 174.667 54.37 C 173.833 57.704 172.0 58.537 171.667 60.37 C 171.333 62.204 172.667 65.37 172.667 65.37 C 172.667 65.37 182.5 65.037 186.667 65.37 C 190.833 65.704 194.167 66.204 197.667 67.37 C 201.167 68.537 204.5 69.37 207.667 72.37 C 210.833 75.37 215.167 82.537 216.667 85.37 C 218.167 88.204 216.667 89.37 216.667 89.37 C 216.667 89.37 215.167 90.204 213.667 89.37 C 212.167 88.537 211.0 85.537 207.667 84.37 C 204.333 83.204 197.667 81.87 193.667 82.37 C 189.667 82.87 183.667 87.37 183.667 87.37 C 183.667 87.37 183.0 90.87 185.667 91.37 C 188.333 91.87 196.167 90.037 199.667 90.37 C 203.167 90.704 205.5 92.537 206.667 93.37 C 207.833 94.204 210.0 93.37 206.667 95.37 C 203.333 97.37 186.667 105.37 186.667 105.37 C 186.667 105.37 187.667 109.37 187.667 109.37 C 187.667 109.37 188.333 108.37 189.667 109.37 C 191.0 110.37 193.0 113.87 195.667 115.37 C 198.333 116.87 205.667 118.37 205.667 118.37 C 205.667 118.37 205.667 121.37 205.667 121.37 C 205.667 121.37 201.333 124.037 197.667 124.37 C 194.0 124.704 183.667 123.37 183.667 123.37 C 183.667 123.37 182.833 127.037 183.667 128.37 C 184.5 129.704 185.667 130.87 188.667 131.37 C 191.667 131.87 198.167 131.704 201.667 131.37 C 205.167 131.037 208.0 130.204 209.667 129.37 C 211.333 128.537 210.667 126.87 211.667 126.37 C 212.667 125.87 215.667 126.37 215.667 126.37 C 215.667 126.37 216.833 129.37 216.667 130.37 C 216.5 131.37 215.0 131.537 214.667 132.37 C 214.333 133.204 215.833 133.704 214.667 135.37 C 213.5 137.037 210.167 140.537 207.667 142.37 C 205.167 144.204 201.833 145.704 199.667 146.37 C 197.5 147.037 195.833 146.037 194.667 146.37 C 193.5 146.704 196.333 148.037 192.667 148.37 C 189.0 148.704 172.667 148.37 172.667 148.37 C 172.667 148.37 171.333 151.704 171.667 153.37 C 172.0 155.037 173.667 155.204 174.667 158.37 C 175.667 161.537 177.667 172.37 177.667 172.37 C 177.667 172.37 174.667 174.037 170.667 173.37 C 166.667 172.704 156.833 168.87 153.667 168.37 C 150.5 167.87 152.0 167.037 151.667 170.37 C 151.333 173.704 152.0 183.87 151.667 188.37 C 151.333 192.87 151.167 194.204 149.667 197.37 C 148.167 200.537 145.0 205.204 142.667 207.37 C 140.333 209.537 137.0 209.537 135.667 210.37 C 134.333 211.204 135.333 212.037 134.667 212.37 C 134.0 212.704 132.333 212.037 131.667 212.37 C 131.0 212.704 131.333 214.037 130.667 214.37 C 130.0 214.704 127.667 214.37 127.667 214.37 C 127.667 214.37 126.833 212.87 127.667 211.37 C 128.5 209.87 131.5 208.204 132.667 205.37 C 133.833 202.537 134.667 196.704 134.667 194.37 C 134.667 192.037 133.0 192.704 132.667 191.37 C 132.333 190.037 133.333 188.204 132.667 186.37 C 132.0 184.537 130.0 181.37 128.667 180.37 C 127.333 179.37 124.667 180.37 124.667 180.37 C 124.667 180.37 126.667 192.537 126.667 195.37 C 126.667 198.204 125.167 196.037 124.667 197.37 C 124.167 198.704 123.667 203.37 123.667 203.37 C 123.667 203.37 121.667 203.37 121.667 203.37 C 121.667 203.37 122.0 201.87 121.667 201.37 C 121.333 200.87 120.0 201.037 119.667 200.37 C 119.333 199.704 121.0 200.037 119.667 197.37 C 118.333 194.704 111.667 184.37 111.667 184.37 C 111.667 184.37 107.667 185.37 107.667 185.37 C 107.667 185.37 108.833 185.87 107.667 187.37 C 106.5 188.87 102.333 191.87 100.667 194.37 C 99.0 196.87 98.667 200.87 97.667 202.37 C 96.667 203.87 94.667 203.37 94.667 203.37 C 94.667 203.37 92.167 198.704 91.667 196.37 C 91.167 194.037 91.167 191.537 91.667 189.37 C 92.167 187.204 94.667 183.37 94.667 183.37 C 94.667 183.37 92.667 180.87 91.667 180.37 C 90.667 179.87 89.5 179.87 88.667 180.37 C 87.833 180.87 87.0 181.537 86.667 183.37 C 86.333 185.204 87.0 189.204 86.667 191.37 C 86.333 193.537 84.833 194.204 84.667 196.37 C 84.5 198.537 84.667 202.037 85.667 204.37 C 86.667 206.704 89.833 208.704 90.667 210.37 C 91.5 212.037 90.667 214.37 90.667 214.37 C 90.667 214.37 88.333 214.704 87.667 214.37 C 87.0 214.037 88.0 213.037 86.667 212.37 C 85.333 211.704 82.5 212.704 79.667 210.37 C 76.833 208.037 71.5 201.87 69.667 198.37 C 67.833 194.87 69.167 191.204 68.667 189.37 C 68.167 187.537 67.167 190.704 66.667 187.37 C 66.167 184.037 65.667 169.37 65.667 169.37 C 65.667 169.37 41.667 175.37 41.667 175.37 C 41.667 175.37 42.833 165.537 43.667 162.37 C 44.5 159.204 46.333 158.704 46.667 156.37 C 47.0 154.037 45.667 148.37 45.667 148.37 C 45.667 148.37 26.667 149.537 20.667 148.37 C 14.667 147.204 13.0 144.537 9.667 141.37 C 6.333 138.204 2.167 131.87 0.667 129.37 Z M 97.667 68.37 C 97.667 68.37 96.333 80.537 96.667 83.37 C 97.0 86.204 92.167 85.037 99.667 85.37 C 107.167 85.704 141.667 85.37 141.667 85.37 C 141.667 85.37 142.0 93.37 141.667 95.37 C 141.333 97.37 142.333 96.37 139.667 97.37 C 137.0 98.37 129.667 99.704 125.667 101.37 C 121.667 103.037 118.0 106.37 115.667 107.37 C 113.333 108.37 112.5 107.037 111.667 107.37 C 110.833 107.704 112.167 108.537 110.667 109.37 C 109.167 110.204 104.167 111.37 102.667 112.37 C 101.167 113.37 102.5 114.37 101.667 115.37 C 100.833 116.37 98.333 116.204 97.667 118.37 C 97.0 120.537 98.0 126.037 97.667 128.37 C 97.333 130.704 95.667 128.704 95.667 132.37 C 95.667 136.037 97.667 150.37 97.667 150.37 C 97.667 150.37 148.167 150.704 158.667 150.37 C 169.167 150.037 160.333 150.37 160.667 148.37 C 161.0 146.37 161.167 140.537 160.667 138.37 C 160.167 136.204 165.0 135.87 157.667 135.37 C 150.333 134.87 124.0 135.704 116.667 135.37 C 109.333 135.037 114.167 135.037 113.667 133.37 C 113.167 131.704 113.0 127.37 113.667 125.37 C 114.333 123.37 115.0 122.537 117.667 121.37 C 120.333 120.204 127.0 119.37 129.667 118.37 C 132.333 117.37 132.333 115.87 133.667 115.37 C 135.0 114.87 136.5 115.87 137.667 115.37 C 138.833 114.87 139.5 112.87 140.667 112.37 C 141.833 111.87 141.667 114.37 144.667 112.37 C 147.667 110.37 156.0 105.204 158.667 100.37 C 161.333 95.537 160.833 87.87 160.667 83.37 C 160.5 78.87 159.667 75.87 157.667 73.37 C 155.667 70.87 158.667 69.204 148.667 68.37 C 138.667 67.537 97.667 68.37 97.667 68.37 Z M 77.667 151.37 C 80.0 151.204 80.167 162.704 80.667 149.37 C 81.167 136.037 80.667 71.37 80.667 71.37 C 80.667 71.37 62.833 70.037 58.667 70.37 C 54.5 70.704 56.333 71.37 55.667 73.37 C 55.0 75.37 54.5 80.537 54.667 82.37 C 54.833 84.204 55.167 83.87 56.667 84.37 C 58.167 84.87 63.667 85.37 63.667 85.37 C 63.667 85.37 63.167 135.537 63.667 146.37 C 64.167 157.204 64.333 149.537 66.667 150.37 C 69.0 151.204 75.333 151.537 77.667 151.37 Z"/>
</svg>
