<?xml version="1.0" encoding="UTF-8"?>
<svg xmlns="http://www.w3.org/2000/svg" width="1mm" height="1.000000mm" viewBox="0 0 75 75">
  <rect x="0" y="18" width="1" height="1" fill="black"/>
  <rect x="0" y="57" width="1" height="1" fill="black"/>
  <rect x="0" y="19" width="2" height="2" fill="black"/>
  <rect x="0" y="55" width="2" height="2" fill="black"/>
  <rect x="0" y="54" width="3" height="1" fill="black"/>
  <rect x="1" y="21" width="2" height="1" fill="black"/>
  <rect x="1" y="53" width="2" height="1" fill="black"/>
  <rect x="1" y="22" width="3" height="2" fill="black"/>
  <rect x="1" y="52" width="3" height="1" fill="black"/>
  <rect x="1" y="51" width="4" height="1" fill="black"/>
  <rect x="2" y="24" width="3" height="1" fill="black"/>
  <rect x="2" y="50" width="3" height="1" fill="black"/>
  <rect x="2" y="25" width="4" height="1" fill="black"/>
  <rect x="2" y="49" width="4" height="1" fill="black"/>
  <rect x="3" y="26" width="4" height="1" fill="black"/>
  <rect x="3" y="48" width="4" height="1" fill="black"/>
  <rect x="3" y="27" width="5" height="1" fill="black"/>
  <rect x="3" y="47" width="5" height="1" fill="black"/>
  <rect x="3" y="28" width="6" height="1" fill="black"/>
  <rect x="4" y="46" width="5" height="1" fill="black"/>
  <rect x="4" y="29" width="6" height="1" fill="black"/>
  <rect x="4" y="45" width="6" height="1" fill="black"/>
  <rect x="5" y="30" width="6" height="1" fill="black"/>
  <rect x="5" y="44" width="7" height="1" fill="black"/>
  <rect x="5" y="31" width="8" height="1" fill="black"/>
  <rect x="6" y="43" width="7" height="1" fill="black"/>
  <rect x="6" y="32" width="8" height="1" fill="black"/>
  <rect x="6" y="42" width="8" height="1" fill="black"/>
  <rect x="7" y="33" width="16" height="1" fill="black"/>
  <rect x="7" y="41" width="16" height="1" fill="black"/>
  <rect x="8" y="34" width="15" height="1" fill="black"/>
  <rect x="8" y="40" width="15" height="1" fill="black"/>
  <rect x="9" y="9" width="1" height="1" fill="black"/>
  <rect x="9" y="65" width="1" height="1" fill="black"/>
  <rect x="9" y="10" width="3" height="1" fill="black"/>
  <rect x="9" y="35" width="14" height="1" fill="black"/>
  <rect x="9" y="38" width="14" height="2" fill="black"/>
  <rect x="10" y="64" width="2" height="1" fill="black"/>
  <rect x="10" y="11" width="4" height="1" fill="black"/>
  <rect x="10" y="63" width="4" height="1" fill="black"/>
  <rect x="10" y="12" width="5" height="1" fill="black"/>
  <rect x="10" y="36" width="13" height="2" fill="black"/>
  <rect x="11" y="62" width="4" height="1" fill="black"/>
  <rect x="11" y="13" width="6" height="1" fill="black"/>
  <rect x="11" y="61" width="6" height="1" fill="black"/>
  <rect x="12" y="14" width="6" height="1" fill="black"/>
  <rect x="12" y="60" width="6" height="1" fill="black"/>
  <rect x="12" y="15" width="8" height="1" fill="black"/>
  <rect x="13" y="27" width="7" height="1" fill="black"/>
  <rect x="13" y="59" width="7" height="1" fill="black"/>
  <rect x="13" y="16" width="8" height="1" fill="black"/>
  <rect x="13" y="58" width="8" height="1" fill="black"/>
  <rect x="13" y="28" width="10" height="2" fill="black"/>
  <rect x="13" y="45" width="10" height="3" fill="black"/>
  <rect x="14" y="25" width="6" height="2" fill="black"/>
  <rect x="14" y="17" width="8" height="1" fill="black"/>
  <rect x="14" y="57" width="8" height="1" fill="black"/>
  <rect x="14" y="30" width="9" height="1" fill="black"/>
  <rect x="14" y="44" width="9" height="1" fill="black"/>
  <rect x="14" y="48" width="9" height="2" fill="black"/>
  <rect x="15" y="23" width="2" height="1" fill="black"/>
  <rect x="15" y="51" width="2" height="1" fill="black"/>
  <rect x="15" y="24" width="6" height="1" fill="black"/>
  <rect x="15" y="31" width="8" height="1" fill="black"/>
  <rect x="15" y="43" width="8" height="1" fill="black"/>
  <rect x="15" y="50" width="8" height="1" fill="black"/>
  <rect x="15" y="18" width="9" height="1" fill="black"/>
  <rect x="15" y="56" width="36" height="1" fill="black"/>
  <rect x="15" y="19" width="45" height="1" fill="black"/>
  <rect x="16" y="32" width="7" height="1" fill="black"/>
  <rect x="16" y="42" width="7" height="1" fill="black"/>
  <rect x="16" y="20" width="43" height="1" fill="black"/>
  <rect x="16" y="54" width="43" height="1" fill="black"/>
  <rect x="16" y="55" width="44" height="1" fill="black"/>
  <rect x="17" y="22" width="41" height="1" fill="black"/>
  <rect x="17" y="53" width="41" height="1" fill="black"/>
  <rect x="17" y="21" width="42" height="1" fill="black"/>
  <rect x="18" y="23" width="3" height="1" fill="black"/>
  <rect x="18" y="1" width="5" height="1" fill="black"/>
  <rect x="18" y="51" width="39" height="1" fill="black"/>
  <rect x="18" y="52" width="40" height="1" fill="black"/>
  <rect x="19" y="73" width="4" height="1" fill="black"/>
  <rect x="20" y="2" width="6" height="1" fill="black"/>
  <rect x="21" y="72" width="5" height="1" fill="black"/>
  <rect x="22" y="3" width="6" height="1" fill="black"/>
  <rect x="22" y="71" width="6" height="1" fill="black"/>
  <rect x="23" y="4" width="7" height="1" fill="black"/>
  <rect x="23" y="70" width="7" height="1" fill="black"/>
  <rect x="23" y="15" width="9" height="1" fill="black"/>
  <rect x="23" y="59" width="9" height="1" fill="black"/>
  <rect x="23" y="58" width="10" height="1" fill="black"/>
  <rect x="23" y="16" width="29" height="1" fill="black"/>
  <rect x="24" y="17" width="27" height="1" fill="black"/>
  <rect x="24" y="57" width="28" height="1" fill="black"/>
  <rect x="25" y="5" width="6" height="1" fill="black"/>
  <rect x="25" y="14" width="6" height="1" fill="black"/>
  <rect x="25" y="60" width="6" height="1" fill="black"/>
  <rect x="25" y="69" width="6" height="1" fill="black"/>
  <rect x="25" y="18" width="26" height="1" fill="black"/>
  <rect x="26" y="6" width="7" height="1" fill="black"/>
  <rect x="26" y="68" width="7" height="1" fill="black"/>
  <rect x="27" y="13" width="3" height="1" fill="black"/>
  <rect x="27" y="7" width="7" height="1" fill="black"/>
  <rect x="27" y="67" width="7" height="1" fill="black"/>
  <rect x="28" y="61" width="3" height="1" fill="black"/>
  <rect x="28" y="8" width="7" height="1" fill="black"/>
  <rect x="28" y="66" width="7" height="1" fill="black"/>
  <rect x="29" y="23" width="5" height="5" fill="black"/>
  <rect x="29" y="46" width="5" height="5" fill="black"/>
  <rect x="29" y="9" width="7" height="1" fill="black"/>
  <rect x="29" y="65" width="7" height="1" fill="black"/>
  <rect x="29" y="35" width="9" height="5" fill="black"/>
  <rect x="29" y="28" width="20" height="7" fill="black"/>
  <rect x="29" y="40" width="20" height="6" fill="black"/>
  <rect x="30" y="10" width="16" height="1" fill="black"/>
  <rect x="30" y="64" width="16" height="1" fill="black"/>
  <rect x="31" y="12" width="13" height="1" fill="black"/>
  <rect x="31" y="62" width="13" height="1" fill="black"/>
  <rect x="31" y="11" width="14" height="1" fill="black"/>
  <rect x="31" y="63" width="14" height="1" fill="black"/>
  <rect x="32" y="13" width="11" height="1" fill="black"/>
  <rect x="32" y="61" width="12" height="1" fill="black"/>
  <rect x="33" y="15" width="9" height="1" fill="black"/>
  <rect x="33" y="14" width="10" height="1" fill="black"/>
  <rect x="33" y="59" width="10" height="2" fill="black"/>
  <rect x="34" y="58" width="19" height="1" fill="black"/>
  <rect x="39" y="9" width="7" height="1" fill="black"/>
  <rect x="39" y="65" width="8" height="1" fill="black"/>
  <rect x="40" y="8" width="7" height="1" fill="black"/>
  <rect x="41" y="66" width="7" height="1" fill="black"/>
  <rect x="42" y="7" width="6" height="1" fill="black"/>
  <rect x="42" y="67" width="7" height="1" fill="black"/>
  <rect x="43" y="6" width="6" height="1" fill="black"/>
  <rect x="43" y="68" width="7" height="1" fill="black"/>
  <rect x="43" y="15" width="9" height="1" fill="black"/>
  <rect x="44" y="14" width="6" height="1" fill="black"/>
  <rect x="44" y="60" width="6" height="1" fill="black"/>
  <rect x="44" y="5" width="7" height="1" fill="black"/>
  <rect x="44" y="69" width="7" height="1" fill="black"/>
  <rect x="44" y="59" width="8" height="1" fill="black"/>
  <rect x="45" y="13" width="3" height="1" fill="black"/>
  <rect x="45" y="61" width="3" height="1" fill="black"/>
  <rect x="45" y="4" width="7" height="1" fill="black"/>
  <rect x="46" y="70" width="7" height="1" fill="black"/>
  <rect x="47" y="3" width="6" height="1" fill="black"/>
  <rect x="48" y="71" width="6" height="1" fill="black"/>
  <rect x="49" y="2" width="6" height="1" fill="black"/>
  <rect x="49" y="72" width="7" height="1" fill="black"/>
  <rect x="51" y="1" width="5" height="1" fill="black"/>
  <rect x="52" y="73" width="5" height="1" fill="black"/>
  <rect x="52" y="23" width="8" height="1" fill="black"/>
  <rect x="52" y="18" width="9" height="1" fill="black"/>
  <rect x="52" y="56" width="9" height="1" fill="black"/>
  <rect x="53" y="50" width="3" height="1" fill="black"/>
  <rect x="53" y="17" width="8" height="1" fill="black"/>
  <rect x="53" y="57" width="9" height="1" fill="black"/>
  <rect x="54" y="0" width="4" height="1" fill="black"/>
  <rect x="54" y="24" width="7" height="1" fill="black"/>
  <rect x="54" y="16" width="8" height="1" fill="black"/>
  <rect x="55" y="74" width="3" height="1" fill="black"/>
  <rect x="55" y="31" width="5" height="2" fill="black"/>
  <rect x="55" y="25" width="6" height="1" fill="black"/>
  <rect x="55" y="49" width="6" height="1" fill="black"/>
  <rect x="55" y="26" width="7" height="1" fill="black"/>
  <rect x="55" y="47" width="7" height="2" fill="black"/>
  <rect x="55" y="58" width="7" height="1" fill="black"/>
  <rect x="55" y="37" width="10" height="1" fill="black"/>
  <rect x="55" y="36" width="11" height="1" fill="black"/>
  <rect x="55" y="38" width="11" height="1" fill="black"/>
  <rect x="55" y="34" width="12" height="2" fill="black"/>
  <rect x="55" y="39" width="12" height="1" fill="black"/>
  <rect x="55" y="33" width="13" height="1" fill="black"/>
  <rect x="55" y="40" width="13" height="1" fill="black"/>
  <rect x="56" y="41" width="3" height="1" fill="black"/>
  <rect x="56" y="42" width="4" height="1" fill="black"/>
  <rect x="56" y="43" width="5" height="1" fill="black"/>
  <rect x="56" y="27" width="6" height="1" fill="black"/>
  <rect x="56" y="30" width="6" height="1" fill="black"/>
  <rect x="56" y="44" width="6" height="1" fill="black"/>
  <rect x="56" y="15" width="7" height="1" fill="black"/>
  <rect x="56" y="28" width="7" height="2" fill="black"/>
  <rect x="56" y="45" width="7" height="2" fill="black"/>
  <rect x="56" y="59" width="7" height="1" fill="black"/>
  <rect x="57" y="50" width="4" height="1" fill="black"/>
  <rect x="57" y="14" width="7" height="1" fill="black"/>
  <rect x="58" y="13" width="6" height="1" fill="black"/>
  <rect x="58" y="60" width="6" height="1" fill="black"/>
  <rect x="59" y="51" width="1" height="1" fill="black"/>
  <rect x="59" y="61" width="6" height="1" fill="black"/>
  <rect x="60" y="12" width="5" height="1" fill="black"/>
  <rect x="60" y="41" width="8" height="1" fill="black"/>
  <rect x="61" y="11" width="4" height="1" fill="black"/>
  <rect x="61" y="62" width="4" height="1" fill="black"/>
  <rect x="61" y="32" width="8" height="1" fill="black"/>
  <rect x="61" y="42" width="8" height="1" fill="black"/>
  <rect x="62" y="63" width="4" height="1" fill="black"/>
  <rect x="62" y="31" width="8" height="1" fill="black"/>
  <rect x="63" y="10" width="3" height="1" fill="black"/>
  <rect x="63" y="43" width="7" height="1" fill="black"/>
  <rect x="64" y="64" width="2" height="1" fill="black"/>
  <rect x="64" y="30" width="7" height="1" fill="black"/>
  <rect x="64" y="44" width="7" height="1" fill="black"/>
  <rect x="65" y="9" width="1" height="1" fill="black"/>
  <rect x="65" y="29" width="6" height="1" fill="black"/>
  <rect x="66" y="45" width="5" height="1" fill="black"/>
  <rect x="66" y="28" width="6" height="1" fill="black"/>
  <rect x="67" y="27" width="5" height="1" fill="black"/>
  <rect x="67" y="46" width="5" height="1" fill="black"/>
  <rect x="68" y="26" width="5" height="1" fill="black"/>
  <rect x="68" y="47" width="5" height="1" fill="black"/>
  <rect x="69" y="25" width="4" height="1" fill="black"/>
  <rect x="69" y="48" width="4" height="1" fill="black"/>
  <rect x="70" y="24" width="4" height="1" fill="black"/>
  <rect x="70" y="49" width="4" height="2" fill="black"/>
  <rect x="71" y="23" width="3" height="1" fill="black"/>
  <rect x="71" y="51" width="3" height="1" fill="black"/>
  <rect x="71" y="22" width="4" height="1" fill="black"/>
  <rect x="72" y="21" width="3" height="1" fill="black"/>
  <rect x="72" y="52" width="3" height="1" fill="black"/>
  <rect x="73" y="19" width="2" height="2" fill="black"/>
  <rect x="73" y="53" width="2" height="2" fill="black"/>
  <rect x="74" y="17" width="1" height="2" fill="black"/>
  <rect x="74" y="55" width="1" height="2" fill="black"/>
</svg>
