<?xml version="1.0" encoding="UTF-8"?>
<svg xmlns="http://www.w3.org/2000/svg" width="1mm" height="0.998274mm" viewBox="0 0 75.427 75.296">
  <path fill="black" fill-rule="evenodd" d="M 58.13 75.296 C 58.13 75.296 52.297 74.963 49.13 73.296 C 45.964 71.63 41.297 66.63 39.13 65.296 C 36.964 63.963 37.13 64.63 36.13 65.296 C 35.13 65.963 34.797 67.963 33.13 69.296 C 31.464 70.63 28.464 72.463 26.13 73.296 C 23.797 74.13 19.13 74.296 19.13 74.296 C 19.13 74.296 22.13 70.963 23.13 70.296 C 24.13 69.63 23.797 71.296 25.13 70.296 C 26.464 69.296 30.13 65.63 31.13 64.296 C 32.13 62.963 31.13 62.296 31.13 62.296 C 31.13 62.296 23.13 60.296 23.13 60.296 C 23.13 60.296 24.13 57.296 24.13 57.296 C 24.13 57.296 22.797 56.796 22.13 57.296 C 21.464 57.796 22.297 58.796 20.13 60.296 C 17.964 61.796 9.13 66.296 9.13 66.296 C 9.13 66.296 11.63 60.463 13.13 58.296 C 14.63 56.13 17.297 54.463 18.13 53.296 C 18.964 52.13 18.13 51.296 18.13 51.296 C 18.13 51.296 15.13 52.296 15.13 52.296 C 15.13 52.296 13.464 49.463 13.13 48.296 C 12.797 47.13 12.63 46.296 13.13 45.296 C 13.63 44.296 16.13 42.296 16.13 42.296 C 16.13 42.296 12.797 42.63 10.13 45.296 C 7.464 47.963 0.13 58.296 0.13 58.296 C 0.13 58.296 -0.536 54.63 1.13 51.296 C 2.797 47.963 8.63 40.796 10.13 38.296 C 11.63 35.796 11.297 37.796 10.13 36.296 C 8.964 34.796 4.797 32.296 3.13 29.296 C 1.464 26.296 0.13 18.296 0.13 18.296 C 0.13 18.296 8.464 28.796 11.13 31.296 C 13.797 33.796 16.13 33.296 16.13 33.296 C 16.13 33.296 13.63 31.296 13.13 30.296 C 12.63 29.296 12.797 28.463 13.13 27.296 C 13.464 26.13 14.464 23.963 15.13 23.296 C 15.797 22.63 17.13 23.296 17.13 23.296 C 17.13 23.296 17.964 22.463 17.13 21.296 C 16.297 20.13 13.464 18.296 12.13 16.296 C 10.797 14.296 9.13 9.296 9.13 9.296 C 9.13 9.296 17.964 13.796 20.13 15.296 C 22.297 16.796 21.464 17.796 22.13 18.296 C 22.797 18.796 24.13 18.296 24.13 18.296 C 24.13 18.296 23.13 15.296 23.13 15.296 C 23.13 15.296 25.964 13.63 27.13 13.296 C 28.297 12.963 29.13 12.796 30.13 13.296 C 31.13 13.796 33.13 16.296 33.13 16.296 C 33.13 16.296 33.63 13.796 31.13 11.296 C 28.63 8.796 18.13 1.296 18.13 1.296 C 18.13 1.296 23.63 1.463 26.13 2.296 C 28.63 3.13 31.464 4.963 33.13 6.296 C 34.797 7.63 35.13 9.63 36.13 10.296 C 37.13 10.963 37.63 11.296 39.13 10.296 C 40.63 9.296 42.63 5.963 45.13 4.296 C 47.63 2.63 51.964 0.963 54.13 0.296 C 56.297 -0.37 58.13 0.296 58.13 0.296 C 58.13 0.296 52.63 5.296 51.13 6.296 C 49.63 7.296 50.464 5.13 49.13 6.296 C 47.797 7.463 44.13 11.796 43.13 13.296 C 42.13 14.796 43.13 15.296 43.13 15.296 C 43.13 15.296 44.297 13.63 45.13 13.296 C 45.964 12.963 46.964 12.963 48.13 13.296 C 49.297 13.63 51.464 14.296 52.13 15.296 C 52.797 16.296 52.13 19.296 52.13 19.296 C 52.13 19.296 55.797 14.963 58.13 13.296 C 60.464 11.63 66.13 9.296 66.13 9.296 C 66.13 9.296 65.464 13.13 64.13 15.296 C 62.797 17.463 58.13 22.296 58.13 22.296 C 58.13 22.296 62.464 26.796 63.13 28.296 C 63.797 29.796 62.13 31.296 62.13 31.296 C 62.13 31.296 62.63 32.463 64.13 31.296 C 65.63 30.13 69.297 26.63 71.13 24.296 C 72.964 21.963 75.13 17.296 75.13 17.296 C 75.13 17.296 75.797 20.963 75.13 23.296 C 74.464 25.63 72.797 28.963 71.13 31.296 C 69.464 33.63 65.13 37.296 65.13 37.296 C 65.13 37.296 71.464 43.963 73.13 47.296 C 74.797 50.63 75.13 57.296 75.13 57.296 C 75.13 57.296 71.63 51.296 70.13 49.296 C 68.63 47.296 67.63 46.296 66.13 45.296 C 64.63 44.296 61.13 43.296 61.13 43.296 C 61.13 43.296 63.297 45.796 63.13 47.296 C 62.964 48.796 61.13 51.463 60.13 52.296 C 59.13 53.13 57.13 52.296 57.13 52.296 C 57.13 52.296 63.63 59.13 65.13 61.296 C 66.63 63.463 66.13 65.296 66.13 65.296 C 66.13 65.296 63.964 65.463 62.13 64.296 C 60.297 63.13 55.13 58.296 55.13 58.296 C 55.13 58.296 49.964 61.796 48.13 62.296 C 46.297 62.796 44.13 61.296 44.13 61.296 C 44.13 61.296 41.797 60.963 44.13 63.296 C 46.464 65.63 58.13 75.296 58.13 75.296 Z M 29.13 51.296 C 29.13 51.296 29.13 23.296 29.13 23.296 C 29.13 23.296 21.13 23.296 21.13 23.296 C 21.13 23.296 20.13 28.296 20.13 28.296 C 20.13 28.296 23.13 28.296 23.13 28.296 C 23.13 28.296 23.13 51.296 23.13 51.296 C 23.13 51.296 29.13 51.296 29.13 51.296 Z M 34.13 23.296 C 34.13 23.296 34.13 28.296 34.13 28.296 C 34.13 28.296 49.13 28.296 49.13 28.296 C 49.13 28.296 49.13 35.296 49.13 35.296 C 49.13 35.296 38.13 35.296 38.13 35.296 C 38.13 35.296 38.13 40.296 38.13 40.296 C 38.13 40.296 49.13 40.296 49.13 40.296 C 49.13 40.296 49.13 46.296 49.13 46.296 C 49.13 46.296 34.13 46.296 34.13 46.296 C 34.13 46.296 34.13 51.296 34.13 51.296 C 34.13 51.296 55.13 50.296 55.13 50.296 C 55.13 50.296 55.63 29.796 55.13 25.296 C 54.63 20.796 55.63 23.63 52.13 23.296 C 48.63 22.963 34.13 23.296 34.13 23.296 Z"/>
</svg>
