<?xml version="1.0" encoding="UTF-8"?>
<svg xmlns="http://www.w3.org/2000/svg" width="74mm" height="73mm" viewBox="0 0 74 73">
  <rect x="0" y="24" width="5" height="3" fill="black"/>
  <rect x="0" y="27" width="6" height="5" fill="black"/>
  <rect x="1" y="17" width="4" height="7" fill="black"/>
  <rect x="1" y="32" width="6" height="3" fill="black"/>
  <rect x="1" y="35" width="7" height="1" fill="black"/>
  <rect x="1" y="36" width="21" height="1" fill="black"/>
  <rect x="2" y="12" width="3" height="5" fill="black"/>
  <rect x="2" y="37" width="20" height="4" fill="black"/>
  <rect x="3" y="9" width="2" height="3" fill="black"/>
  <rect x="3" y="41" width="19" height="2" fill="black"/>
  <rect x="4" y="8" width="1" height="1" fill="black"/>
  <rect x="4" y="6" width="2" height="2" fill="black"/>
  <rect x="4" y="43" width="18" height="2" fill="black"/>
  <rect x="5" y="4" width="1" height="2" fill="black"/>
  <rect x="5" y="68" width="7" height="1" fill="black"/>
  <rect x="5" y="45" width="17" height="1" fill="black"/>
  <rect x="6" y="46" width="16" height="2" fill="black"/>
  <rect x="7" y="48" width="15" height="1" fill="black"/>
  <rect x="8" y="49" width="14" height="1" fill="black"/>
  <rect x="9" y="69" width="36" height="1" fill="black"/>
  <rect x="9" y="50" width="51" height="1" fill="black"/>
  <rect x="10" y="51" width="50" height="1" fill="black"/>
  <rect x="11" y="35" width="11" height="1" fill="black"/>
  <rect x="11" y="52" width="49" height="1" fill="black"/>
  <rect x="12" y="30" width="10" height="5" fill="black"/>
  <rect x="12" y="53" width="48" height="1" fill="black"/>
  <rect x="13" y="25" width="5" height="1" fill="black"/>
  <rect x="13" y="24" width="6" height="1" fill="black"/>
  <rect x="13" y="26" width="6" height="1" fill="black"/>
  <rect x="13" y="27" width="9" height="3" fill="black"/>
  <rect x="13" y="70" width="29" height="1" fill="black"/>
  <rect x="14" y="22" width="5" height="2" fill="black"/>
  <rect x="14" y="54" width="45" height="1" fill="black"/>
  <rect x="14" y="21" width="50" height="1" fill="black"/>
  <rect x="15" y="55" width="44" height="1" fill="black"/>
  <rect x="15" y="18" width="46" height="1" fill="black"/>
  <rect x="15" y="19" width="47" height="1" fill="black"/>
  <rect x="15" y="20" width="48" height="1" fill="black"/>
  <rect x="16" y="16" width="41" height="1" fill="black"/>
  <rect x="16" y="17" width="43" height="1" fill="black"/>
  <rect x="17" y="71" width="23" height="1" fill="black"/>
  <rect x="17" y="15" width="38" height="1" fill="black"/>
  <rect x="17" y="56" width="41" height="1" fill="black"/>
  <rect x="18" y="13" width="32" height="1" fill="black"/>
  <rect x="18" y="14" width="35" height="1" fill="black"/>
  <rect x="19" y="12" width="26" height="1" fill="black"/>
  <rect x="19" y="57" width="39" height="1" fill="black"/>
  <rect x="20" y="11" width="18" height="1" fill="black"/>
  <rect x="21" y="10" width="17" height="1" fill="black"/>
  <rect x="22" y="72" width="14" height="1" fill="black"/>
  <rect x="22" y="9" width="15" height="1" fill="black"/>
  <rect x="22" y="58" width="35" height="1" fill="black"/>
  <rect x="23" y="8" width="14" height="1" fill="black"/>
  <rect x="24" y="7" width="14" height="1" fill="black"/>
  <rect x="25" y="6" width="14" height="1" fill="black"/>
  <rect x="25" y="68" width="22" height="1" fill="black"/>
  <rect x="25" y="59" width="31" height="1" fill="black"/>
  <rect x="26" y="5" width="17" height="1" fill="black"/>
  <rect x="27" y="22" width="18" height="1" fill="black"/>
  <rect x="27" y="49" width="21" height="1" fill="black"/>
  <rect x="28" y="35" width="5" height="8" fill="black"/>
  <rect x="28" y="34" width="6" height="1" fill="black"/>
  <rect x="28" y="33" width="7" height="1" fill="black"/>
  <rect x="28" y="31" width="8" height="2" fill="black"/>
  <rect x="28" y="30" width="9" height="1" fill="black"/>
  <rect x="28" y="29" width="10" height="1" fill="black"/>
  <rect x="28" y="28" width="11" height="1" fill="black"/>
  <rect x="28" y="27" width="12" height="1" fill="black"/>
  <rect x="28" y="26" width="13" height="1" fill="black"/>
  <rect x="28" y="24" width="14" height="2" fill="black"/>
  <rect x="28" y="23" width="15" height="1" fill="black"/>
  <rect x="28" y="43" width="20" height="6" fill="black"/>
  <rect x="28" y="4" width="22" height="1" fill="black"/>
  <rect x="30" y="60" width="26" height="1" fill="black"/>
  <rect x="30" y="3" width="36" height="1" fill="black"/>
  <rect x="31" y="67" width="17" height="1" fill="black"/>
  <rect x="32" y="2" width="31" height="1" fill="black"/>
  <rect x="35" y="66" width="15" height="1" fill="black"/>
  <rect x="35" y="61" width="20" height="1" fill="black"/>
  <rect x="35" y="1" width="24" height="1" fill="black"/>
  <rect x="36" y="65" width="15" height="1" fill="black"/>
  <rect x="36" y="64" width="16" height="1" fill="black"/>
  <rect x="36" y="62" width="18" height="1" fill="black"/>
  <rect x="37" y="63" width="16" height="1" fill="black"/>
  <rect x="39" y="36" width="9" height="2" fill="black"/>
  <rect x="40" y="34" width="8" height="2" fill="black"/>
  <rect x="40" y="0" width="13" height="1" fill="black"/>
  <rect x="41" y="33" width="7" height="1" fill="black"/>
  <rect x="42" y="31" width="6" height="2" fill="black"/>
  <rect x="43" y="30" width="5" height="1" fill="black"/>
  <rect x="44" y="29" width="4" height="1" fill="black"/>
  <rect x="45" y="28" width="3" height="1" fill="black"/>
  <rect x="46" y="26" width="1" height="1" fill="black"/>
  <rect x="46" y="27" width="2" height="1" fill="black"/>
  <rect x="54" y="47" width="7" height="3" fill="black"/>
  <rect x="54" y="44" width="8" height="3" fill="black"/>
  <rect x="54" y="37" width="9" height="1" fill="black"/>
  <rect x="54" y="22" width="12" height="2" fill="black"/>
  <rect x="54" y="24" width="13" height="1" fill="black"/>
  <rect x="54" y="25" width="14" height="1" fill="black"/>
  <rect x="54" y="26" width="15" height="2" fill="black"/>
  <rect x="54" y="28" width="16" height="1" fill="black"/>
  <rect x="54" y="29" width="17" height="3" fill="black"/>
  <rect x="54" y="32" width="18" height="3" fill="black"/>
  <rect x="54" y="35" width="19" height="2" fill="black"/>
  <rect x="55" y="43" width="7" height="1" fill="black"/>
  <rect x="56" y="38" width="6" height="1" fill="black"/>
  <rect x="56" y="42" width="6" height="1" fill="black"/>
  <rect x="57" y="39" width="5" height="3" fill="black"/>
  <rect x="63" y="4" width="6" height="1" fill="black"/>
  <rect x="66" y="37" width="7" height="1" fill="black"/>
  <rect x="67" y="38" width="6" height="1" fill="black"/>
  <rect x="67" y="39" width="7" height="1" fill="black"/>
  <rect x="68" y="68" width="1" height="1" fill="black"/>
  <rect x="68" y="40" width="6" height="4" fill="black"/>
  <rect x="69" y="64" width="1" height="3" fill="black"/>
  <rect x="69" y="61" width="2" height="3" fill="black"/>
  <rect x="69" y="59" width="3" height="2" fill="black"/>
  <rect x="69" y="44" width="5" height="8" fill="black"/>
  <rect x="70" y="58" width="2" height="1" fill="black"/>
  <rect x="70" y="52" width="3" height="6" fill="black"/>
</svg>
