<?xml version="1.0" encoding="UTF-8"?>
<svg xmlns="http://www.w3.org/2000/svg" width="1mm" height="0.987500mm" viewBox="0 0 75.000 74.062">
  <path fill="black" fill-rule="evenodd" d="M 5.562 69.562 C 5.562 69.562 20.562 69.896 25.562 69.562 C 30.562 69.229 33.562 68.396 35.562 67.562 C 37.562 66.729 37.562 65.562 37.562 64.562 C 37.562 63.562 37.562 62.229 35.562 61.562 C 33.562 60.896 28.896 61.396 25.562 60.562 C 22.229 59.729 19.062 59.062 15.562 56.562 C 12.062 54.062 7.062 49.562 4.562 45.562 C 2.062 41.562 1.229 36.062 0.562 32.562 C -0.104 29.062 -0.271 29.229 0.562 24.562 C 1.396 19.896 5.562 4.562 5.562 4.562 C 5.562 4.562 5.062 22.229 5.562 27.562 C 6.062 32.896 8.562 36.562 8.562 36.562 C 8.562 36.562 12.562 35.562 12.562 35.562 C 12.562 35.562 12.896 27.729 13.562 24.562 C 14.229 21.396 14.396 19.729 16.562 16.562 C 18.729 13.396 22.562 8.229 26.562 5.562 C 30.562 2.896 36.062 1.396 40.562 0.562 C 45.062 -0.271 48.729 -0.104 53.562 0.562 C 58.396 1.229 69.562 4.562 69.562 4.562 C 69.562 4.562 48.562 5.229 43.562 5.562 C 38.562 5.896 40.562 5.729 39.562 6.562 C 38.562 7.396 37.729 9.562 37.562 10.562 C 37.396 11.562 36.396 12.062 38.562 12.562 C 40.729 13.062 46.729 12.562 50.562 13.562 C 54.396 14.562 58.062 15.896 61.562 18.562 C 65.062 21.229 69.396 26.062 71.562 29.562 C 73.729 33.062 74.062 35.729 74.562 39.562 C 75.062 43.396 75.229 47.896 74.562 52.562 C 73.896 57.229 70.562 67.562 70.562 67.562 C 70.562 67.562 70.062 49.396 69.562 44.562 C 69.062 39.729 68.562 39.729 67.562 38.562 C 66.562 37.396 63.562 37.562 63.562 37.562 C 63.562 37.562 61.729 50.562 60.562 54.562 C 59.396 58.562 58.729 59.062 56.562 61.562 C 54.396 64.062 50.896 67.562 47.562 69.562 C 44.229 71.562 40.729 72.896 36.562 73.562 C 32.396 74.229 27.729 74.229 22.562 73.562 C 17.396 72.896 5.562 69.562 5.562 69.562 Z M 27.562 50.562 C 27.562 50.562 28.562 23.562 28.562 23.562 C 28.562 23.562 19.562 22.562 19.562 22.562 C 19.562 22.562 18.562 26.562 18.562 26.562 C 18.562 26.562 22.562 27.562 22.562 27.562 C 22.562 27.562 22.562 50.562 22.562 50.562 C 22.562 50.562 27.562 50.562 27.562 50.562 Z M 54.562 22.562 C 54.562 22.562 45.562 22.896 43.562 23.562 C 41.562 24.229 44.229 24.562 42.562 26.562 C 40.896 28.562 35.062 32.729 33.562 35.562 C 32.062 38.396 33.562 43.562 33.562 43.562 C 33.562 43.562 48.562 43.562 48.562 43.562 C 48.562 43.562 48.562 50.562 48.562 50.562 C 48.562 50.562 54.562 50.562 54.562 50.562 C 54.562 50.562 54.062 45.896 54.562 44.562 C 55.062 43.229 57.062 43.396 57.562 42.562 C 58.062 41.729 57.562 39.562 57.562 39.562 C 57.562 39.562 54.562 38.562 54.562 38.562 C 54.562 38.562 54.562 22.562 54.562 22.562 Z M 47.562 26.562 C 47.562 26.562 48.562 38.562 48.562 38.562 C 48.562 38.562 39.562 38.562 39.562 38.562 C 39.562 38.562 39.229 36.562 40.562 34.562 C 41.896 32.562 47.562 26.562 47.562 26.562 Z"/>
</svg>
