<?xml version="1.0" encoding="UTF-8"?>
<svg xmlns="http://www.w3.org/2000/svg" width="1mm" height="1.293316mm" viewBox="0 0 57.963 74.964">
  <path fill="black" fill-rule="evenodd" d="M 56.963 0.963 C 56.963 0.963 59.13 2.296 56.963 4.963 C 54.796 7.63 43.963 16.963 43.963 16.963 C 43.963 16.963 45.296 18.963 46.963 17.963 C 48.63 16.963 53.963 10.963 53.963 10.963 C 53.963 10.963 55.63 11.296 55.963 11.963 C 56.296 12.63 57.13 13.63 55.963 14.963 C 54.796 16.296 50.13 18.63 48.963 19.963 C 47.796 21.296 48.963 22.963 48.963 22.963 C 48.963 22.963 52.963 22.963 52.963 22.963 C 52.963 22.963 53.296 25.296 52.963 25.963 C 52.63 26.63 51.296 26.296 50.963 26.963 C 50.63 27.63 50.63 29.296 50.963 29.963 C 51.296 30.63 52.963 30.963 52.963 30.963 C 52.963 30.963 51.296 36.463 51.963 38.963 C 52.63 41.463 56.963 45.963 56.963 45.963 C 56.963 45.963 53.796 46.296 52.963 45.963 C 52.13 45.63 52.463 44.296 51.963 43.963 C 51.463 43.63 50.463 43.63 49.963 43.963 C 49.463 44.296 48.963 45.963 48.963 45.963 C 48.963 45.963 51.963 49.296 52.963 49.963 C 53.963 50.63 54.13 49.13 54.963 49.963 C 55.796 50.796 57.963 54.963 57.963 54.963 C 57.963 54.963 54.963 56.963 54.963 56.963 C 54.963 56.963 48.963 50.963 48.963 50.963 C 48.963 50.963 49.963 60.963 49.963 60.963 C 49.963 60.963 45.963 61.963 45.963 61.963 C 45.963 61.963 44.63 54.63 43.963 52.963 C 43.296 51.296 41.963 51.963 41.963 51.963 C 41.963 51.963 40.963 68.963 40.963 68.963 C 40.963 68.963 36.963 67.963 36.963 67.963 C 36.963 67.963 36.63 58.963 35.963 56.963 C 35.296 54.963 32.963 55.963 32.963 55.963 C 32.963 55.963 33.63 68.796 32.963 71.963 C 32.296 75.13 28.963 74.963 28.963 74.963 C 28.963 74.963 26.296 73.963 25.963 70.963 C 25.63 67.963 26.963 56.963 26.963 56.963 C 26.963 56.963 22.963 56.963 22.963 56.963 C 22.963 56.963 23.296 63.963 22.963 65.963 C 22.63 67.963 21.63 68.463 20.963 68.963 C 20.296 69.463 18.963 68.963 18.963 68.963 C 18.963 68.963 17.296 66.796 16.963 63.963 C 16.63 61.13 16.963 51.963 16.963 51.963 C 16.963 51.963 15.463 51.296 14.963 52.963 C 14.463 54.63 13.963 61.963 13.963 61.963 C 13.963 61.963 8.963 60.963 8.963 60.963 C 8.963 60.963 9.963 51.963 9.963 51.963 C 9.963 51.963 6.463 56.296 4.963 56.963 C 3.463 57.63 0.963 55.963 0.963 55.963 C 0.963 55.963 0.463 53.63 1.963 51.963 C 3.463 50.296 9.963 45.963 9.963 45.963 C 9.963 45.963 9.463 44.296 8.963 43.963 C 8.463 43.63 7.463 43.63 6.963 43.963 C 6.463 44.296 6.796 45.463 5.963 45.963 C 5.13 46.463 1.963 46.963 1.963 46.963 C 1.963 46.963 2.13 43.13 2.963 41.963 C 3.796 40.796 6.963 39.963 6.963 39.963 C 6.963 39.963 4.796 33.796 4.963 31.963 C 5.13 30.13 7.963 28.963 7.963 28.963 C 7.963 28.963 4.963 23.963 4.963 23.963 C 4.963 23.963 9.963 21.963 9.963 21.963 C 9.963 21.963 11.296 21.13 9.963 19.963 C 8.63 18.796 3.296 16.296 1.963 14.963 C 0.63 13.63 1.963 11.963 1.963 11.963 C 1.963 11.963 4.296 10.796 5.963 11.963 C 7.63 13.13 11.963 18.963 11.963 18.963 C 11.963 18.963 13.63 18.463 13.963 17.963 C 14.296 17.463 16.13 18.13 13.963 15.963 C 11.796 13.796 3.13 7.296 0.963 4.963 C -1.204 2.63 0.963 1.963 0.963 1.963 C 0.963 1.963 4.296 0.63 5.963 1.963 C 7.63 3.296 9.463 7.963 10.963 9.963 C 12.463 11.963 13.963 13.296 14.963 13.963 C 15.963 14.63 16.963 13.963 16.963 13.963 C 16.963 13.963 18.963 12.463 17.963 10.963 C 16.963 9.463 11.963 6.463 10.963 4.963 C 9.963 3.463 11.963 1.963 11.963 1.963 C 11.963 1.963 14.463 1.463 15.963 2.963 C 17.463 4.463 19.63 9.63 20.963 10.963 C 22.296 12.296 23.963 10.963 23.963 10.963 C 23.963 10.963 22.963 5.963 22.963 5.963 C 22.963 5.963 25.963 5.463 26.963 5.963 C 27.963 6.463 28.963 8.963 28.963 8.963 C 28.963 8.963 30.63 8.463 30.963 7.963 C 31.296 7.463 30.963 5.963 30.963 5.963 C 30.963 5.963 34.963 5.963 34.963 5.963 C 34.963 5.963 33.963 10.963 33.963 10.963 C 33.963 10.963 35.963 11.796 36.963 10.963 C 37.963 10.13 38.463 7.63 39.963 5.963 C 41.463 4.296 45.963 0.963 45.963 0.963 C 45.963 0.963 47.963 3.296 46.963 4.963 C 45.963 6.63 41.13 9.63 39.963 10.963 C 38.796 12.296 39.963 12.963 39.963 12.963 C 39.963 12.963 42.963 13.963 42.963 13.963 C 42.963 13.963 51.63 3.13 53.963 0.963 C 56.296 -1.204 56.963 0.963 56.963 0.963 Z M 15.963 47.963 C 15.963 47.963 42.963 47.963 42.963 47.963 C 42.963 47.963 42.963 42.963 42.963 42.963 C 42.963 42.963 23.963 42.963 23.963 42.963 C 23.963 42.963 22.963 39.296 24.963 37.963 C 26.963 36.63 33.13 36.13 35.963 34.963 C 38.796 33.796 40.796 33.296 41.963 30.963 C 43.13 28.63 43.13 22.963 42.963 20.963 C 42.796 18.963 45.463 19.13 40.963 18.963 C 36.463 18.796 15.963 19.963 15.963 19.963 C 15.963 19.963 15.963 23.963 15.963 23.963 C 15.963 23.963 35.963 23.963 35.963 23.963 C 35.963 23.963 35.963 28.963 35.963 28.963 C 35.963 28.963 30.13 29.796 26.963 30.963 C 23.796 32.13 18.796 33.13 16.963 35.963 C 15.13 38.796 15.963 47.963 15.963 47.963 Z"/>
</svg>
