<?xml version="1.0" encoding="UTF-8"?>
<svg xmlns="http://www.w3.org/2000/svg" width="1mm" height="1.298246mm" viewBox="0 0 57 74">
  <rect x="0" y="1" width="5" height="1" fill="black"/>
  <rect x="0" y="54" width="5" height="1" fill="black"/>
  <rect x="0" y="2" width="6" height="2" fill="black"/>
  <rect x="0" y="53" width="6" height="1" fill="black"/>
  <rect x="1" y="45" width="1" height="1" fill="black"/>
  <rect x="1" y="0" width="2" height="1" fill="black"/>
  <rect x="1" y="11" width="4" height="1" fill="black"/>
  <rect x="1" y="44" width="4" height="1" fill="black"/>
  <rect x="1" y="12" width="5" height="1" fill="black"/>
  <rect x="1" y="43" width="5" height="1" fill="black"/>
  <rect x="1" y="4" width="6" height="1" fill="black"/>
  <rect x="1" y="13" width="6" height="1" fill="black"/>
  <rect x="1" y="52" width="6" height="1" fill="black"/>
  <rect x="1" y="51" width="7" height="1" fill="black"/>
  <rect x="2" y="55" width="2" height="1" fill="black"/>
  <rect x="2" y="5" width="6" height="1" fill="black"/>
  <rect x="2" y="14" width="6" height="1" fill="black"/>
  <rect x="2" y="41" width="13" height="2" fill="black"/>
  <rect x="2" y="50" width="46" height="1" fill="black"/>
  <rect x="3" y="6" width="6" height="1" fill="black"/>
  <rect x="3" y="15" width="6" height="1" fill="black"/>
  <rect x="3" y="40" width="12" height="1" fill="black"/>
  <rect x="3" y="49" width="51" height="1" fill="black"/>
  <rect x="4" y="7" width="6" height="1" fill="black"/>
  <rect x="4" y="16" width="6" height="1" fill="black"/>
  <rect x="4" y="32" width="17" height="1" fill="black"/>
  <rect x="4" y="31" width="20" height="1" fill="black"/>
  <rect x="4" y="23" width="31" height="2" fill="black"/>
  <rect x="5" y="8" width="5" height="1" fill="black"/>
  <rect x="5" y="22" width="10" height="1" fill="black"/>
  <rect x="5" y="39" width="10" height="1" fill="black"/>
  <rect x="5" y="34" width="12" height="1" fill="black"/>
  <rect x="5" y="33" width="14" height="1" fill="black"/>
  <rect x="5" y="30" width="21" height="1" fill="black"/>
  <rect x="5" y="25" width="30" height="1" fill="black"/>
  <rect x="5" y="48" width="47" height="1" fill="black"/>
  <rect x="6" y="17" width="5" height="1" fill="black"/>
  <rect x="6" y="38" width="9" height="1" fill="black"/>
  <rect x="6" y="35" width="10" height="3" fill="black"/>
  <rect x="6" y="29" width="23" height="1" fill="black"/>
  <rect x="6" y="26" width="29" height="2" fill="black"/>
  <rect x="6" y="47" width="45" height="1" fill="black"/>
  <rect x="7" y="9" width="4" height="1" fill="black"/>
  <rect x="7" y="46" width="8" height="1" fill="black"/>
  <rect x="7" y="18" width="9" height="1" fill="black"/>
  <rect x="7" y="28" width="25" height="1" fill="black"/>
  <rect x="8" y="10" width="4" height="1" fill="black"/>
  <rect x="8" y="57" width="5" height="3" fill="black"/>
  <rect x="8" y="53" width="6" height="4" fill="black"/>
  <rect x="8" y="21" width="7" height="1" fill="black"/>
  <rect x="8" y="43" width="7" height="1" fill="black"/>
  <rect x="8" y="45" width="7" height="1" fill="black"/>
  <rect x="9" y="11" width="4" height="1" fill="black"/>
  <rect x="9" y="60" width="4" height="1" fill="black"/>
  <rect x="9" y="52" width="5" height="1" fill="black"/>
  <rect x="9" y="19" width="6" height="2" fill="black"/>
  <rect x="9" y="44" width="6" height="1" fill="black"/>
  <rect x="9" y="51" width="6" height="1" fill="black"/>
  <rect x="10" y="12" width="4" height="1" fill="black"/>
  <rect x="10" y="2" width="5" height="1" fill="black"/>
  <rect x="10" y="3" width="6" height="1" fill="black"/>
  <rect x="11" y="1" width="2" height="1" fill="black"/>
  <rect x="11" y="4" width="5" height="1" fill="black"/>
  <rect x="11" y="13" width="34" height="1" fill="black"/>
  <rect x="12" y="5" width="5" height="1" fill="black"/>
  <rect x="12" y="14" width="32" height="1" fill="black"/>
  <rect x="12" y="17" width="38" height="1" fill="black"/>
  <rect x="13" y="6" width="5" height="1" fill="black"/>
  <rect x="13" y="15" width="30" height="1" fill="black"/>
  <rect x="13" y="16" width="31" height="1" fill="black"/>
  <rect x="14" y="7" width="4" height="1" fill="black"/>
  <rect x="15" y="8" width="4" height="1" fill="black"/>
  <rect x="16" y="9" width="4" height="1" fill="black"/>
  <rect x="16" y="62" width="6" height="1" fill="black"/>
  <rect x="16" y="12" width="25" height="1" fill="black"/>
  <rect x="16" y="51" width="25" height="1" fill="black"/>
  <rect x="17" y="65" width="4" height="2" fill="black"/>
  <rect x="17" y="56" width="5" height="6" fill="black"/>
  <rect x="17" y="63" width="5" height="2" fill="black"/>
  <rect x="17" y="55" width="15" height="1" fill="black"/>
  <rect x="17" y="10" width="22" height="2" fill="black"/>
  <rect x="17" y="52" width="23" height="3" fill="black"/>
  <rect x="18" y="67" width="2" height="1" fill="black"/>
  <rect x="22" y="5" width="4" height="1" fill="black"/>
  <rect x="22" y="6" width="5" height="1" fill="black"/>
  <rect x="22" y="7" width="6" height="1" fill="black"/>
  <rect x="23" y="8" width="10" height="2" fill="black"/>
  <rect x="23" y="38" width="29" height="1" fill="black"/>
  <rect x="23" y="39" width="30" height="2" fill="black"/>
  <rect x="23" y="41" width="31" height="1" fill="black"/>
  <rect x="24" y="37" width="27" height="1" fill="black"/>
  <rect x="25" y="62" width="6" height="1" fill="black"/>
  <rect x="25" y="63" width="7" height="7" fill="black"/>
  <rect x="26" y="56" width="5" height="6" fill="black"/>
  <rect x="26" y="71" width="5" height="1" fill="black"/>
  <rect x="26" y="70" width="6" height="1" fill="black"/>
  <rect x="26" y="36" width="25" height="1" fill="black"/>
  <rect x="27" y="72" width="4" height="1" fill="black"/>
  <rect x="28" y="73" width="1" height="1" fill="black"/>
  <rect x="29" y="7" width="5" height="1" fill="black"/>
  <rect x="29" y="35" width="22" height="1" fill="black"/>
  <rect x="30" y="5" width="4" height="2" fill="black"/>
  <rect x="32" y="34" width="19" height="1" fill="black"/>
  <rect x="34" y="55" width="6" height="1" fill="black"/>
  <rect x="35" y="56" width="5" height="4" fill="black"/>
  <rect x="35" y="60" width="6" height="5" fill="black"/>
  <rect x="35" y="33" width="16" height="1" fill="black"/>
  <rect x="36" y="9" width="4" height="1" fill="black"/>
  <rect x="36" y="66" width="4" height="1" fill="black"/>
  <rect x="36" y="65" width="5" height="1" fill="black"/>
  <rect x="37" y="67" width="3" height="1" fill="black"/>
  <rect x="37" y="8" width="4" height="1" fill="black"/>
  <rect x="37" y="32" width="15" height="1" fill="black"/>
  <rect x="38" y="7" width="4" height="1" fill="black"/>
  <rect x="39" y="6" width="4" height="1" fill="black"/>
  <rect x="39" y="5" width="5" height="1" fill="black"/>
  <rect x="39" y="31" width="13" height="1" fill="black"/>
  <rect x="40" y="4" width="5" height="1" fill="black"/>
  <rect x="40" y="18" width="9" height="1" fill="black"/>
  <rect x="40" y="30" width="12" height="1" fill="black"/>
  <rect x="41" y="3" width="5" height="1" fill="black"/>
  <rect x="41" y="19" width="7" height="1" fill="black"/>
  <rect x="41" y="28" width="9" height="1" fill="black"/>
  <rect x="41" y="29" width="10" height="1" fill="black"/>
  <rect x="42" y="2" width="4" height="1" fill="black"/>
  <rect x="42" y="12" width="4" height="1" fill="black"/>
  <rect x="42" y="20" width="6" height="2" fill="black"/>
  <rect x="42" y="44" width="6" height="1" fill="black"/>
  <rect x="42" y="51" width="6" height="1" fill="black"/>
  <rect x="42" y="43" width="7" height="1" fill="black"/>
  <rect x="42" y="45" width="7" height="1" fill="black"/>
  <rect x="42" y="26" width="8" height="2" fill="black"/>
  <rect x="42" y="46" width="8" height="1" fill="black"/>
  <rect x="42" y="25" width="9" height="1" fill="black"/>
  <rect x="42" y="22" width="10" height="3" fill="black"/>
  <rect x="42" y="42" width="13" height="1" fill="black"/>
  <rect x="43" y="1" width="3" height="1" fill="black"/>
  <rect x="43" y="11" width="4" height="1" fill="black"/>
  <rect x="43" y="52" width="5" height="1" fill="black"/>
  <rect x="43" y="53" width="6" height="4" fill="black"/>
  <rect x="44" y="0" width="1" height="1" fill="black"/>
  <rect x="44" y="10" width="4" height="1" fill="black"/>
  <rect x="44" y="57" width="5" height="3" fill="black"/>
  <rect x="45" y="60" width="3" height="1" fill="black"/>
  <rect x="45" y="9" width="4" height="1" fill="black"/>
  <rect x="46" y="8" width="5" height="1" fill="black"/>
  <rect x="46" y="16" width="6" height="1" fill="black"/>
  <rect x="47" y="7" width="5" height="1" fill="black"/>
  <rect x="47" y="15" width="6" height="1" fill="black"/>
  <rect x="48" y="6" width="5" height="1" fill="black"/>
  <rect x="48" y="5" width="6" height="1" fill="black"/>
  <rect x="49" y="14" width="5" height="1" fill="black"/>
  <rect x="49" y="4" width="6" height="1" fill="black"/>
  <rect x="49" y="50" width="6" height="1" fill="black"/>
  <rect x="50" y="13" width="5" height="1" fill="black"/>
  <rect x="50" y="3" width="6" height="1" fill="black"/>
  <rect x="50" y="51" width="6" height="1" fill="black"/>
  <rect x="50" y="52" width="7" height="1" fill="black"/>
  <rect x="51" y="12" width="4" height="1" fill="black"/>
  <rect x="51" y="43" width="4" height="1" fill="black"/>
  <rect x="51" y="2" width="5" height="1" fill="black"/>
  <rect x="51" y="53" width="6" height="1" fill="black"/>
  <rect x="52" y="11" width="3" height="1" fill="black"/>
  <rect x="52" y="1" width="4" height="1" fill="black"/>
  <rect x="52" y="44" width="4" height="1" fill="black"/>
  <rect x="52" y="54" width="4" height="1" fill="black"/>
  <rect x="53" y="10" width="1" height="1" fill="black"/>
  <rect x="53" y="0" width="3" height="1" fill="black"/>
  <rect x="54" y="55" width="1" height="1" fill="black"/>
</svg>
