<?xml version="1.0" encoding="UTF-8"?>
<svg xmlns="http://www.w3.org/2000/svg" width="1mm" height="1.005193mm" viewBox="0 0 69.643 70.005">
  <path fill="black" fill-rule="evenodd" d="M 35.593 0.0 C 37.093 0.0 38.593 1.5 39.593 3.0 C 40.593 4.5 40.593 7.333 41.593 9.0 C 42.593 10.667 44.093 12.333 45.593 13.0 C 47.093 13.667 49.259 13.5 50.593 13.0 C 51.926 12.5 52.426 10.5 53.593 10.0 C 54.759 9.5 57.593 10.0 57.593 10.0 C 57.593 10.0 58.926 18.0 59.593 20.0 C 60.259 22.0 59.926 21.667 61.593 22.0 C 63.259 22.333 69.593 22.0 69.593 22.0 C 69.593 22.0 69.426 23.833 68.593 25.0 C 67.759 26.167 65.593 28.333 64.593 29.0 C 63.593 29.667 62.593 29.0 62.593 29.0 C 62.593 29.0 60.593 39.167 59.593 42.0 C 58.593 44.833 57.093 45.0 56.593 46.0 C 56.093 47.0 56.593 48.0 56.593 48.0 C 56.593 48.0 58.093 49.0 59.593 46.0 C 61.093 43.0 64.093 32.833 65.593 30.0 C 67.093 27.167 68.593 29.0 68.593 29.0 C 68.593 29.0 69.926 33.0 69.593 36.0 C 69.259 39.0 67.426 45.0 66.593 47.0 C 65.759 49.0 65.093 47.167 64.593 48.0 C 64.093 48.833 64.759 50.5 63.593 52.0 C 62.426 53.5 57.593 57.0 57.593 57.0 C 57.593 57.0 61.593 58.0 61.593 58.0 C 61.593 58.0 62.593 59.667 61.593 61.0 C 60.593 62.333 59.259 64.5 55.593 66.0 C 51.926 67.5 46.093 69.833 39.593 70.0 C 33.093 70.167 21.759 68.5 16.593 67.0 C 11.426 65.5 9.926 62.5 8.593 61.0 C 7.259 59.5 8.593 58.0 8.593 58.0 C 8.593 58.0 10.259 57.167 12.593 58.0 C 14.926 58.833 19.759 62.167 22.593 63.0 C 25.426 63.833 27.926 63.333 29.593 63.0 C 31.259 62.667 29.426 61.0 32.593 61.0 C 35.759 61.0 44.759 63.333 48.593 63.0 C 52.426 62.667 55.593 59.0 55.593 59.0 C 55.593 59.0 48.093 61.833 45.593 62.0 C 43.093 62.167 43.259 60.333 40.593 60.0 C 37.926 59.667 31.926 59.667 29.593 60.0 C 27.259 60.333 28.593 62.0 26.593 62.0 C 24.593 62.0 20.759 61.333 17.593 60.0 C 14.426 58.667 10.093 56.5 7.593 54.0 C 5.093 51.5 3.759 47.833 2.593 45.0 C 1.426 42.167 0.759 39.667 0.593 37.0 C 0.426 34.333 1.593 29.0 1.593 29.0 C 1.593 29.0 3.593 29.0 3.593 29.0 C 3.593 29.0 7.926 41.833 9.593 45.0 C 11.259 48.167 13.593 48.0 13.593 48.0 C 13.593 48.0 9.426 39.667 8.593 37.0 C 7.759 34.333 9.926 34.0 8.593 32.0 C 7.259 30.0 1.926 26.667 0.593 25.0 C -0.741 23.333 0.593 22.0 0.593 22.0 C 0.593 22.0 6.759 22.5 8.593 22.0 C 10.426 21.5 10.926 21.0 11.593 19.0 C 12.259 17.0 12.593 10.0 12.593 10.0 C 12.593 10.0 14.593 9.5 15.593 10.0 C 16.593 10.5 16.926 12.667 18.593 13.0 C 20.259 13.333 23.926 12.667 25.593 12.0 C 27.259 11.333 27.759 10.5 28.593 9.0 C 29.426 7.5 29.426 4.5 30.593 3.0 C 31.759 1.5 34.093 0.0 35.593 0.0 Z M 23.593 52.0 C 23.593 52.0 40.759 52.333 44.593 52.0 C 48.426 51.667 46.259 54.5 46.593 50.0 C 46.926 45.5 46.926 29.5 46.593 25.0 C 46.259 20.5 48.426 23.167 44.593 23.0 C 40.759 22.833 23.593 24.0 23.593 24.0 C 23.593 24.0 24.593 28.0 24.593 28.0 C 24.593 28.0 40.593 28.0 40.593 28.0 C 40.593 28.0 40.593 35.0 40.593 35.0 C 40.593 35.0 28.593 35.0 28.593 35.0 C 28.593 35.0 28.593 40.0 28.593 40.0 C 28.593 40.0 40.593 40.0 40.593 40.0 C 40.593 40.0 40.593 47.0 40.593 47.0 C 40.593 47.0 23.593 47.0 23.593 47.0 C 23.593 47.0 23.593 52.0 23.593 52.0 Z"/>
</svg>
