<?xml version="1.0" encoding="UTF-8"?>
<svg xmlns="http://www.w3.org/2000/svg" width="1mm" height="1.014493mm" viewBox="0 0 69 70">
  <rect x="0" y="33" width="5" height="4" fill="black"/>
  <rect x="0" y="24" width="23" height="1" fill="black"/>
  <rect x="0" y="23" width="24" height="1" fill="black"/>
  <rect x="0" y="22" width="69" height="1" fill="black"/>
  <rect x="1" y="29" width="2" height="1" fill="black"/>
  <rect x="1" y="30" width="3" height="3" fill="black"/>
  <rect x="1" y="37" width="5" height="2" fill="black"/>
  <rect x="1" y="39" width="6" height="2" fill="black"/>
  <rect x="1" y="41" width="7" height="1" fill="black"/>
  <rect x="1" y="25" width="22" height="1" fill="black"/>
  <rect x="2" y="21" width="3" height="1" fill="black"/>
  <rect x="2" y="42" width="6" height="1" fill="black"/>
  <rect x="2" y="43" width="7" height="2" fill="black"/>
  <rect x="2" y="26" width="22" height="1" fill="black"/>
  <rect x="3" y="45" width="7" height="1" fill="black"/>
  <rect x="3" y="46" width="8" height="1" fill="black"/>
  <rect x="3" y="27" width="21" height="1" fill="black"/>
  <rect x="4" y="47" width="8" height="1" fill="black"/>
  <rect x="4" y="48" width="9" height="1" fill="black"/>
  <rect x="5" y="49" width="18" height="2" fill="black"/>
  <rect x="5" y="28" width="35" height="1" fill="black"/>
  <rect x="6" y="51" width="17" height="1" fill="black"/>
  <rect x="6" y="29" width="34" height="1" fill="black"/>
  <rect x="7" y="30" width="33" height="2" fill="black"/>
  <rect x="7" y="53" width="54" height="1" fill="black"/>
  <rect x="7" y="52" width="55" height="1" fill="black"/>
  <rect x="8" y="58" width="4" height="1" fill="black"/>
  <rect x="8" y="59" width="6" height="1" fill="black"/>
  <rect x="8" y="60" width="8" height="1" fill="black"/>
  <rect x="8" y="35" width="20" height="2" fill="black"/>
  <rect x="8" y="32" width="32" height="3" fill="black"/>
  <rect x="8" y="54" width="52" height="1" fill="black"/>
  <rect x="8" y="21" width="53" height="1" fill="black"/>
  <rect x="9" y="61" width="10" height="1" fill="black"/>
  <rect x="9" y="37" width="19" height="3" fill="black"/>
  <rect x="9" y="55" width="50" height="1" fill="black"/>
  <rect x="9" y="20" width="51" height="1" fill="black"/>
  <rect x="10" y="62" width="12" height="1" fill="black"/>
  <rect x="10" y="40" width="30" height="2" fill="black"/>
  <rect x="10" y="19" width="49" height="1" fill="black"/>
  <rect x="11" y="11" width="6" height="1" fill="black"/>
  <rect x="11" y="12" width="7" height="1" fill="black"/>
  <rect x="11" y="42" width="29" height="2" fill="black"/>
  <rect x="11" y="13" width="46" height="2" fill="black"/>
  <rect x="11" y="15" width="47" height="3" fill="black"/>
  <rect x="11" y="56" width="47" height="1" fill="black"/>
  <rect x="11" y="63" width="47" height="1" fill="black"/>
  <rect x="11" y="18" width="48" height="1" fill="black"/>
  <rect x="12" y="10" width="3" height="1" fill="black"/>
  <rect x="12" y="44" width="28" height="2" fill="black"/>
  <rect x="12" y="64" width="45" height="1" fill="black"/>
  <rect x="13" y="47" width="10" height="1" fill="black"/>
  <rect x="13" y="46" width="27" height="1" fill="black"/>
  <rect x="13" y="57" width="44" height="1" fill="black"/>
  <rect x="14" y="48" width="9" height="1" fill="black"/>
  <rect x="14" y="65" width="41" height="1" fill="black"/>
  <rect x="15" y="58" width="40" height="1" fill="black"/>
  <rect x="16" y="66" width="36" height="1" fill="black"/>
  <rect x="17" y="59" width="35" height="1" fill="black"/>
  <rect x="20" y="60" width="9" height="1" fill="black"/>
  <rect x="20" y="67" width="28" height="1" fill="black"/>
  <rect x="23" y="61" width="3" height="1" fill="black"/>
  <rect x="23" y="12" width="22" height="1" fill="black"/>
  <rect x="25" y="11" width="19" height="1" fill="black"/>
  <rect x="25" y="68" width="19" height="1" fill="black"/>
  <rect x="26" y="10" width="17" height="1" fill="black"/>
  <rect x="27" y="9" width="15" height="1" fill="black"/>
  <rect x="28" y="7" width="13" height="2" fill="black"/>
  <rect x="29" y="5" width="11" height="2" fill="black"/>
  <rect x="29" y="62" width="11" height="1" fill="black"/>
  <rect x="30" y="3" width="9" height="2" fill="black"/>
  <rect x="31" y="2" width="7" height="1" fill="black"/>
  <rect x="31" y="69" width="8" height="1" fill="black"/>
  <rect x="32" y="1" width="5" height="1" fill="black"/>
  <rect x="32" y="61" width="5" height="1" fill="black"/>
  <rect x="34" y="0" width="1" height="1" fill="black"/>
  <rect x="40" y="60" width="10" height="1" fill="black"/>
  <rect x="43" y="61" width="2" height="1" fill="black"/>
  <rect x="44" y="51" width="19" height="1" fill="black"/>
  <rect x="44" y="23" width="24" height="1" fill="black"/>
  <rect x="45" y="50" width="18" height="1" fill="black"/>
  <rect x="45" y="24" width="23" height="1" fill="black"/>
  <rect x="46" y="46" width="10" height="2" fill="black"/>
  <rect x="46" y="44" width="11" height="2" fill="black"/>
  <rect x="46" y="42" width="12" height="2" fill="black"/>
  <rect x="46" y="39" width="13" height="3" fill="black"/>
  <rect x="46" y="36" width="14" height="3" fill="black"/>
  <rect x="46" y="32" width="15" height="4" fill="black"/>
  <rect x="46" y="29" width="16" height="3" fill="black"/>
  <rect x="46" y="28" width="18" height="1" fill="black"/>
  <rect x="46" y="48" width="18" height="2" fill="black"/>
  <rect x="46" y="27" width="19" height="1" fill="black"/>
  <rect x="46" y="26" width="20" height="1" fill="black"/>
  <rect x="46" y="25" width="21" height="1" fill="black"/>
  <rect x="48" y="62" width="11" height="1" fill="black"/>
  <rect x="50" y="12" width="7" height="1" fill="black"/>
  <rect x="51" y="61" width="9" height="1" fill="black"/>
  <rect x="52" y="11" width="5" height="1" fill="black"/>
  <rect x="53" y="10" width="4" height="1" fill="black"/>
  <rect x="53" y="60" width="8" height="1" fill="black"/>
  <rect x="55" y="59" width="6" height="1" fill="black"/>
  <rect x="57" y="58" width="4" height="1" fill="black"/>
  <rect x="57" y="47" width="8" height="1" fill="black"/>
  <rect x="58" y="46" width="8" height="1" fill="black"/>
  <rect x="59" y="44" width="7" height="2" fill="black"/>
  <rect x="60" y="43" width="7" height="1" fill="black"/>
  <rect x="61" y="41" width="6" height="2" fill="black"/>
  <rect x="61" y="40" width="7" height="1" fill="black"/>
  <rect x="62" y="38" width="6" height="2" fill="black"/>
  <rect x="63" y="36" width="5" height="2" fill="black"/>
  <rect x="63" y="35" width="6" height="1" fill="black"/>
  <rect x="64" y="21" width="4" height="1" fill="black"/>
  <rect x="64" y="32" width="4" height="3" fill="black"/>
  <rect x="65" y="30" width="3" height="2" fill="black"/>
  <rect x="66" y="29" width="2" height="1" fill="black"/>
</svg>
