<?xml version="1.0" encoding="UTF-8"?>
<svg xmlns="http://www.w3.org/2000/svg" width="1mm" height="1.041667mm" viewBox="0 0 72 75">
  <rect x="0" y="52" width="1" height="1" fill="black"/>
  <rect x="1" y="51" width="3" height="1" fill="black"/>
  <rect x="1" y="50" width="6" height="1" fill="black"/>
  <rect x="1" y="49" width="7" height="1" fill="black"/>
  <rect x="2" y="47" width="8" height="2" fill="black"/>
  <rect x="2" y="46" width="9" height="1" fill="black"/>
  <rect x="3" y="43" width="8" height="3" fill="black"/>
  <rect x="4" y="40" width="7" height="1" fill="black"/>
  <rect x="4" y="41" width="8" height="2" fill="black"/>
  <rect x="5" y="38" width="4" height="1" fill="black"/>
  <rect x="5" y="39" width="5" height="1" fill="black"/>
  <rect x="6" y="35" width="1" height="1" fill="black"/>
  <rect x="6" y="36" width="2" height="2" fill="black"/>
  <rect x="7" y="31" width="8" height="2" fill="black"/>
  <rect x="7" y="29" width="9" height="2" fill="black"/>
  <rect x="8" y="26" width="7" height="1" fill="black"/>
  <rect x="8" y="33" width="7" height="2" fill="black"/>
  <rect x="8" y="27" width="8" height="2" fill="black"/>
  <rect x="9" y="65" width="2" height="1" fill="black"/>
  <rect x="9" y="64" width="4" height="1" fill="black"/>
  <rect x="9" y="36" width="5" height="1" fill="black"/>
  <rect x="9" y="24" width="6" height="2" fill="black"/>
  <rect x="9" y="63" width="6" height="1" fill="black"/>
  <rect x="9" y="62" width="8" height="1" fill="black"/>
  <rect x="9" y="35" width="15" height="1" fill="black"/>
  <rect x="10" y="23" width="4" height="1" fill="black"/>
  <rect x="10" y="37" width="4" height="1" fill="black"/>
  <rect x="10" y="57" width="9" height="5" fill="black"/>
  <rect x="11" y="0" width="2" height="1" fill="black"/>
  <rect x="11" y="22" width="3" height="1" fill="black"/>
  <rect x="11" y="38" width="3" height="1" fill="black"/>
  <rect x="11" y="53" width="8" height="1" fill="black"/>
  <rect x="11" y="54" width="9" height="3" fill="black"/>
  <rect x="12" y="39" width="2" height="1" fill="black"/>
  <rect x="12" y="1" width="3" height="1" fill="black"/>
  <rect x="12" y="48" width="5" height="2" fill="black"/>
  <rect x="12" y="50" width="6" height="2" fill="black"/>
  <rect x="12" y="52" width="7" height="1" fill="black"/>
  <rect x="13" y="44" width="2" height="2" fill="black"/>
  <rect x="13" y="2" width="3" height="1" fill="black"/>
  <rect x="13" y="46" width="3" height="2" fill="black"/>
  <rect x="13" y="3" width="5" height="1" fill="black"/>
  <rect x="13" y="5" width="7" height="1" fill="black"/>
  <rect x="13" y="6" width="9" height="1" fill="black"/>
  <rect x="14" y="9" width="3" height="1" fill="black"/>
  <rect x="14" y="4" width="5" height="1" fill="black"/>
  <rect x="14" y="7" width="9" height="1" fill="black"/>
  <rect x="14" y="8" width="10" height="1" fill="black"/>
  <rect x="14" y="10" width="12" height="1" fill="black"/>
  <rect x="15" y="38" width="6" height="5" fill="black"/>
  <rect x="15" y="37" width="7" height="1" fill="black"/>
  <rect x="15" y="36" width="8" height="1" fill="black"/>
  <rect x="15" y="11" width="12" height="1" fill="black"/>
  <rect x="15" y="12" width="13" height="2" fill="black"/>
  <rect x="16" y="43" width="5" height="2" fill="black"/>
  <rect x="16" y="45" width="6" height="1" fill="black"/>
  <rect x="16" y="34" width="9" height="1" fill="black"/>
  <rect x="16" y="33" width="10" height="1" fill="black"/>
  <rect x="16" y="32" width="11" height="1" fill="black"/>
  <rect x="16" y="14" width="13" height="1" fill="black"/>
  <rect x="16" y="15" width="14" height="1" fill="black"/>
  <rect x="16" y="16" width="15" height="1" fill="black"/>
  <rect x="17" y="20" width="7" height="1" fill="black"/>
  <rect x="17" y="19" width="9" height="1" fill="black"/>
  <rect x="17" y="18" width="11" height="1" fill="black"/>
  <rect x="17" y="31" width="11" height="1" fill="black"/>
  <rect x="17" y="30" width="12" height="1" fill="black"/>
  <rect x="17" y="17" width="14" height="1" fill="black"/>
  <rect x="17" y="46" width="22" height="2" fill="black"/>
  <rect x="18" y="23" width="3" height="1" fill="black"/>
  <rect x="18" y="22" width="4" height="1" fill="black"/>
  <rect x="18" y="21" width="5" height="1" fill="black"/>
  <rect x="18" y="9" width="7" height="1" fill="black"/>
  <rect x="18" y="29" width="12" height="1" fill="black"/>
  <rect x="18" y="28" width="13" height="1" fill="black"/>
  <rect x="18" y="48" width="21" height="2" fill="black"/>
  <rect x="19" y="27" width="13" height="1" fill="black"/>
  <rect x="19" y="26" width="14" height="1" fill="black"/>
  <rect x="19" y="24" width="16" height="1" fill="black"/>
  <rect x="19" y="50" width="20" height="1" fill="black"/>
  <rect x="20" y="74" width="2" height="1" fill="black"/>
  <rect x="20" y="73" width="4" height="1" fill="black"/>
  <rect x="20" y="72" width="6" height="1" fill="black"/>
  <rect x="20" y="25" width="14" height="1" fill="black"/>
  <rect x="20" y="51" width="19" height="1" fill="black"/>
  <rect x="21" y="71" width="7" height="1" fill="black"/>
  <rect x="21" y="70" width="9" height="1" fill="black"/>
  <rect x="21" y="69" width="11" height="1" fill="black"/>
  <rect x="21" y="68" width="12" height="1" fill="black"/>
  <rect x="21" y="64" width="13" height="4" fill="black"/>
  <rect x="21" y="52" width="19" height="1" fill="black"/>
  <rect x="22" y="58" width="5" height="1" fill="black"/>
  <rect x="22" y="59" width="7" height="1" fill="black"/>
  <rect x="22" y="60" width="10" height="1" fill="black"/>
  <rect x="22" y="61" width="12" height="3" fill="black"/>
  <rect x="22" y="23" width="28" height="1" fill="black"/>
  <rect x="22" y="53" width="29" height="1" fill="black"/>
  <rect x="23" y="57" width="1" height="1" fill="black"/>
  <rect x="23" y="54" width="27" height="1" fill="black"/>
  <rect x="24" y="22" width="25" height="1" fill="black"/>
  <rect x="24" y="55" width="25" height="1" fill="black"/>
  <rect x="25" y="21" width="22" height="1" fill="black"/>
  <rect x="25" y="56" width="22" height="1" fill="black"/>
  <rect x="27" y="57" width="18" height="1" fill="black"/>
  <rect x="27" y="20" width="19" height="1" fill="black"/>
  <rect x="29" y="37" width="10" height="3" fill="black"/>
  <rect x="29" y="19" width="14" height="1" fill="black"/>
  <rect x="30" y="36" width="9" height="1" fill="black"/>
  <rect x="30" y="58" width="12" height="1" fill="black"/>
  <rect x="31" y="35" width="8" height="1" fill="black"/>
  <rect x="32" y="34" width="7" height="1" fill="black"/>
  <rect x="33" y="33" width="6" height="1" fill="black"/>
  <rect x="34" y="18" width="5" height="1" fill="black"/>
  <rect x="34" y="32" width="5" height="1" fill="black"/>
  <rect x="35" y="31" width="4" height="1" fill="black"/>
  <rect x="36" y="30" width="3" height="1" fill="black"/>
  <rect x="37" y="29" width="2" height="1" fill="black"/>
  <rect x="38" y="61" width="12" height="3" fill="black"/>
  <rect x="38" y="64" width="13" height="3" fill="black"/>
  <rect x="39" y="67" width="12" height="2" fill="black"/>
  <rect x="40" y="60" width="10" height="1" fill="black"/>
  <rect x="41" y="69" width="10" height="1" fill="black"/>
  <rect x="42" y="17" width="13" height="1" fill="black"/>
  <rect x="42" y="15" width="14" height="2" fill="black"/>
  <rect x="43" y="59" width="7" height="1" fill="black"/>
  <rect x="43" y="70" width="8" height="1" fill="black"/>
  <rect x="43" y="18" width="12" height="1" fill="black"/>
  <rect x="43" y="14" width="13" height="1" fill="black"/>
  <rect x="44" y="13" width="12" height="1" fill="black"/>
  <rect x="45" y="58" width="4" height="1" fill="black"/>
  <rect x="45" y="71" width="7" height="1" fill="black"/>
  <rect x="45" y="11" width="12" height="2" fill="black"/>
  <rect x="46" y="52" width="6" height="1" fill="black"/>
  <rect x="46" y="72" width="6" height="1" fill="black"/>
  <rect x="46" y="19" width="9" height="1" fill="black"/>
  <rect x="46" y="10" width="11" height="1" fill="black"/>
  <rect x="47" y="24" width="4" height="1" fill="black"/>
  <rect x="47" y="25" width="5" height="1" fill="black"/>
  <rect x="47" y="26" width="6" height="2" fill="black"/>
  <rect x="47" y="50" width="6" height="2" fill="black"/>
  <rect x="47" y="28" width="7" height="1" fill="black"/>
  <rect x="47" y="49" width="7" height="1" fill="black"/>
  <rect x="47" y="29" width="8" height="3" fill="black"/>
  <rect x="47" y="46" width="8" height="2" fill="black"/>
  <rect x="47" y="32" width="9" height="3" fill="black"/>
  <rect x="47" y="35" width="10" height="5" fill="black"/>
  <rect x="47" y="9" width="11" height="1" fill="black"/>
  <rect x="47" y="48" width="12" height="1" fill="black"/>
  <rect x="48" y="57" width="1" height="1" fill="black"/>
  <rect x="48" y="73" width="4" height="1" fill="black"/>
  <rect x="48" y="20" width="7" height="1" fill="black"/>
  <rect x="48" y="40" width="9" height="1" fill="black"/>
  <rect x="48" y="8" width="10" height="1" fill="black"/>
  <rect x="49" y="21" width="5" height="1" fill="black"/>
  <rect x="49" y="45" width="7" height="1" fill="black"/>
  <rect x="49" y="7" width="10" height="1" fill="black"/>
  <rect x="50" y="22" width="4" height="1" fill="black"/>
  <rect x="50" y="43" width="6" height="2" fill="black"/>
  <rect x="50" y="41" width="7" height="2" fill="black"/>
  <rect x="51" y="74" width="1" height="1" fill="black"/>
  <rect x="51" y="6" width="8" height="1" fill="black"/>
  <rect x="52" y="23" width="2" height="1" fill="black"/>
  <rect x="52" y="5" width="8" height="1" fill="black"/>
  <rect x="52" y="54" width="9" height="3" fill="black"/>
  <rect x="52" y="57" width="10" height="1" fill="black"/>
  <rect x="53" y="24" width="1" height="1" fill="black"/>
  <rect x="53" y="4" width="7" height="1" fill="black"/>
  <rect x="53" y="52" width="7" height="1" fill="black"/>
  <rect x="53" y="53" width="8" height="1" fill="black"/>
  <rect x="53" y="58" width="9" height="3" fill="black"/>
  <rect x="54" y="50" width="6" height="2" fill="black"/>
  <rect x="54" y="61" width="9" height="1" fill="black"/>
  <rect x="55" y="3" width="4" height="1" fill="black"/>
  <rect x="55" y="49" width="5" height="1" fill="black"/>
  <rect x="55" y="62" width="8" height="1" fill="black"/>
  <rect x="56" y="47" width="3" height="1" fill="black"/>
  <rect x="56" y="27" width="8" height="2" fill="black"/>
  <rect x="56" y="29" width="9" height="2" fill="black"/>
  <rect x="57" y="2" width="2" height="1" fill="black"/>
  <rect x="57" y="45" width="2" height="2" fill="black"/>
  <rect x="57" y="25" width="6" height="1" fill="black"/>
  <rect x="57" y="63" width="6" height="1" fill="black"/>
  <rect x="57" y="26" width="7" height="1" fill="black"/>
  <rect x="57" y="32" width="7" height="2" fill="black"/>
  <rect x="57" y="31" width="8" height="1" fill="black"/>
  <rect x="58" y="1" width="2" height="1" fill="black"/>
  <rect x="58" y="39" width="2" height="1" fill="black"/>
  <rect x="58" y="22" width="3" height="1" fill="black"/>
  <rect x="58" y="38" width="3" height="1" fill="black"/>
  <rect x="58" y="23" width="4" height="1" fill="black"/>
  <rect x="58" y="37" width="4" height="1" fill="black"/>
  <rect x="58" y="24" width="5" height="1" fill="black"/>
  <rect x="58" y="35" width="5" height="2" fill="black"/>
  <rect x="58" y="34" width="6" height="1" fill="black"/>
  <rect x="59" y="64" width="4" height="1" fill="black"/>
  <rect x="60" y="0" width="1" height="1" fill="black"/>
  <rect x="61" y="65" width="3" height="1" fill="black"/>
  <rect x="61" y="40" width="7" height="3" fill="black"/>
  <rect x="61" y="43" width="8" height="3" fill="black"/>
  <rect x="61" y="46" width="9" height="1" fill="black"/>
  <rect x="62" y="39" width="5" height="1" fill="black"/>
  <rect x="62" y="47" width="8" height="2" fill="black"/>
  <rect x="63" y="38" width="4" height="1" fill="black"/>
  <rect x="63" y="49" width="8" height="1" fill="black"/>
  <rect x="64" y="36" width="2" height="2" fill="black"/>
  <rect x="65" y="35" width="1" height="1" fill="black"/>
  <rect x="66" y="50" width="5" height="1" fill="black"/>
  <rect x="68" y="51" width="3" height="1" fill="black"/>
  <rect x="70" y="52" width="2" height="1" fill="black"/>
</svg>
