<?xml version="1.0" encoding="UTF-8"?>
<svg xmlns="http://www.w3.org/2000/svg" width="1mm" height="1.041667mm" viewBox="0 0 72.000 75.000">
  <path fill="black" fill-rule="evenodd" d="M 61.0 0.0 C 61.0 0.0 59.167 1.0 59.0 2.0 C 58.833 3.0 60.5 4.167 60.0 6.0 C 59.5 7.833 57.0 9.833 56.0 13.0 C 55.0 16.167 54.0 25.0 54.0 25.0 C 54.0 25.0 52.0 23.0 52.0 23.0 C 52.0 23.0 50.0 24.0 50.0 24.0 C 50.0 24.0 53.833 27.167 55.0 29.0 C 56.167 30.833 56.667 32.667 57.0 35.0 C 57.333 37.333 57.333 40.833 57.0 43.0 C 56.667 45.167 55.0 48.0 55.0 48.0 C 55.0 48.0 56.667 47.5 57.0 47.0 C 57.333 46.5 57.0 45.0 57.0 45.0 C 57.0 45.0 59.0 45.0 59.0 45.0 C 59.0 45.0 64.0 66.0 64.0 66.0 C 64.0 66.0 62.833 66.833 61.0 66.0 C 59.167 65.167 54.5 63.333 53.0 61.0 C 51.5 58.667 52.0 52.0 52.0 52.0 C 52.0 52.0 50.167 55.167 49.0 56.0 C 47.833 56.833 45.0 57.0 45.0 57.0 C 45.0 57.0 48.167 56.667 49.0 57.0 C 49.833 57.333 49.5 56.0 50.0 59.0 C 50.5 62.0 52.0 75.0 52.0 75.0 C 52.0 75.0 48.333 74.333 46.0 73.0 C 43.667 71.667 39.333 69.0 38.0 67.0 C 36.667 65.0 36.833 62.5 38.0 61.0 C 39.167 59.5 45.0 58.0 45.0 58.0 C 45.0 58.0 27.0 58.0 27.0 58.0 C 27.0 58.0 32.833 59.333 34.0 61.0 C 35.167 62.667 36.333 65.667 34.0 68.0 C 31.667 70.333 20.0 75.0 20.0 75.0 C 20.0 75.0 22.0 58.0 22.0 58.0 C 22.0 58.0 27.0 57.0 27.0 57.0 C 27.0 57.0 26.333 58.167 25.0 57.0 C 23.667 55.833 19.0 50.0 19.0 50.0 C 19.0 50.0 19.0 62.0 19.0 62.0 C 19.0 62.0 9.0 66.0 9.0 66.0 C 9.0 66.0 13.0 44.0 13.0 44.0 C 13.0 44.0 14.5 43.667 15.0 44.0 C 15.5 44.333 16.0 46.0 16.0 46.0 C 16.0 46.0 16.167 44.667 16.0 43.0 C 15.833 41.333 15.0 36.0 15.0 36.0 C 15.0 36.0 14.0 40.0 14.0 40.0 C 14.0 40.0 13.167 41.167 12.0 40.0 C 10.833 38.833 7.833 34.833 7.0 33.0 C 6.167 31.167 6.667 30.5 7.0 29.0 C 7.333 27.5 8.333 25.167 9.0 24.0 C 9.667 22.833 10.167 22.333 11.0 22.0 C 11.833 21.667 14.0 22.0 14.0 22.0 C 14.0 22.0 15.667 24.833 16.0 27.0 C 16.333 29.167 16.0 35.0 16.0 35.0 C 16.0 35.0 15.333 33.5 16.0 32.0 C 16.667 30.5 20.0 26.0 20.0 26.0 C 20.0 26.0 18.5 25.5 18.0 24.0 C 17.5 22.5 17.667 19.167 17.0 17.0 C 16.333 14.833 14.5 13.167 14.0 11.0 C 13.5 8.833 14.5 5.833 14.0 4.0 C 13.5 2.167 11.0 0.0 11.0 0.0 C 11.0 0.0 18.667 3.333 22.0 6.0 C 25.333 8.667 29.5 14.0 31.0 16.0 C 32.5 18.0 31.0 18.0 31.0 18.0 C 31.0 18.0 25.5 19.167 24.0 20.0 C 22.5 20.833 22.0 23.0 22.0 23.0 C 22.0 23.0 30.5 18.667 34.0 18.0 C 37.5 17.333 43.0 19.0 43.0 19.0 C 43.0 19.0 42.0 15.0 42.0 15.0 C 42.0 15.0 44.5 13.667 45.0 13.0 C 45.5 12.333 43.667 12.5 45.0 11.0 C 46.333 9.5 50.333 5.833 53.0 4.0 C 55.667 2.167 61.0 0.0 61.0 0.0 Z M 58.0 40.0 C 58.0 40.0 56.0 29.5 56.0 27.0 C 56.0 24.5 57.667 25.833 58.0 25.0 C 58.333 24.167 58.0 22.0 58.0 22.0 C 58.0 22.0 60.0 21.333 61.0 22.0 C 62.0 22.667 63.333 24.333 64.0 26.0 C 64.667 27.667 65.167 30.167 65.0 32.0 C 64.833 33.833 64.167 35.667 63.0 37.0 C 61.833 38.333 58.0 40.0 58.0 40.0 Z M 47.0 24.0 C 47.0 24.0 39.333 21.667 35.0 24.0 C 30.667 26.333 23.333 34.5 21.0 38.0 C 18.667 41.5 21.0 45.0 21.0 45.0 C 21.0 45.0 39.0 46.0 39.0 46.0 C 39.0 46.0 39.0 52.0 39.0 52.0 C 39.0 52.0 46.0 53.0 46.0 53.0 C 46.0 53.0 46.333 47.333 47.0 46.0 C 47.667 44.667 50.0 45.0 50.0 45.0 C 50.0 45.0 50.0 41.0 50.0 41.0 C 50.0 41.0 47.0 40.0 47.0 40.0 C 47.0 40.0 47.0 24.0 47.0 24.0 Z M 39.0 29.0 C 39.0 29.0 39.0 40.0 39.0 40.0 C 39.0 40.0 29.0 40.0 29.0 40.0 C 29.0 40.0 27.667 38.833 29.0 37.0 C 30.333 35.167 35.333 30.333 37.0 29.0 C 38.667 27.667 39.0 29.0 39.0 29.0 Z M 0.0 53.0 C 0.0 53.0 7.0 35.0 7.0 35.0 C 7.0 35.0 7.167 37.0 8.0 38.0 C 8.833 39.0 11.5 39.5 12.0 41.0 C 12.5 42.5 11.833 45.333 11.0 47.0 C 10.167 48.667 8.833 50.0 7.0 51.0 C 5.167 52.0 0.0 53.0 0.0 53.0 Z M 72.0 53.0 C 72.0 53.0 64.833 51.0 63.0 50.0 C 61.167 49.0 61.333 48.667 61.0 47.0 C 60.667 45.333 60.333 42.0 61.0 40.0 C 61.667 38.0 65.0 35.0 65.0 35.0 C 65.0 35.0 72.0 53.0 72.0 53.0 Z"/>
</svg>
