<?xml version="1.0" encoding="UTF-8"?>
<svg xmlns="http://www.w3.org/2000/svg" width="1mm" height="0.991923mm" viewBox="0 0 65.055 64.529">
  <path fill="black" fill-rule="evenodd" d="M 1.741 55.861 C -0.093 52.527 0.574 46.194 0.741 43.861 C 0.907 41.527 2.407 45.361 2.741 41.861 C 3.074 38.361 3.074 26.361 2.741 22.861 C 2.407 19.361 1.074 22.861 0.741 20.861 C 0.407 18.861 -0.759 14.194 0.741 10.861 C 2.241 7.527 6.407 2.527 9.741 0.861 C 13.074 -0.806 18.241 0.361 20.741 0.861 C 23.241 1.361 21.241 3.361 24.741 3.861 C 28.241 4.361 38.574 4.361 41.741 3.861 C 44.907 3.361 41.741 1.361 43.741 0.861 C 45.741 0.361 50.407 -0.639 53.741 0.861 C 57.074 2.361 61.907 6.527 63.741 9.861 C 65.574 13.194 64.907 18.694 64.741 20.861 C 64.574 23.027 63.241 19.694 62.741 22.861 C 62.241 26.027 61.407 36.361 61.741 39.861 C 62.074 43.361 64.241 41.861 64.741 43.861 C 65.241 45.861 65.074 49.694 64.741 51.861 C 64.407 54.027 64.074 55.027 62.741 56.861 C 61.407 58.694 60.074 61.694 56.741 62.861 C 53.407 64.027 45.241 64.027 42.741 63.861 C 40.241 63.694 44.907 62.194 41.741 61.861 C 38.574 61.527 27.074 61.527 23.741 61.861 C 20.407 62.194 23.741 63.527 21.741 63.861 C 19.741 64.194 15.074 65.194 11.741 63.861 C 8.407 62.527 3.574 59.194 1.741 55.861 Z M 59.741 56.861 C 59.741 56.861 59.407 55.361 59.741 54.861 C 60.074 54.361 61.407 55.694 61.741 53.861 C 62.074 52.027 61.741 43.861 61.741 43.861 C 61.741 43.861 59.741 43.861 59.741 43.861 C 59.741 43.861 59.241 25.861 59.741 21.861 C 60.241 17.861 62.241 21.194 62.741 19.861 C 63.241 18.527 64.074 16.527 62.741 13.861 C 61.407 11.194 57.407 5.694 54.741 3.861 C 52.074 2.027 48.574 2.527 46.741 2.861 C 44.907 3.194 47.907 5.361 43.741 5.861 C 39.574 6.361 25.741 6.361 21.741 5.861 C 17.741 5.361 21.074 3.361 19.741 2.861 C 18.407 2.361 16.407 1.527 13.741 2.861 C 11.074 4.194 5.407 7.861 3.741 10.861 C 2.074 13.861 3.407 19.027 3.741 20.861 C 4.074 22.694 5.407 18.194 5.741 21.861 C 6.074 25.527 6.241 39.027 5.741 42.861 C 5.241 46.694 3.241 43.527 2.741 44.861 C 2.241 46.194 2.407 49.027 2.741 50.861 C 3.074 52.694 4.741 55.861 4.741 55.861 C 4.741 55.861 5.574 54.861 6.741 55.861 C 7.907 56.861 9.574 60.861 11.741 61.861 C 13.907 62.861 18.241 62.194 19.741 61.861 C 21.241 61.527 20.741 59.861 20.741 59.861 C 20.741 59.861 13.407 60.194 10.741 58.861 C 8.074 57.527 5.741 54.027 4.741 51.861 C 3.741 49.694 4.074 47.194 4.741 45.861 C 5.407 44.527 8.741 43.861 8.741 43.861 C 8.741 43.861 7.074 41.694 6.741 38.861 C 6.407 36.027 6.407 29.694 6.741 26.861 C 7.074 24.027 8.741 21.861 8.741 21.861 C 8.741 21.861 4.741 19.861 4.741 19.861 C 4.741 19.861 4.407 13.361 5.741 10.861 C 7.074 8.361 10.407 5.861 12.741 4.861 C 15.074 3.861 18.241 4.361 19.741 4.861 C 21.241 5.361 19.074 7.527 21.741 7.861 C 24.407 8.194 32.241 6.694 35.741 6.861 C 39.241 7.027 42.741 8.861 42.741 8.861 C 42.741 8.861 44.241 5.527 45.741 4.861 C 47.241 4.194 50.074 4.527 51.741 4.861 C 53.407 5.194 54.407 5.694 55.741 6.861 C 57.074 8.027 59.074 9.527 59.741 11.861 C 60.407 14.194 59.741 20.861 59.741 20.861 C 59.741 20.861 56.741 21.861 56.741 21.861 C 56.741 21.861 58.407 23.027 58.741 25.861 C 59.074 28.694 59.074 35.861 58.741 38.861 C 58.407 41.861 56.741 43.861 56.741 43.861 C 56.741 43.861 58.074 43.361 58.741 43.861 C 59.407 44.361 60.574 45.194 60.741 46.861 C 60.907 48.527 61.074 51.694 59.741 53.861 C 58.407 56.027 55.074 58.861 52.741 59.861 C 50.407 60.861 47.241 60.361 45.741 59.861 C 44.241 59.361 47.741 57.361 43.741 56.861 C 39.741 56.361 21.741 56.861 21.741 56.861 C 21.741 56.861 20.741 59.861 20.741 59.861 C 20.741 59.861 43.741 58.861 43.741 58.861 C 43.741 58.861 44.741 61.861 44.741 61.861 C 44.741 61.861 51.741 62.527 53.741 61.861 C 55.741 61.194 55.741 58.694 56.741 57.861 C 57.741 57.027 59.741 56.861 59.741 56.861 Z M 11.741 12.861 C 11.741 12.861 12.741 16.861 12.741 16.861 C 12.741 16.861 16.741 16.861 16.741 16.861 C 16.741 16.861 17.907 14.694 17.741 13.861 C 17.574 13.027 16.741 12.027 15.741 11.861 C 14.741 11.694 11.741 12.861 11.741 12.861 Z M 48.741 16.861 C 48.741 16.861 53.741 15.861 53.741 15.861 C 53.741 15.861 52.741 11.861 52.741 11.861 C 52.741 11.861 48.741 12.861 48.741 12.861 C 48.741 12.861 48.741 16.861 48.741 16.861 Z M 19.741 46.861 C 19.741 46.861 45.741 45.861 45.741 45.861 C 45.741 45.861 47.074 36.527 46.741 33.861 C 46.407 31.194 46.907 30.527 43.741 29.861 C 40.574 29.194 27.741 29.861 27.741 29.861 C 27.741 29.861 27.741 22.861 27.741 22.861 C 27.741 22.861 46.741 22.861 46.741 22.861 C 46.741 22.861 45.741 17.861 45.741 17.861 C 45.741 17.861 19.741 18.861 19.741 18.861 C 19.741 18.861 19.741 34.861 19.741 34.861 C 19.741 34.861 38.741 35.861 38.741 35.861 C 38.741 35.861 38.741 41.861 38.741 41.861 C 38.741 41.861 20.741 41.861 20.741 41.861 C 20.741 41.861 19.741 46.861 19.741 46.861 Z M 11.741 51.861 C 11.741 51.861 16.741 52.861 16.741 52.861 C 16.741 52.861 16.741 47.861 16.741 47.861 C 16.741 47.861 12.741 47.861 12.741 47.861 C 12.741 47.861 11.741 51.861 11.741 51.861 Z M 53.741 51.861 C 53.741 51.861 52.574 48.527 51.741 47.861 C 50.907 47.194 48.741 47.861 48.741 47.861 C 48.741 47.861 48.741 52.861 48.741 52.861 C 48.741 52.861 53.741 51.861 53.741 51.861 Z"/>
</svg>
