<?xml version="1.0" encoding="UTF-8"?>
<svg xmlns="http://www.w3.org/2000/svg" width="64mm" height="63mm" viewBox="0 0 64 63">
  <rect x="0" y="44" width="2" height="6" fill="black"/>
  <rect x="0" y="10" width="3" height="10" fill="black"/>
  <rect x="0" y="43" width="3" height="1" fill="black"/>
  <rect x="0" y="50" width="3" height="2" fill="black"/>
  <rect x="1" y="52" width="2" height="1" fill="black"/>
  <rect x="1" y="9" width="3" height="1" fill="black"/>
  <rect x="1" y="20" width="3" height="1" fill="black"/>
  <rect x="1" y="42" width="3" height="1" fill="black"/>
  <rect x="1" y="53" width="3" height="2" fill="black"/>
  <rect x="1" y="21" width="4" height="1" fill="black"/>
  <rect x="1" y="41" width="4" height="1" fill="black"/>
  <rect x="2" y="8" width="3" height="1" fill="black"/>
  <rect x="2" y="22" width="3" height="19" fill="black"/>
  <rect x="2" y="55" width="4" height="1" fill="black"/>
  <rect x="3" y="7" width="3" height="1" fill="black"/>
  <rect x="3" y="6" width="4" height="1" fill="black"/>
  <rect x="3" y="56" width="4" height="1" fill="black"/>
  <rect x="4" y="5" width="4" height="1" fill="black"/>
  <rect x="4" y="12" width="7" height="3" fill="black"/>
  <rect x="4" y="49" width="7" height="2" fill="black"/>
  <rect x="4" y="15" width="8" height="1" fill="black"/>
  <rect x="4" y="47" width="8" height="2" fill="black"/>
  <rect x="4" y="18" width="15" height="1" fill="black"/>
  <rect x="4" y="45" width="15" height="1" fill="black"/>
  <rect x="4" y="17" width="16" height="1" fill="black"/>
  <rect x="4" y="16" width="55" height="1" fill="black"/>
  <rect x="4" y="46" width="56" height="1" fill="black"/>
  <rect x="5" y="57" width="3" height="1" fill="black"/>
  <rect x="5" y="4" width="4" height="1" fill="black"/>
  <rect x="5" y="11" width="7" height="1" fill="black"/>
  <rect x="5" y="51" width="7" height="1" fill="black"/>
  <rect x="5" y="44" width="14" height="1" fill="black"/>
  <rect x="5" y="10" width="53" height="1" fill="black"/>
  <rect x="5" y="52" width="54" height="1" fill="black"/>
  <rect x="6" y="58" width="3" height="1" fill="black"/>
  <rect x="6" y="3" width="4" height="1" fill="black"/>
  <rect x="6" y="59" width="4" height="1" fill="black"/>
  <rect x="6" y="19" width="13" height="1" fill="black"/>
  <rect x="6" y="26" width="13" height="4" fill="black"/>
  <rect x="6" y="43" width="13" height="1" fill="black"/>
  <rect x="6" y="34" width="31" height="1" fill="black"/>
  <rect x="6" y="35" width="32" height="3" fill="black"/>
  <rect x="6" y="9" width="52" height="1" fill="black"/>
  <rect x="6" y="53" width="52" height="1" fill="black"/>
  <rect x="7" y="60" width="4" height="1" fill="black"/>
  <rect x="7" y="2" width="6" height="1" fill="black"/>
  <rect x="7" y="20" width="12" height="1" fill="black"/>
  <rect x="7" y="23" width="12" height="3" fill="black"/>
  <rect x="7" y="30" width="12" height="4" fill="black"/>
  <rect x="7" y="38" width="31" height="3" fill="black"/>
  <rect x="7" y="8" width="50" height="1" fill="black"/>
  <rect x="7" y="54" width="50" height="1" fill="black"/>
  <rect x="8" y="21" width="11" height="2" fill="black"/>
  <rect x="8" y="42" width="11" height="1" fill="black"/>
  <rect x="8" y="41" width="12" height="1" fill="black"/>
  <rect x="8" y="1" width="14" height="1" fill="black"/>
  <rect x="8" y="61" width="15" height="1" fill="black"/>
  <rect x="8" y="7" width="34" height="1" fill="black"/>
  <rect x="8" y="55" width="48" height="1" fill="black"/>
  <rect x="9" y="0" width="11" height="1" fill="black"/>
  <rect x="9" y="6" width="12" height="1" fill="black"/>
  <rect x="9" y="56" width="12" height="1" fill="black"/>
  <rect x="10" y="5" width="10" height="1" fill="black"/>
  <rect x="10" y="57" width="10" height="1" fill="black"/>
  <rect x="11" y="62" width="10" height="1" fill="black"/>
  <rect x="12" y="4" width="7" height="1" fill="black"/>
  <rect x="12" y="58" width="8" height="1" fill="black"/>
  <rect x="15" y="11" width="34" height="1" fill="black"/>
  <rect x="16" y="12" width="32" height="1" fill="black"/>
  <rect x="16" y="14" width="32" height="2" fill="black"/>
  <rect x="16" y="47" width="32" height="2" fill="black"/>
  <rect x="16" y="50" width="32" height="2" fill="black"/>
  <rect x="17" y="49" width="30" height="1" fill="black"/>
  <rect x="17" y="13" width="31" height="1" fill="black"/>
  <rect x="19" y="2" width="5" height="1" fill="black"/>
  <rect x="19" y="60" width="25" height="1" fill="black"/>
  <rect x="20" y="59" width="23" height="1" fill="black"/>
  <rect x="20" y="3" width="24" height="1" fill="black"/>
  <rect x="21" y="58" width="3" height="1" fill="black"/>
  <rect x="21" y="4" width="10" height="1" fill="black"/>
  <rect x="24" y="56" width="16" height="1" fill="black"/>
  <rect x="27" y="6" width="8" height="1" fill="black"/>
  <rect x="27" y="22" width="29" height="1" fill="black"/>
  <rect x="27" y="23" width="30" height="2" fill="black"/>
  <rect x="27" y="25" width="31" height="4" fill="black"/>
  <rect x="33" y="4" width="10" height="1" fill="black"/>
  <rect x="40" y="58" width="3" height="1" fill="black"/>
  <rect x="41" y="2" width="5" height="1" fill="black"/>
  <rect x="41" y="61" width="15" height="1" fill="black"/>
  <rect x="42" y="62" width="12" height="1" fill="black"/>
  <rect x="42" y="1" width="13" height="1" fill="black"/>
  <rect x="43" y="0" width="10" height="1" fill="black"/>
  <rect x="43" y="6" width="12" height="1" fill="black"/>
  <rect x="43" y="56" width="12" height="1" fill="black"/>
  <rect x="43" y="7" width="13" height="1" fill="black"/>
  <rect x="43" y="29" width="15" height="1" fill="black"/>
  <rect x="44" y="5" width="9" height="1" fill="black"/>
  <rect x="44" y="57" width="10" height="1" fill="black"/>
  <rect x="44" y="30" width="13" height="1" fill="black"/>
  <rect x="44" y="45" width="15" height="1" fill="black"/>
  <rect x="45" y="4" width="6" height="1" fill="black"/>
  <rect x="45" y="58" width="7" height="1" fill="black"/>
  <rect x="45" y="31" width="12" height="2" fill="black"/>
  <rect x="45" y="43" width="13" height="1" fill="black"/>
  <rect x="45" y="17" width="14" height="1" fill="black"/>
  <rect x="45" y="44" width="14" height="1" fill="black"/>
  <rect x="46" y="21" width="10" height="1" fill="black"/>
  <rect x="46" y="41" width="10" height="2" fill="black"/>
  <rect x="46" y="20" width="11" height="1" fill="black"/>
  <rect x="46" y="33" width="11" height="1" fill="black"/>
  <rect x="46" y="38" width="11" height="3" fill="black"/>
  <rect x="46" y="34" width="12" height="4" fill="black"/>
  <rect x="46" y="18" width="13" height="2" fill="black"/>
  <rect x="51" y="47" width="9" height="1" fill="black"/>
  <rect x="52" y="2" width="4" height="1" fill="black"/>
  <rect x="52" y="11" width="7" height="2" fill="black"/>
  <rect x="52" y="15" width="7" height="1" fill="black"/>
  <rect x="52" y="51" width="7" height="1" fill="black"/>
  <rect x="52" y="48" width="8" height="1" fill="black"/>
  <rect x="53" y="60" width="4" height="1" fill="black"/>
  <rect x="53" y="13" width="6" height="2" fill="black"/>
  <rect x="53" y="49" width="7" height="2" fill="black"/>
  <rect x="54" y="3" width="3" height="1" fill="black"/>
  <rect x="54" y="59" width="4" height="1" fill="black"/>
  <rect x="55" y="4" width="3" height="1" fill="black"/>
  <rect x="55" y="58" width="4" height="1" fill="black"/>
  <rect x="56" y="5" width="3" height="1" fill="black"/>
  <rect x="56" y="57" width="4" height="1" fill="black"/>
  <rect x="57" y="6" width="3" height="1" fill="black"/>
  <rect x="58" y="7" width="3" height="1" fill="black"/>
  <rect x="58" y="56" width="3" height="1" fill="black"/>
  <rect x="59" y="32" width="2" height="7" fill="black"/>
  <rect x="59" y="8" width="3" height="1" fill="black"/>
  <rect x="59" y="22" width="3" height="10" fill="black"/>
  <rect x="59" y="39" width="3" height="3" fill="black"/>
  <rect x="59" y="54" width="3" height="2" fill="black"/>
  <rect x="59" y="21" width="4" height="1" fill="black"/>
  <rect x="59" y="42" width="4" height="1" fill="black"/>
  <rect x="60" y="9" width="3" height="2" fill="black"/>
  <rect x="60" y="20" width="3" height="1" fill="black"/>
  <rect x="60" y="53" width="3" height="1" fill="black"/>
  <rect x="61" y="11" width="2" height="1" fill="black"/>
  <rect x="61" y="51" width="2" height="2" fill="black"/>
  <rect x="61" y="12" width="3" height="1" fill="black"/>
  <rect x="61" y="19" width="3" height="1" fill="black"/>
  <rect x="61" y="43" width="3" height="8" fill="black"/>
  <rect x="62" y="13" width="2" height="6" fill="black"/>
</svg>
