<?xml version="1.0" encoding="UTF-8"?>
<svg xmlns="http://www.w3.org/2000/svg" width="1mm" height="0.987013mm" viewBox="0 0 77 76">
  <rect x="0" y="37" width="1" height="2" fill="black"/>
  <rect x="0" y="32" width="2" height="5" fill="black"/>
  <rect x="0" y="39" width="2" height="5" fill="black"/>
  <rect x="0" y="31" width="3" height="1" fill="black"/>
  <rect x="1" y="44" width="2" height="1" fill="black"/>
  <rect x="1" y="30" width="3" height="1" fill="black"/>
  <rect x="1" y="45" width="3" height="1" fill="black"/>
  <rect x="2" y="29" width="3" height="1" fill="black"/>
  <rect x="2" y="46" width="3" height="1" fill="black"/>
  <rect x="3" y="28" width="2" height="1" fill="black"/>
  <rect x="3" y="47" width="3" height="1" fill="black"/>
  <rect x="4" y="27" width="3" height="1" fill="black"/>
  <rect x="4" y="48" width="3" height="1" fill="black"/>
  <rect x="4" y="34" width="21" height="8" fill="black"/>
  <rect x="5" y="26" width="3" height="1" fill="black"/>
  <rect x="5" y="49" width="3" height="1" fill="black"/>
  <rect x="5" y="32" width="20" height="2" fill="black"/>
  <rect x="5" y="42" width="20" height="2" fill="black"/>
  <rect x="6" y="25" width="3" height="1" fill="black"/>
  <rect x="6" y="50" width="4" height="1" fill="black"/>
  <rect x="6" y="31" width="19" height="1" fill="black"/>
  <rect x="6" y="44" width="19" height="1" fill="black"/>
  <rect x="7" y="24" width="6" height="1" fill="black"/>
  <rect x="7" y="30" width="18" height="1" fill="black"/>
  <rect x="7" y="45" width="18" height="1" fill="black"/>
  <rect x="8" y="29" width="17" height="1" fill="black"/>
  <rect x="8" y="46" width="17" height="1" fill="black"/>
  <rect x="8" y="51" width="22" height="1" fill="black"/>
  <rect x="9" y="28" width="16" height="1" fill="black"/>
  <rect x="9" y="23" width="17" height="1" fill="black"/>
  <rect x="10" y="47" width="15" height="1" fill="black"/>
  <rect x="10" y="52" width="58" height="1" fill="black"/>
  <rect x="11" y="27" width="14" height="1" fill="black"/>
  <rect x="11" y="48" width="14" height="1" fill="black"/>
  <rect x="16" y="24" width="10" height="1" fill="black"/>
  <rect x="17" y="26" width="8" height="1" fill="black"/>
  <rect x="17" y="49" width="9" height="1" fill="black"/>
  <rect x="18" y="25" width="7" height="1" fill="black"/>
  <rect x="18" y="50" width="9" height="1" fill="black"/>
  <rect x="20" y="22" width="7" height="1" fill="black"/>
  <rect x="21" y="53" width="35" height="1" fill="black"/>
  <rect x="22" y="54" width="32" height="1" fill="black"/>
  <rect x="22" y="21" width="33" height="1" fill="black"/>
  <rect x="23" y="11" width="2" height="4" fill="black"/>
  <rect x="23" y="58" width="2" height="9" fill="black"/>
  <rect x="23" y="10" width="3" height="1" fill="black"/>
  <rect x="23" y="15" width="3" height="2" fill="black"/>
  <rect x="23" y="17" width="27" height="1" fill="black"/>
  <rect x="23" y="57" width="30" height="1" fill="black"/>
  <rect x="23" y="18" width="31" height="3" fill="black"/>
  <rect x="23" y="55" width="31" height="2" fill="black"/>
  <rect x="24" y="9" width="2" height="1" fill="black"/>
  <rect x="24" y="67" width="2" height="1" fill="black"/>
  <rect x="24" y="8" width="3" height="1" fill="black"/>
  <rect x="24" y="68" width="3" height="1" fill="black"/>
  <rect x="25" y="6" width="3" height="2" fill="black"/>
  <rect x="25" y="69" width="3" height="1" fill="black"/>
  <rect x="26" y="5" width="3" height="1" fill="black"/>
  <rect x="26" y="70" width="3" height="1" fill="black"/>
  <rect x="26" y="58" width="27" height="1" fill="black"/>
  <rect x="27" y="71" width="3" height="1" fill="black"/>
  <rect x="27" y="61" width="22" height="4" fill="black"/>
  <rect x="27" y="13" width="23" height="4" fill="black"/>
  <rect x="27" y="59" width="23" height="2" fill="black"/>
  <rect x="28" y="4" width="2" height="1" fill="black"/>
  <rect x="28" y="72" width="3" height="1" fill="black"/>
  <rect x="28" y="10" width="21" height="1" fill="black"/>
  <rect x="28" y="65" width="21" height="2" fill="black"/>
  <rect x="28" y="11" width="22" height="2" fill="black"/>
  <rect x="29" y="3" width="2" height="1" fill="black"/>
  <rect x="29" y="73" width="3" height="1" fill="black"/>
  <rect x="29" y="8" width="19" height="1" fill="black"/>
  <rect x="29" y="67" width="19" height="1" fill="black"/>
  <rect x="29" y="9" width="20" height="1" fill="black"/>
  <rect x="30" y="2" width="3" height="1" fill="black"/>
  <rect x="30" y="74" width="7" height="1" fill="black"/>
  <rect x="30" y="7" width="17" height="1" fill="black"/>
  <rect x="30" y="68" width="17" height="1" fill="black"/>
  <rect x="31" y="1" width="6" height="1" fill="black"/>
  <rect x="31" y="6" width="15" height="1" fill="black"/>
  <rect x="31" y="69" width="15" height="1" fill="black"/>
  <rect x="32" y="37" width="12" height="9" fill="black"/>
  <rect x="32" y="0" width="13" height="1" fill="black"/>
  <rect x="32" y="70" width="13" height="1" fill="black"/>
  <rect x="33" y="75" width="11" height="1" fill="black"/>
  <rect x="33" y="5" width="12" height="1" fill="black"/>
  <rect x="33" y="27" width="28" height="2" fill="black"/>
  <rect x="33" y="29" width="29" height="1" fill="black"/>
  <rect x="33" y="30" width="30" height="2" fill="black"/>
  <rect x="34" y="71" width="9" height="1" fill="black"/>
  <rect x="35" y="4" width="9" height="1" fill="black"/>
  <rect x="41" y="1" width="6" height="1" fill="black"/>
  <rect x="41" y="74" width="6" height="1" fill="black"/>
  <rect x="44" y="2" width="4" height="1" fill="black"/>
  <rect x="44" y="73" width="4" height="1" fill="black"/>
  <rect x="44" y="51" width="26" height="1" fill="black"/>
  <rect x="45" y="72" width="4" height="1" fill="black"/>
  <rect x="46" y="3" width="3" height="1" fill="black"/>
  <rect x="47" y="4" width="3" height="1" fill="black"/>
  <rect x="47" y="71" width="3" height="1" fill="black"/>
  <rect x="48" y="5" width="3" height="1" fill="black"/>
  <rect x="48" y="70" width="3" height="1" fill="black"/>
  <rect x="49" y="6" width="3" height="1" fill="black"/>
  <rect x="49" y="69" width="3" height="1" fill="black"/>
  <rect x="49" y="32" width="14" height="1" fill="black"/>
  <rect x="49" y="50" width="22" height="1" fill="black"/>
  <rect x="50" y="68" width="2" height="1" fill="black"/>
  <rect x="50" y="7" width="3" height="1" fill="black"/>
  <rect x="50" y="33" width="13" height="1" fill="black"/>
  <rect x="50" y="49" width="22" height="1" fill="black"/>
  <rect x="51" y="8" width="2" height="1" fill="black"/>
  <rect x="51" y="59" width="2" height="9" fill="black"/>
  <rect x="51" y="9" width="3" height="1" fill="black"/>
  <rect x="51" y="22" width="5" height="1" fill="black"/>
  <rect x="51" y="45" width="11" height="4" fill="black"/>
  <rect x="51" y="34" width="12" height="5" fill="black"/>
  <rect x="51" y="43" width="12" height="2" fill="black"/>
  <rect x="51" y="25" width="20" height="2" fill="black"/>
  <rect x="52" y="10" width="2" height="8" fill="black"/>
  <rect x="52" y="39" width="11" height="4" fill="black"/>
  <rect x="52" y="23" width="15" height="1" fill="black"/>
  <rect x="52" y="24" width="17" height="1" fill="black"/>
  <rect x="65" y="27" width="8" height="1" fill="black"/>
  <rect x="66" y="48" width="7" height="1" fill="black"/>
  <rect x="67" y="28" width="7" height="1" fill="black"/>
  <rect x="68" y="47" width="6" height="1" fill="black"/>
  <rect x="68" y="29" width="7" height="1" fill="black"/>
  <rect x="69" y="46" width="6" height="1" fill="black"/>
  <rect x="69" y="30" width="7" height="1" fill="black"/>
  <rect x="70" y="45" width="5" height="1" fill="black"/>
  <rect x="71" y="31" width="5" height="2" fill="black"/>
  <rect x="71" y="44" width="5" height="1" fill="black"/>
  <rect x="72" y="43" width="4" height="1" fill="black"/>
  <rect x="72" y="33" width="5" height="2" fill="black"/>
  <rect x="72" y="42" width="5" height="1" fill="black"/>
  <rect x="73" y="35" width="4" height="7" fill="black"/>
</svg>
