<?xml version="1.0" encoding="UTF-8"?>
<svg xmlns="http://www.w3.org/2000/svg" width="1mm" height="0.993170mm" viewBox="0 0 77.905 77.373">
  <path fill="black" fill-rule="evenodd" d="M 0.704 31.891 C 2.037 28.058 6.037 25.391 9.704 23.891 C 13.37 22.391 22.704 22.891 22.704 22.891 C 22.704 22.891 23.204 13.558 23.704 10.891 C 24.204 8.225 24.87 7.725 25.704 6.891 C 26.537 6.058 27.537 6.891 28.704 5.891 C 29.87 4.891 29.87 1.725 32.704 0.891 C 35.537 0.058 42.037 -0.609 45.704 0.891 C 49.37 2.391 53.204 6.391 54.704 9.891 C 56.204 13.391 54.37 19.558 54.704 21.891 C 55.037 24.225 54.537 23.558 56.704 23.891 C 58.87 24.225 64.37 22.725 67.704 23.891 C 71.037 25.058 75.037 27.558 76.704 30.891 C 78.37 34.225 77.87 41.058 77.704 43.891 C 77.537 46.725 77.204 46.225 75.704 47.891 C 74.204 49.558 72.204 52.725 68.704 53.891 C 65.204 55.058 54.704 54.891 54.704 54.891 C 54.704 54.891 54.87 65.391 53.704 68.891 C 52.537 72.391 51.037 74.558 47.704 75.891 C 44.37 77.225 37.537 77.891 33.704 76.891 C 29.87 75.891 26.37 73.391 24.704 69.891 C 23.037 66.391 24.204 58.558 23.704 55.891 C 23.204 53.225 23.87 54.225 21.704 53.891 C 19.537 53.558 14.037 55.058 10.704 53.891 C 7.37 52.725 3.37 50.558 1.704 46.891 C 0.037 43.225 -0.63 35.725 0.704 31.891 Z M 52.704 18.891 C 52.704 18.891 52.704 11.391 51.704 8.891 C 50.704 6.391 48.37 5.058 46.704 3.891 C 45.037 2.725 44.204 1.891 41.704 1.891 C 39.204 1.891 34.37 2.225 31.704 3.891 C 29.037 5.558 26.704 9.891 25.704 11.891 C 24.704 13.891 25.37 14.891 25.704 15.891 C 26.037 16.891 27.704 17.891 27.704 17.891 C 27.704 17.891 28.037 12.725 28.704 10.891 C 29.37 9.058 30.537 7.891 31.704 6.891 C 32.87 5.891 33.537 5.225 35.704 4.891 C 37.87 4.558 42.37 4.058 44.704 4.891 C 47.037 5.725 48.704 7.558 49.704 9.891 C 50.704 12.225 50.704 18.891 50.704 18.891 C 50.704 18.891 52.704 18.891 52.704 18.891 Z M 27.704 51.891 C 30.87 52.391 40.704 53.225 44.704 52.891 C 48.704 52.558 50.37 52.058 51.704 49.891 C 53.037 47.725 53.037 42.725 52.704 39.891 C 52.37 37.058 52.87 34.058 49.704 32.891 C 46.537 31.725 33.704 32.891 33.704 32.891 C 33.704 32.891 33.704 27.891 33.704 27.891 C 33.704 27.891 51.704 27.891 51.704 27.891 C 51.704 27.891 51.704 22.891 51.704 22.891 C 51.704 22.891 26.704 23.891 26.704 23.891 C 26.704 23.891 25.537 45.225 25.704 49.891 C 25.87 54.558 24.537 51.391 27.704 51.891 Z M 18.704 51.891 C 18.704 51.891 18.87 50.225 17.704 49.891 C 16.537 49.558 13.87 51.058 11.704 49.891 C 9.537 48.725 5.704 45.725 4.704 42.891 C 3.704 40.058 4.537 35.391 5.704 32.891 C 6.87 30.391 9.537 28.891 11.704 27.891 C 13.87 26.891 18.704 26.891 18.704 26.891 C 18.704 26.891 18.204 25.058 16.704 24.891 C 15.204 24.725 12.037 24.558 9.704 25.891 C 7.37 27.225 3.87 29.725 2.704 32.891 C 1.537 36.058 1.37 41.725 2.704 44.891 C 4.037 48.058 8.037 50.725 10.704 51.891 C 13.37 53.058 18.704 51.891 18.704 51.891 Z M 61.704 27.891 C 61.704 27.891 61.37 29.391 61.704 29.891 C 62.037 30.391 63.537 27.558 63.704 30.891 C 63.87 34.225 62.704 49.891 62.704 49.891 C 62.704 49.891 65.037 50.725 66.704 49.891 C 68.37 49.058 71.537 47.225 72.704 44.891 C 73.87 42.558 74.537 38.558 73.704 35.891 C 72.87 33.225 69.704 30.225 67.704 28.891 C 65.704 27.558 61.704 27.891 61.704 27.891 Z M 32.704 37.891 C 32.704 37.891 44.704 37.891 44.704 37.891 C 44.704 37.891 44.704 46.891 44.704 46.891 C 44.704 46.891 32.704 46.891 32.704 46.891 C 32.704 46.891 32.704 37.891 32.704 37.891 Z M 25.704 58.891 C 25.704 58.891 24.537 65.225 25.704 67.891 C 26.87 70.558 30.037 73.558 32.704 74.891 C 35.37 76.225 38.537 76.891 41.704 75.891 C 44.87 74.891 50.204 71.558 51.704 68.891 C 53.204 66.225 50.704 59.891 50.704 59.891 C 50.704 59.891 50.537 65.891 49.704 67.891 C 48.87 69.891 48.204 71.058 45.704 71.891 C 43.204 72.725 37.537 73.558 34.704 72.891 C 31.87 72.225 29.87 70.058 28.704 67.891 C 27.537 65.725 28.204 61.391 27.704 59.891 C 27.204 58.391 25.704 58.891 25.704 58.891 Z"/>
</svg>
