<?xml version="1.0" encoding="UTF-8"?>
<svg xmlns="http://www.w3.org/2000/svg" width="1mm" height="0.912114mm" viewBox="0 0 77.433 70.628">
  <path fill="black" fill-rule="evenodd" d="M 22.003 8.628 C 22.003 8.628 22.836 5.961 24.003 4.628 C 25.169 3.295 24.836 1.295 29.003 0.628 C 33.169 -0.039 44.669 -0.372 49.003 0.628 C 53.336 1.628 54.003 5.128 55.003 6.628 C 56.003 8.128 56.169 8.295 55.003 9.628 C 53.836 10.961 52.336 13.795 48.003 14.628 C 43.669 15.461 33.336 15.628 29.003 14.628 C 24.669 13.628 22.003 8.628 22.003 8.628 Z M 8.003 20.628 C 8.003 20.628 15.169 12.295 17.003 10.628 C 18.836 8.961 17.503 9.461 19.003 10.628 C 20.503 11.795 20.503 16.461 26.003 17.628 C 31.503 18.795 46.503 18.795 52.003 17.628 C 57.503 16.461 57.503 11.795 59.003 10.628 C 60.503 9.461 59.503 9.461 61.003 10.628 C 62.503 11.795 66.669 15.628 68.003 17.628 C 69.336 19.628 70.836 19.961 69.003 22.628 C 67.169 25.295 59.169 28.461 57.003 33.628 C 54.836 38.795 56.003 53.628 56.003 53.628 C 56.003 53.628 22.003 53.628 22.003 53.628 C 22.003 53.628 23.336 40.128 21.003 34.628 C 18.669 29.128 8.003 20.628 8.003 20.628 Z M 31.003 50.628 C 31.003 50.628 34.669 51.128 36.003 50.628 C 37.336 50.128 36.836 51.461 39.003 47.628 C 41.169 43.795 47.336 31.961 49.003 27.628 C 50.669 23.295 49.003 21.628 49.003 21.628 C 49.003 21.628 26.003 21.628 26.003 21.628 C 26.003 21.628 27.003 26.628 27.003 26.628 C 27.003 26.628 42.003 26.628 42.003 26.628 C 42.003 26.628 31.003 50.628 31.003 50.628 Z M 16.003 45.628 C 16.003 45.628 15.503 47.628 13.003 45.628 C 10.503 43.628 3.003 36.295 1.003 33.628 C -0.997 30.961 0.503 30.961 1.003 29.628 C 1.503 28.295 2.669 26.128 4.003 25.628 C 5.336 25.128 6.836 24.961 9.003 26.628 C 11.169 28.295 15.836 32.461 17.003 35.628 C 18.169 38.795 16.003 45.628 16.003 45.628 Z M 61.003 45.628 C 61.003 45.628 60.669 36.795 62.003 33.628 C 63.336 30.461 66.836 27.795 69.003 26.628 C 71.169 25.461 75.003 26.628 75.003 26.628 C 75.003 26.628 78.669 30.461 77.003 33.628 C 75.336 36.795 67.669 43.628 65.003 45.628 C 62.336 47.628 61.003 45.628 61.003 45.628 Z M 28.003 67.628 C 28.003 67.628 20.336 67.461 18.003 66.628 C 15.669 65.795 14.669 63.628 14.003 62.628 C 13.336 61.628 15.669 62.461 14.003 60.628 C 12.336 58.795 5.836 53.795 4.003 51.628 C 2.169 49.461 3.003 47.628 3.003 47.628 C 3.003 47.628 8.003 44.628 8.003 44.628 C 8.003 44.628 15.836 54.628 19.003 56.628 C 22.169 58.628 25.336 56.295 27.003 56.628 C 28.669 56.961 28.836 56.795 29.003 58.628 C 29.169 60.461 28.003 67.628 28.003 67.628 Z M 49.003 66.628 C 49.003 66.628 49.003 57.628 49.003 57.628 C 49.003 57.628 56.336 57.795 60.003 55.628 C 63.669 53.461 71.003 44.628 71.003 44.628 C 71.003 44.628 73.336 45.795 74.003 46.628 C 74.669 47.461 75.003 49.628 75.003 49.628 C 75.003 49.628 73.336 50.128 73.003 50.628 C 72.669 51.128 74.836 50.628 73.003 52.628 C 71.169 54.628 64.003 60.461 62.003 62.628 C 60.003 64.795 61.003 65.628 61.003 65.628 C 61.003 65.628 59.503 65.295 59.003 65.628 C 58.503 65.961 58.003 67.628 58.003 67.628 C 58.003 67.628 49.003 66.628 49.003 66.628 Z M 37.003 56.628 C 37.003 56.628 38.003 69.628 38.003 69.628 C 38.003 69.628 33.003 70.628 33.003 70.628 C 33.003 70.628 31.836 60.961 32.003 58.628 C 32.169 56.295 33.169 56.961 34.003 56.628 C 34.836 56.295 37.003 56.628 37.003 56.628 Z M 40.003 70.628 C 40.003 70.628 40.003 57.628 40.003 57.628 C 40.003 57.628 44.003 56.628 44.003 56.628 C 44.003 56.628 45.836 58.461 46.003 60.628 C 46.169 62.795 45.003 69.628 45.003 69.628 C 45.003 69.628 40.003 70.628 40.003 70.628 Z"/>
</svg>
