<?xml version="1.0" encoding="UTF-8"?>
<svg xmlns="http://www.w3.org/2000/svg" width="76mm" height="70mm" viewBox="0 0 76 70">
  <rect x="0" y="29" width="11" height="1" fill="black"/>
  <rect x="0" y="30" width="12" height="1" fill="black"/>
  <rect x="0" y="31" width="13" height="1" fill="black"/>
  <rect x="0" y="32" width="14" height="1" fill="black"/>
  <rect x="1" y="27" width="8" height="1" fill="black"/>
  <rect x="1" y="28" width="9" height="1" fill="black"/>
  <rect x="1" y="33" width="13" height="1" fill="black"/>
  <rect x="2" y="26" width="6" height="1" fill="black"/>
  <rect x="2" y="47" width="8" height="1" fill="black"/>
  <rect x="2" y="48" width="9" height="1" fill="black"/>
  <rect x="2" y="34" width="13" height="1" fill="black"/>
  <rect x="3" y="25" width="3" height="1" fill="black"/>
  <rect x="3" y="46" width="6" height="1" fill="black"/>
  <rect x="3" y="49" width="9" height="1" fill="black"/>
  <rect x="3" y="50" width="10" height="1" fill="black"/>
  <rect x="3" y="35" width="13" height="1" fill="black"/>
  <rect x="4" y="45" width="4" height="1" fill="black"/>
  <rect x="4" y="51" width="10" height="1" fill="black"/>
  <rect x="4" y="36" width="12" height="1" fill="black"/>
  <rect x="5" y="44" width="2" height="1" fill="black"/>
  <rect x="5" y="52" width="10" height="1" fill="black"/>
  <rect x="5" y="37" width="11" height="1" fill="black"/>
  <rect x="6" y="38" width="10" height="1" fill="black"/>
  <rect x="6" y="53" width="10" height="1" fill="black"/>
  <rect x="7" y="39" width="9" height="1" fill="black"/>
  <rect x="7" y="54" width="10" height="1" fill="black"/>
  <rect x="7" y="20" width="61" height="1" fill="black"/>
  <rect x="8" y="40" width="8" height="1" fill="black"/>
  <rect x="8" y="55" width="10" height="1" fill="black"/>
  <rect x="8" y="21" width="17" height="1" fill="black"/>
  <rect x="8" y="18" width="59" height="1" fill="black"/>
  <rect x="8" y="19" width="60" height="1" fill="black"/>
  <rect x="9" y="41" width="7" height="1" fill="black"/>
  <rect x="9" y="22" width="16" height="1" fill="black"/>
  <rect x="9" y="56" width="17" height="1" fill="black"/>
  <rect x="9" y="17" width="58" height="1" fill="black"/>
  <rect x="10" y="42" width="6" height="1" fill="black"/>
  <rect x="10" y="16" width="15" height="1" fill="black"/>
  <rect x="10" y="23" width="15" height="1" fill="black"/>
  <rect x="10" y="57" width="17" height="1" fill="black"/>
  <rect x="11" y="43" width="5" height="1" fill="black"/>
  <rect x="11" y="15" width="12" height="1" fill="black"/>
  <rect x="11" y="24" width="14" height="1" fill="black"/>
  <rect x="11" y="58" width="17" height="1" fill="black"/>
  <rect x="12" y="44" width="3" height="1" fill="black"/>
  <rect x="12" y="14" width="10" height="1" fill="black"/>
  <rect x="12" y="25" width="14" height="1" fill="black"/>
  <rect x="12" y="59" width="16" height="1" fill="black"/>
  <rect x="13" y="13" width="8" height="1" fill="black"/>
  <rect x="13" y="60" width="15" height="2" fill="black"/>
  <rect x="13" y="26" width="28" height="1" fill="black"/>
  <rect x="14" y="12" width="6" height="1" fill="black"/>
  <rect x="14" y="62" width="14" height="1" fill="black"/>
  <rect x="14" y="27" width="27" height="1" fill="black"/>
  <rect x="15" y="11" width="4" height="1" fill="black"/>
  <rect x="15" y="63" width="13" height="1" fill="black"/>
  <rect x="15" y="28" width="25" height="1" fill="black"/>
  <rect x="16" y="10" width="2" height="1" fill="black"/>
  <rect x="16" y="64" width="12" height="1" fill="black"/>
  <rect x="16" y="29" width="24" height="1" fill="black"/>
  <rect x="17" y="65" width="10" height="1" fill="black"/>
  <rect x="17" y="30" width="22" height="1" fill="black"/>
  <rect x="18" y="31" width="21" height="1" fill="black"/>
  <rect x="19" y="66" width="8" height="1" fill="black"/>
  <rect x="19" y="32" width="19" height="2" fill="black"/>
  <rect x="20" y="48" width="10" height="2" fill="black"/>
  <rect x="20" y="46" width="11" height="2" fill="black"/>
  <rect x="20" y="44" width="12" height="2" fill="black"/>
  <rect x="20" y="42" width="13" height="2" fill="black"/>
  <rect x="20" y="40" width="14" height="2" fill="black"/>
  <rect x="20" y="38" width="15" height="2" fill="black"/>
  <rect x="20" y="36" width="16" height="2" fill="black"/>
  <rect x="20" y="34" width="17" height="2" fill="black"/>
  <rect x="20" y="51" width="35" height="1" fill="black"/>
  <rect x="20" y="50" width="36" height="1" fill="black"/>
  <rect x="21" y="7" width="33" height="1" fill="black"/>
  <rect x="21" y="52" width="34" height="1" fill="black"/>
  <rect x="22" y="6" width="32" height="1" fill="black"/>
  <rect x="22" y="8" width="32" height="1" fill="black"/>
  <rect x="23" y="4" width="29" height="1" fill="black"/>
  <rect x="23" y="5" width="30" height="1" fill="black"/>
  <rect x="23" y="9" width="30" height="1" fill="black"/>
  <rect x="24" y="3" width="28" height="1" fill="black"/>
  <rect x="24" y="10" width="28" height="1" fill="black"/>
  <rect x="25" y="2" width="26" height="1" fill="black"/>
  <rect x="25" y="11" width="26" height="1" fill="black"/>
  <rect x="26" y="1" width="24" height="1" fill="black"/>
  <rect x="26" y="12" width="24" height="1" fill="black"/>
  <rect x="28" y="13" width="9" height="1" fill="black"/>
  <rect x="28" y="0" width="20" height="1" fill="black"/>
  <rect x="31" y="58" width="6" height="11" fill="black"/>
  <rect x="32" y="69" width="4" height="1" fill="black"/>
  <rect x="32" y="57" width="5" height="1" fill="black"/>
  <rect x="33" y="56" width="3" height="1" fill="black"/>
  <rect x="35" y="49" width="21" height="1" fill="black"/>
  <rect x="36" y="48" width="20" height="1" fill="black"/>
  <rect x="37" y="47" width="19" height="1" fill="black"/>
  <rect x="38" y="45" width="18" height="2" fill="black"/>
  <rect x="39" y="69" width="4" height="1" fill="black"/>
  <rect x="39" y="57" width="5" height="3" fill="black"/>
  <rect x="39" y="64" width="5" height="5" fill="black"/>
  <rect x="39" y="60" width="6" height="4" fill="black"/>
  <rect x="39" y="43" width="17" height="2" fill="black"/>
  <rect x="40" y="56" width="3" height="1" fill="black"/>
  <rect x="40" y="13" width="7" height="1" fill="black"/>
  <rect x="40" y="41" width="16" height="2" fill="black"/>
  <rect x="41" y="39" width="15" height="2" fill="black"/>
  <rect x="42" y="37" width="14" height="2" fill="black"/>
  <rect x="43" y="35" width="13" height="2" fill="black"/>
  <rect x="44" y="33" width="12" height="2" fill="black"/>
  <rect x="45" y="32" width="12" height="1" fill="black"/>
  <rect x="45" y="31" width="13" height="1" fill="black"/>
  <rect x="46" y="30" width="13" height="1" fill="black"/>
  <rect x="46" y="29" width="14" height="1" fill="black"/>
  <rect x="47" y="28" width="14" height="1" fill="black"/>
  <rect x="47" y="27" width="15" height="1" fill="black"/>
  <rect x="48" y="65" width="10" height="1" fill="black"/>
  <rect x="48" y="64" width="12" height="1" fill="black"/>
  <rect x="48" y="62" width="13" height="2" fill="black"/>
  <rect x="48" y="61" width="14" height="1" fill="black"/>
  <rect x="48" y="26" width="15" height="1" fill="black"/>
  <rect x="48" y="60" width="15" height="1" fill="black"/>
  <rect x="48" y="25" width="16" height="1" fill="black"/>
  <rect x="48" y="59" width="16" height="1" fill="black"/>
  <rect x="48" y="24" width="17" height="1" fill="black"/>
  <rect x="48" y="58" width="17" height="1" fill="black"/>
  <rect x="48" y="23" width="18" height="1" fill="black"/>
  <rect x="48" y="57" width="18" height="1" fill="black"/>
  <rect x="48" y="22" width="19" height="1" fill="black"/>
  <rect x="48" y="21" width="20" height="1" fill="black"/>
  <rect x="49" y="66" width="8" height="1" fill="black"/>
  <rect x="50" y="56" width="17" height="1" fill="black"/>
  <rect x="51" y="16" width="15" height="1" fill="black"/>
  <rect x="52" y="15" width="13" height="1" fill="black"/>
  <rect x="54" y="14" width="10" height="1" fill="black"/>
  <rect x="55" y="13" width="8" height="1" fill="black"/>
  <rect x="56" y="12" width="6" height="1" fill="black"/>
  <rect x="57" y="11" width="4" height="1" fill="black"/>
  <rect x="57" y="55" width="11" height="1" fill="black"/>
  <rect x="58" y="10" width="2" height="1" fill="black"/>
  <rect x="59" y="54" width="10" height="1" fill="black"/>
  <rect x="60" y="44" width="4" height="1" fill="black"/>
  <rect x="60" y="43" width="5" height="1" fill="black"/>
  <rect x="60" y="42" width="6" height="1" fill="black"/>
  <rect x="60" y="41" width="7" height="1" fill="black"/>
  <rect x="60" y="40" width="8" height="1" fill="black"/>
  <rect x="60" y="39" width="9" height="1" fill="black"/>
  <rect x="60" y="38" width="10" height="1" fill="black"/>
  <rect x="60" y="53" width="10" height="1" fill="black"/>
  <rect x="60" y="37" width="11" height="1" fill="black"/>
  <rect x="60" y="36" width="12" height="1" fill="black"/>
  <rect x="60" y="35" width="13" height="1" fill="black"/>
  <rect x="61" y="52" width="10" height="1" fill="black"/>
  <rect x="61" y="34" width="13" height="1" fill="black"/>
  <rect x="61" y="33" width="14" height="1" fill="black"/>
  <rect x="62" y="51" width="10" height="1" fill="black"/>
  <rect x="62" y="32" width="14" height="1" fill="black"/>
  <rect x="63" y="50" width="9" height="1" fill="black"/>
  <rect x="63" y="31" width="13" height="1" fill="black"/>
  <rect x="64" y="49" width="9" height="1" fill="black"/>
  <rect x="64" y="30" width="12" height="1" fill="black"/>
  <rect x="65" y="48" width="9" height="1" fill="black"/>
  <rect x="65" y="29" width="11" height="1" fill="black"/>
  <rect x="66" y="47" width="7" height="1" fill="black"/>
  <rect x="66" y="28" width="9" height="1" fill="black"/>
  <rect x="67" y="46" width="6" height="1" fill="black"/>
  <rect x="67" y="27" width="7" height="1" fill="black"/>
  <rect x="68" y="45" width="4" height="1" fill="black"/>
  <rect x="68" y="26" width="6" height="1" fill="black"/>
  <rect x="70" y="44" width="1" height="1" fill="black"/>
  <rect x="70" y="25" width="2" height="1" fill="black"/>
</svg>
