<?xml version="1.0" encoding="UTF-8"?>
<svg xmlns="http://www.w3.org/2000/svg" width="1mm" height="0.968118mm" viewBox="0 0 77.470 75.000">
  <path fill="black" fill-rule="evenodd" d="M 0.37 57.0 C 0.37 57.0 -0.463 52.667 0.37 51.0 C 1.204 49.333 3.204 48.167 5.37 47.0 C 7.537 45.833 11.87 44.833 13.37 44.0 C 14.87 43.167 13.704 42.333 14.37 42.0 C 15.037 41.667 16.537 42.667 17.37 42.0 C 18.204 41.333 19.037 39.167 19.37 38.0 C 19.704 36.833 19.37 35.0 19.37 35.0 C 19.37 35.0 13.037 35.5 11.37 35.0 C 9.704 34.5 10.37 32.5 9.37 32.0 C 8.37 31.5 5.37 32.0 5.37 32.0 C 5.37 32.0 5.37 29.333 6.37 28.0 C 7.37 26.667 10.537 25.333 11.37 24.0 C 12.204 22.667 10.704 21.333 11.37 20.0 C 12.037 18.667 14.537 18.667 15.37 16.0 C 16.204 13.333 16.37 4.0 16.37 4.0 C 16.37 4.0 18.204 11.333 19.37 13.0 C 20.537 14.667 23.37 14.0 23.37 14.0 C 23.37 14.0 25.37 11.0 25.37 11.0 C 25.37 11.0 25.37 16.0 25.37 16.0 C 25.37 16.0 19.204 17.333 17.37 19.0 C 15.537 20.667 14.704 24.333 14.37 26.0 C 14.037 27.667 14.537 28.333 15.37 29.0 C 16.204 29.667 18.37 30.0 19.37 30.0 C 20.37 30.0 20.87 30.167 21.37 29.0 C 21.87 27.833 21.704 24.5 22.37 23.0 C 23.037 21.5 23.537 20.833 25.37 20.0 C 27.204 19.167 33.37 18.0 33.37 18.0 C 33.37 18.0 32.204 18.5 31.37 17.0 C 30.537 15.5 28.87 11.0 28.37 9.0 C 27.87 7.0 27.87 6.5 28.37 5.0 C 28.87 3.5 31.37 0.0 31.37 0.0 C 31.37 0.0 31.704 3.0 32.37 4.0 C 33.037 5.0 34.704 4.833 35.37 6.0 C 36.037 7.167 36.37 11.0 36.37 11.0 C 36.37 11.0 42.37 11.0 42.37 11.0 C 42.37 11.0 41.87 7.167 42.37 6.0 C 42.87 4.833 44.87 4.833 45.37 4.0 C 45.87 3.167 45.37 1.0 45.37 1.0 C 45.37 1.0 47.37 1.0 47.37 1.0 C 47.37 1.0 49.87 5.167 49.37 8.0 C 48.87 10.833 44.37 18.0 44.37 18.0 C 44.37 18.0 50.537 19.0 52.37 20.0 C 54.204 21.0 54.704 22.333 55.37 24.0 C 56.037 25.667 56.37 30.0 56.37 30.0 C 56.37 30.0 61.204 29.5 62.37 29.0 C 63.537 28.5 63.704 28.5 63.37 27.0 C 63.037 25.5 61.37 21.667 60.37 20.0 C 59.37 18.333 58.537 17.5 57.37 17.0 C 56.204 16.5 54.37 17.333 53.37 17.0 C 52.37 16.667 51.537 15.833 51.37 15.0 C 51.204 14.167 52.37 12.0 52.37 12.0 C 52.37 12.0 53.37 13.833 54.37 14.0 C 55.37 14.167 57.37 14.667 58.37 13.0 C 59.37 11.333 60.37 4.0 60.37 4.0 C 60.37 4.0 62.037 2.833 62.37 5.0 C 62.704 7.167 61.87 14.667 62.37 17.0 C 62.87 19.333 64.704 17.833 65.37 19.0 C 66.037 20.167 65.704 22.833 66.37 24.0 C 67.037 25.167 68.537 24.5 69.37 26.0 C 70.204 27.5 71.37 33.0 71.37 33.0 C 71.37 33.0 69.37 32.0 69.37 32.0 C 69.37 32.0 68.204 34.333 66.37 35.0 C 64.537 35.667 58.37 36.0 58.37 36.0 C 58.37 36.0 58.204 39.0 58.37 40.0 C 58.537 41.0 58.704 41.667 59.37 42.0 C 60.037 42.333 60.037 41.0 62.37 42.0 C 64.704 43.0 70.87 46.333 73.37 48.0 C 75.87 49.667 76.87 50.5 77.37 52.0 C 77.87 53.5 76.37 57.0 76.37 57.0 C 76.37 57.0 67.704 57.667 63.37 59.0 C 59.037 60.333 52.704 63.667 50.37 65.0 C 48.037 66.333 49.037 66.0 49.37 67.0 C 49.704 68.0 52.204 69.667 52.37 71.0 C 52.537 72.333 50.37 75.0 50.37 75.0 C 50.37 75.0 44.704 70.0 43.37 68.0 C 42.037 66.0 42.37 63.0 42.37 63.0 C 42.37 63.0 46.87 63.667 48.37 63.0 C 49.87 62.333 49.87 59.833 51.37 59.0 C 52.87 58.167 55.87 59.167 57.37 58.0 C 58.87 56.833 60.37 52.0 60.37 52.0 C 60.37 52.0 57.37 52.0 57.37 52.0 C 57.37 52.0 57.704 53.833 56.37 55.0 C 55.037 56.167 49.37 59.0 49.37 59.0 C 49.37 59.0 50.37 57.5 47.37 57.0 C 44.37 56.5 34.37 55.833 31.37 56.0 C 28.37 56.167 30.37 57.667 29.37 58.0 C 28.37 58.333 27.037 59.0 25.37 58.0 C 23.704 57.0 20.704 53.0 19.37 52.0 C 18.037 51.0 17.37 52.0 17.37 52.0 C 17.37 52.0 17.87 55.833 19.37 57.0 C 20.87 58.167 24.704 58.0 26.37 59.0 C 28.037 60.0 28.037 62.333 29.37 63.0 C 30.704 63.667 34.37 63.0 34.37 63.0 C 34.37 63.0 35.37 65.167 34.37 67.0 C 33.37 68.833 29.704 72.833 28.37 74.0 C 27.037 75.167 26.87 74.333 26.37 74.0 C 25.87 73.667 25.37 73.0 25.37 72.0 C 25.37 71.0 25.87 68.833 26.37 68.0 C 26.87 67.167 28.37 67.0 28.37 67.0 C 28.37 67.0 30.87 66.667 27.37 65.0 C 23.87 63.333 11.87 58.333 7.37 57.0 C 2.87 55.667 0.37 57.0 0.37 57.0 Z M 49.37 23.0 C 49.37 23.0 28.37 24.0 28.37 24.0 C 28.37 24.0 27.204 32.667 27.37 35.0 C 27.537 37.333 29.37 37.0 29.37 38.0 C 29.37 39.0 27.704 39.167 27.37 41.0 C 27.037 42.833 27.037 47.167 27.37 49.0 C 27.704 50.833 25.704 51.667 29.37 52.0 C 33.037 52.333 49.37 51.0 49.37 51.0 C 49.37 51.0 49.37 23.0 49.37 23.0 Z M 34.37 28.0 C 34.37 28.0 44.37 28.0 44.37 28.0 C 44.37 28.0 44.37 35.0 44.37 35.0 C 44.37 35.0 34.37 35.0 34.37 35.0 C 34.37 35.0 34.37 28.0 34.37 28.0 Z M 34.37 40.0 C 34.37 40.0 44.37 40.0 44.37 40.0 C 44.37 40.0 44.37 47.0 44.37 47.0 C 44.37 47.0 34.37 47.0 34.37 47.0 C 34.37 47.0 34.37 40.0 34.37 40.0 Z"/>
</svg>
