<?xml version="1.0" encoding="UTF-8"?>
<svg xmlns="http://www.w3.org/2000/svg" width="1mm" height="0.974026mm" viewBox="0 0 77 75">
  <rect x="0" y="52" width="17" height="2" fill="black"/>
  <rect x="0" y="54" width="18" height="1" fill="black"/>
  <rect x="0" y="55" width="19" height="2" fill="black"/>
  <rect x="0" y="51" width="29" height="1" fill="black"/>
  <rect x="1" y="50" width="27" height="1" fill="black"/>
  <rect x="2" y="49" width="26" height="1" fill="black"/>
  <rect x="4" y="48" width="23" height="1" fill="black"/>
  <rect x="5" y="31" width="22" height="1" fill="black"/>
  <rect x="5" y="47" width="22" height="1" fill="black"/>
  <rect x="6" y="28" width="9" height="1" fill="black"/>
  <rect x="6" y="29" width="13" height="1" fill="black"/>
  <rect x="6" y="30" width="21" height="1" fill="black"/>
  <rect x="7" y="27" width="7" height="1" fill="black"/>
  <rect x="7" y="57" width="14" height="1" fill="black"/>
  <rect x="7" y="46" width="20" height="1" fill="black"/>
  <rect x="8" y="26" width="6" height="1" fill="black"/>
  <rect x="9" y="25" width="6" height="1" fill="black"/>
  <rect x="9" y="32" width="18" height="1" fill="black"/>
  <rect x="9" y="45" width="18" height="1" fill="black"/>
  <rect x="10" y="24" width="5" height="1" fill="black"/>
  <rect x="10" y="58" width="13" height="1" fill="black"/>
  <rect x="10" y="33" width="17" height="1" fill="black"/>
  <rect x="11" y="23" width="4" height="1" fill="black"/>
  <rect x="11" y="21" width="5" height="2" fill="black"/>
  <rect x="11" y="20" width="6" height="1" fill="black"/>
  <rect x="11" y="34" width="16" height="1" fill="black"/>
  <rect x="11" y="44" width="16" height="1" fill="black"/>
  <rect x="12" y="19" width="5" height="1" fill="black"/>
  <rect x="13" y="18" width="6" height="1" fill="black"/>
  <rect x="13" y="59" width="13" height="1" fill="black"/>
  <rect x="13" y="43" width="14" height="1" fill="black"/>
  <rect x="14" y="17" width="6" height="1" fill="black"/>
  <rect x="14" y="16" width="9" height="1" fill="black"/>
  <rect x="14" y="42" width="13" height="1" fill="black"/>
  <rect x="15" y="5" width="2" height="2" fill="black"/>
  <rect x="15" y="7" width="3" height="4" fill="black"/>
  <rect x="15" y="11" width="4" height="2" fill="black"/>
  <rect x="15" y="13" width="6" height="1" fill="black"/>
  <rect x="15" y="14" width="10" height="2" fill="black"/>
  <rect x="16" y="4" width="1" height="1" fill="black"/>
  <rect x="16" y="60" width="11" height="1" fill="black"/>
  <rect x="17" y="41" width="10" height="1" fill="black"/>
  <rect x="18" y="38" width="10" height="3" fill="black"/>
  <rect x="19" y="61" width="8" height="1" fill="black"/>
  <rect x="19" y="35" width="9" height="2" fill="black"/>
  <rect x="19" y="37" width="10" height="1" fill="black"/>
  <rect x="19" y="52" width="38" height="1" fill="black"/>
  <rect x="20" y="29" width="7" height="1" fill="black"/>
  <rect x="20" y="53" width="36" height="1" fill="black"/>
  <rect x="21" y="27" width="6" height="2" fill="black"/>
  <rect x="21" y="26" width="7" height="1" fill="black"/>
  <rect x="21" y="62" width="8" height="1" fill="black"/>
  <rect x="21" y="54" width="35" height="1" fill="black"/>
  <rect x="22" y="24" width="6" height="2" fill="black"/>
  <rect x="22" y="23" width="7" height="1" fill="black"/>
  <rect x="22" y="55" width="32" height="1" fill="black"/>
  <rect x="23" y="13" width="2" height="1" fill="black"/>
  <rect x="23" y="63" width="11" height="1" fill="black"/>
  <rect x="23" y="22" width="31" height="1" fill="black"/>
  <rect x="24" y="11" width="1" height="2" fill="black"/>
  <rect x="24" y="56" width="6" height="1" fill="black"/>
  <rect x="24" y="21" width="29" height="1" fill="black"/>
  <rect x="25" y="57" width="4" height="1" fill="black"/>
  <rect x="25" y="71" width="5" height="1" fill="black"/>
  <rect x="25" y="70" width="6" height="1" fill="black"/>
  <rect x="25" y="64" width="9" height="1" fill="black"/>
  <rect x="25" y="20" width="27" height="1" fill="black"/>
  <rect x="26" y="73" width="2" height="1" fill="black"/>
  <rect x="26" y="72" width="3" height="1" fill="black"/>
  <rect x="26" y="69" width="5" height="1" fill="black"/>
  <rect x="26" y="68" width="6" height="1" fill="black"/>
  <rect x="27" y="67" width="6" height="1" fill="black"/>
  <rect x="27" y="65" width="7" height="1" fill="black"/>
  <rect x="27" y="19" width="23" height="1" fill="black"/>
  <rect x="28" y="5" width="6" height="1" fill="black"/>
  <rect x="28" y="66" width="6" height="1" fill="black"/>
  <rect x="28" y="6" width="7" height="3" fill="black"/>
  <rect x="29" y="2" width="3" height="2" fill="black"/>
  <rect x="29" y="4" width="4" height="1" fill="black"/>
  <rect x="29" y="9" width="6" height="1" fill="black"/>
  <rect x="29" y="10" width="7" height="1" fill="black"/>
  <rect x="29" y="18" width="18" height="1" fill="black"/>
  <rect x="29" y="11" width="19" height="1" fill="black"/>
  <rect x="30" y="1" width="2" height="1" fill="black"/>
  <rect x="30" y="14" width="16" height="1" fill="black"/>
  <rect x="30" y="12" width="17" height="2" fill="black"/>
  <rect x="31" y="0" width="1" height="1" fill="black"/>
  <rect x="31" y="16" width="3" height="1" fill="black"/>
  <rect x="31" y="15" width="15" height="1" fill="black"/>
  <rect x="31" y="56" width="22" height="1" fill="black"/>
  <rect x="33" y="17" width="11" height="1" fill="black"/>
  <rect x="34" y="28" width="10" height="7" fill="black"/>
  <rect x="34" y="40" width="10" height="7" fill="black"/>
  <rect x="42" y="8" width="6" height="3" fill="black"/>
  <rect x="42" y="6" width="7" height="2" fill="black"/>
  <rect x="42" y="64" width="10" height="1" fill="black"/>
  <rect x="42" y="63" width="12" height="1" fill="black"/>
  <rect x="43" y="16" width="2" height="1" fill="black"/>
  <rect x="43" y="5" width="5" height="1" fill="black"/>
  <rect x="43" y="66" width="6" height="1" fill="black"/>
  <rect x="43" y="65" width="7" height="1" fill="black"/>
  <rect x="43" y="67" width="7" height="1" fill="black"/>
  <rect x="44" y="4" width="4" height="1" fill="black"/>
  <rect x="44" y="68" width="6" height="1" fill="black"/>
  <rect x="45" y="1" width="2" height="1" fill="black"/>
  <rect x="45" y="2" width="3" height="2" fill="black"/>
  <rect x="45" y="69" width="6" height="1" fill="black"/>
  <rect x="46" y="70" width="5" height="1" fill="black"/>
  <rect x="47" y="57" width="4" height="1" fill="black"/>
  <rect x="47" y="72" width="4" height="1" fill="black"/>
  <rect x="47" y="71" width="5" height="1" fill="black"/>
  <rect x="47" y="51" width="29" height="1" fill="black"/>
  <rect x="48" y="58" width="1" height="1" fill="black"/>
  <rect x="48" y="73" width="2" height="1" fill="black"/>
  <rect x="48" y="62" width="8" height="1" fill="black"/>
  <rect x="49" y="74" width="1" height="1" fill="black"/>
  <rect x="49" y="23" width="5" height="1" fill="black"/>
  <rect x="49" y="24" width="6" height="1" fill="black"/>
  <rect x="49" y="36" width="9" height="3" fill="black"/>
  <rect x="49" y="49" width="25" height="1" fill="black"/>
  <rect x="49" y="50" width="26" height="1" fill="black"/>
  <rect x="50" y="25" width="5" height="2" fill="black"/>
  <rect x="50" y="27" width="6" height="3" fill="black"/>
  <rect x="50" y="39" width="8" height="1" fill="black"/>
  <rect x="50" y="61" width="8" height="1" fill="black"/>
  <rect x="50" y="40" width="9" height="2" fill="black"/>
  <rect x="50" y="35" width="10" height="1" fill="black"/>
  <rect x="50" y="60" width="10" height="1" fill="black"/>
  <rect x="50" y="42" width="12" height="1" fill="black"/>
  <rect x="50" y="43" width="14" height="1" fill="black"/>
  <rect x="50" y="34" width="16" height="1" fill="black"/>
  <rect x="50" y="44" width="16" height="1" fill="black"/>
  <rect x="50" y="33" width="17" height="1" fill="black"/>
  <rect x="50" y="45" width="18" height="1" fill="black"/>
  <rect x="50" y="32" width="19" height="1" fill="black"/>
  <rect x="50" y="46" width="19" height="1" fill="black"/>
  <rect x="50" y="30" width="21" height="2" fill="black"/>
  <rect x="50" y="47" width="21" height="1" fill="black"/>
  <rect x="50" y="48" width="23" height="1" fill="black"/>
  <rect x="51" y="13" width="3" height="1" fill="black"/>
  <rect x="51" y="14" width="11" height="1" fill="black"/>
  <rect x="51" y="59" width="12" height="1" fill="black"/>
  <rect x="52" y="12" width="1" height="1" fill="black"/>
  <rect x="52" y="15" width="10" height="1" fill="black"/>
  <rect x="53" y="16" width="9" height="1" fill="black"/>
  <rect x="53" y="58" width="14" height="1" fill="black"/>
  <rect x="56" y="13" width="6" height="1" fill="black"/>
  <rect x="57" y="17" width="6" height="1" fill="black"/>
  <rect x="57" y="57" width="15" height="1" fill="black"/>
  <rect x="58" y="11" width="4" height="2" fill="black"/>
  <rect x="58" y="18" width="6" height="1" fill="black"/>
  <rect x="58" y="56" width="18" height="1" fill="black"/>
  <rect x="58" y="54" width="19" height="2" fill="black"/>
  <rect x="59" y="7" width="3" height="4" fill="black"/>
  <rect x="59" y="19" width="6" height="1" fill="black"/>
  <rect x="59" y="29" width="11" height="1" fill="black"/>
  <rect x="59" y="53" width="18" height="1" fill="black"/>
  <rect x="60" y="4" width="1" height="1" fill="black"/>
  <rect x="60" y="5" width="2" height="2" fill="black"/>
  <rect x="60" y="20" width="5" height="2" fill="black"/>
  <rect x="60" y="52" width="17" height="1" fill="black"/>
  <rect x="61" y="22" width="5" height="2" fill="black"/>
  <rect x="62" y="24" width="5" height="1" fill="black"/>
  <rect x="62" y="25" width="6" height="1" fill="black"/>
  <rect x="62" y="26" width="7" height="1" fill="black"/>
  <rect x="62" y="28" width="8" height="1" fill="black"/>
  <rect x="63" y="27" width="6" height="1" fill="black"/>
  <rect x="70" y="32" width="1" height="1" fill="black"/>
</svg>
