<?xml version="1.0" encoding="UTF-8"?>
<svg xmlns="http://www.w3.org/2000/svg" width="1mm" height="0.894737mm" viewBox="0 0 76 68">
  <rect x="0" y="14" width="6" height="1" fill="black"/>
  <rect x="0" y="15" width="7" height="1" fill="black"/>
  <rect x="1" y="13" width="3" height="1" fill="black"/>
  <rect x="1" y="16" width="8" height="1" fill="black"/>
  <rect x="2" y="17" width="9" height="1" fill="black"/>
  <rect x="3" y="42" width="7" height="6" fill="black"/>
  <rect x="3" y="40" width="8" height="2" fill="black"/>
  <rect x="3" y="48" width="8" height="3" fill="black"/>
  <rect x="4" y="18" width="8" height="1" fill="black"/>
  <rect x="4" y="38" width="8" height="2" fill="black"/>
  <rect x="4" y="51" width="8" height="1" fill="black"/>
  <rect x="4" y="52" width="9" height="1" fill="black"/>
  <rect x="5" y="36" width="7" height="1" fill="black"/>
  <rect x="5" y="37" width="8" height="1" fill="black"/>
  <rect x="5" y="19" width="9" height="1" fill="black"/>
  <rect x="5" y="53" width="9" height="1" fill="black"/>
  <rect x="5" y="54" width="11" height="1" fill="black"/>
  <rect x="6" y="24" width="4" height="1" fill="black"/>
  <rect x="6" y="35" width="4" height="1" fill="black"/>
  <rect x="6" y="25" width="6" height="1" fill="black"/>
  <rect x="6" y="26" width="7" height="1" fill="black"/>
  <rect x="6" y="55" width="12" height="1" fill="black"/>
  <rect x="7" y="34" width="1" height="1" fill="black"/>
  <rect x="7" y="20" width="8" height="1" fill="black"/>
  <rect x="7" y="27" width="8" height="1" fill="black"/>
  <rect x="7" y="56" width="17" height="1" fill="black"/>
  <rect x="8" y="28" width="8" height="1" fill="black"/>
  <rect x="8" y="21" width="9" height="1" fill="black"/>
  <rect x="8" y="57" width="16" height="1" fill="black"/>
  <rect x="9" y="58" width="15" height="1" fill="black"/>
  <rect x="10" y="29" width="6" height="1" fill="black"/>
  <rect x="10" y="22" width="8" height="1" fill="black"/>
  <rect x="10" y="59" width="14" height="1" fill="black"/>
  <rect x="12" y="13" width="4" height="1" fill="black"/>
  <rect x="12" y="30" width="4" height="1" fill="black"/>
  <rect x="12" y="14" width="5" height="1" fill="black"/>
  <rect x="12" y="23" width="6" height="1" fill="black"/>
  <rect x="12" y="15" width="7" height="1" fill="black"/>
  <rect x="12" y="60" width="12" height="1" fill="black"/>
  <rect x="12" y="45" width="15" height="1" fill="black"/>
  <rect x="12" y="44" width="31" height="1" fill="black"/>
  <rect x="13" y="24" width="5" height="1" fill="black"/>
  <rect x="13" y="16" width="7" height="1" fill="black"/>
  <rect x="13" y="46" width="13" height="3" fill="black"/>
  <rect x="13" y="41" width="30" height="3" fill="black"/>
  <rect x="14" y="17" width="8" height="1" fill="black"/>
  <rect x="14" y="61" width="10" height="1" fill="black"/>
  <rect x="14" y="49" width="12" height="1" fill="black"/>
  <rect x="14" y="40" width="15" height="1" fill="black"/>
  <rect x="15" y="25" width="3" height="1" fill="black"/>
  <rect x="15" y="50" width="12" height="1" fill="black"/>
  <rect x="15" y="39" width="13" height="1" fill="black"/>
  <rect x="16" y="18" width="6" height="1" fill="black"/>
  <rect x="16" y="37" width="11" height="2" fill="black"/>
  <rect x="16" y="51" width="42" height="1" fill="black"/>
  <rect x="17" y="19" width="5" height="1" fill="black"/>
  <rect x="17" y="62" width="6" height="1" fill="black"/>
  <rect x="17" y="31" width="9" height="6" fill="black"/>
  <rect x="18" y="28" width="8" height="3" fill="black"/>
  <rect x="18" y="52" width="38" height="1" fill="black"/>
  <rect x="19" y="20" width="2" height="1" fill="black"/>
  <rect x="19" y="26" width="7" height="2" fill="black"/>
  <rect x="20" y="25" width="6" height="1" fill="black"/>
  <rect x="21" y="24" width="6" height="1" fill="black"/>
  <rect x="21" y="10" width="8" height="1" fill="black"/>
  <rect x="21" y="9" width="9" height="1" fill="black"/>
  <rect x="22" y="23" width="5" height="1" fill="black"/>
  <rect x="22" y="11" width="6" height="1" fill="black"/>
  <rect x="22" y="22" width="6" height="1" fill="black"/>
  <rect x="22" y="8" width="10" height="1" fill="black"/>
  <rect x="23" y="21" width="7" height="1" fill="black"/>
  <rect x="23" y="7" width="10" height="1" fill="black"/>
  <rect x="23" y="6" width="28" height="1" fill="black"/>
  <rect x="24" y="12" width="4" height="1" fill="black"/>
  <rect x="24" y="5" width="27" height="1" fill="black"/>
  <rect x="25" y="13" width="2" height="1" fill="black"/>
  <rect x="25" y="4" width="24" height="1" fill="black"/>
  <rect x="25" y="20" width="26" height="1" fill="black"/>
  <rect x="26" y="3" width="22" height="1" fill="black"/>
  <rect x="26" y="19" width="23" height="1" fill="black"/>
  <rect x="27" y="18" width="21" height="1" fill="black"/>
  <rect x="27" y="53" width="22" height="1" fill="black"/>
  <rect x="28" y="2" width="19" height="1" fill="black"/>
  <rect x="28" y="17" width="19" height="1" fill="black"/>
  <rect x="29" y="58" width="4" height="5" fill="black"/>
  <rect x="29" y="65" width="4" height="3" fill="black"/>
  <rect x="29" y="63" width="5" height="2" fill="black"/>
  <rect x="29" y="16" width="17" height="1" fill="black"/>
  <rect x="29" y="54" width="18" height="1" fill="black"/>
  <rect x="30" y="1" width="15" height="1" fill="black"/>
  <rect x="30" y="15" width="15" height="1" fill="black"/>
  <rect x="31" y="13" width="13" height="1" fill="black"/>
  <rect x="31" y="55" width="13" height="1" fill="black"/>
  <rect x="31" y="14" width="14" height="1" fill="black"/>
  <rect x="32" y="0" width="10" height="1" fill="black"/>
  <rect x="32" y="12" width="12" height="1" fill="black"/>
  <rect x="33" y="11" width="10" height="1" fill="black"/>
  <rect x="33" y="27" width="10" height="9" fill="black"/>
  <rect x="34" y="10" width="7" height="1" fill="black"/>
  <rect x="35" y="61" width="4" height="1" fill="black"/>
  <rect x="35" y="62" width="5" height="6" fill="black"/>
  <rect x="36" y="60" width="3" height="1" fill="black"/>
  <rect x="37" y="56" width="2" height="1" fill="black"/>
  <rect x="41" y="60" width="5" height="5" fill="black"/>
  <rect x="41" y="7" width="11" height="1" fill="black"/>
  <rect x="42" y="58" width="3" height="1" fill="black"/>
  <rect x="42" y="67" width="3" height="1" fill="black"/>
  <rect x="42" y="59" width="4" height="1" fill="black"/>
  <rect x="42" y="65" width="4" height="2" fill="black"/>
  <rect x="43" y="8" width="10" height="1" fill="black"/>
  <rect x="44" y="9" width="9" height="1" fill="black"/>
  <rect x="45" y="21" width="7" height="1" fill="black"/>
  <rect x="45" y="10" width="9" height="1" fill="black"/>
  <rect x="46" y="11" width="7" height="1" fill="black"/>
  <rect x="46" y="50" width="13" height="1" fill="black"/>
  <rect x="47" y="13" width="3" height="1" fill="black"/>
  <rect x="47" y="12" width="4" height="1" fill="black"/>
  <rect x="48" y="22" width="5" height="1" fill="black"/>
  <rect x="48" y="49" width="12" height="1" fill="black"/>
  <rect x="49" y="23" width="5" height="2" fill="black"/>
  <rect x="49" y="25" width="6" height="1" fill="black"/>
  <rect x="49" y="26" width="7" height="2" fill="black"/>
  <rect x="49" y="28" width="8" height="2" fill="black"/>
  <rect x="49" y="30" width="9" height="7" fill="black"/>
  <rect x="49" y="37" width="10" height="3" fill="black"/>
  <rect x="49" y="40" width="11" height="2" fill="black"/>
  <rect x="49" y="42" width="12" height="3" fill="black"/>
  <rect x="49" y="47" width="12" height="2" fill="black"/>
  <rect x="49" y="45" width="13" height="2" fill="black"/>
  <rect x="51" y="60" width="13" height="1" fill="black"/>
  <rect x="51" y="59" width="14" height="1" fill="black"/>
  <rect x="51" y="58" width="15" height="1" fill="black"/>
  <rect x="51" y="57" width="16" height="1" fill="black"/>
  <rect x="51" y="56" width="17" height="1" fill="black"/>
  <rect x="52" y="62" width="6" height="1" fill="black"/>
  <rect x="52" y="61" width="10" height="1" fill="black"/>
  <rect x="53" y="19" width="6" height="1" fill="black"/>
  <rect x="53" y="18" width="8" height="1" fill="black"/>
  <rect x="54" y="20" width="3" height="1" fill="black"/>
  <rect x="54" y="17" width="8" height="1" fill="black"/>
  <rect x="55" y="16" width="9" height="1" fill="black"/>
  <rect x="57" y="24" width="6" height="1" fill="black"/>
  <rect x="57" y="15" width="7" height="1" fill="black"/>
  <rect x="57" y="23" width="8" height="1" fill="black"/>
  <rect x="57" y="55" width="12" height="1" fill="black"/>
  <rect x="58" y="25" width="4" height="1" fill="black"/>
  <rect x="58" y="22" width="8" height="1" fill="black"/>
  <rect x="59" y="14" width="5" height="1" fill="black"/>
  <rect x="59" y="21" width="9" height="1" fill="black"/>
  <rect x="60" y="13" width="3" height="1" fill="black"/>
  <rect x="60" y="30" width="5" height="1" fill="black"/>
  <rect x="60" y="29" width="6" height="1" fill="black"/>
  <rect x="60" y="28" width="8" height="1" fill="black"/>
  <rect x="60" y="54" width="10" height="1" fill="black"/>
  <rect x="61" y="31" width="2" height="1" fill="black"/>
  <rect x="61" y="20" width="9" height="1" fill="black"/>
  <rect x="61" y="27" width="9" height="1" fill="black"/>
  <rect x="61" y="53" width="9" height="1" fill="black"/>
  <rect x="62" y="52" width="8" height="1" fill="black"/>
  <rect x="62" y="19" width="9" height="1" fill="black"/>
  <rect x="63" y="26" width="7" height="1" fill="black"/>
  <rect x="63" y="37" width="7" height="1" fill="black"/>
  <rect x="63" y="38" width="8" height="3" fill="black"/>
  <rect x="63" y="50" width="8" height="2" fill="black"/>
  <rect x="64" y="25" width="6" height="1" fill="black"/>
  <rect x="64" y="49" width="7" height="1" fill="black"/>
  <rect x="64" y="41" width="8" height="3" fill="black"/>
  <rect x="64" y="48" width="8" height="1" fill="black"/>
  <rect x="64" y="18" width="9" height="1" fill="black"/>
  <rect x="65" y="36" width="4" height="1" fill="black"/>
  <rect x="65" y="44" width="7" height="4" fill="black"/>
  <rect x="66" y="24" width="4" height="1" fill="black"/>
  <rect x="66" y="17" width="8" height="1" fill="black"/>
  <rect x="67" y="35" width="2" height="1" fill="black"/>
  <rect x="67" y="16" width="8" height="1" fill="black"/>
  <rect x="69" y="15" width="7" height="1" fill="black"/>
  <rect x="71" y="14" width="4" height="1" fill="black"/>
  <rect x="73" y="13" width="1" height="1" fill="black"/>
</svg>
