<?xml version="1.0" encoding="UTF-8"?>
<svg xmlns="http://www.w3.org/2000/svg" width="1mm" height="0.901400mm" viewBox="0 0 76.000 68.506">
  <path fill="black" fill-rule="evenodd" d="M 54.0 11.506 C 54.0 11.506 51.167 14.006 50.0 14.506 C 48.833 15.006 47.0 14.506 47.0 14.506 C 47.0 14.506 47.667 13.506 47.0 12.506 C 46.333 11.506 45.333 9.34 43.0 8.506 C 40.667 7.673 35.5 7.006 33.0 7.506 C 30.5 8.006 29.0 10.34 28.0 11.506 C 27.0 12.673 27.0 14.506 27.0 14.506 C 27.0 14.506 26.0 15.006 25.0 14.506 C 24.0 14.006 21.667 12.34 21.0 11.506 C 20.333 10.673 20.167 10.84 21.0 9.506 C 21.833 8.173 24.167 5.006 26.0 3.506 C 27.833 2.006 29.333 1.006 32.0 0.506 C 34.667 0.006 38.833 -0.327 42.0 0.506 C 45.167 1.34 49.0 3.673 51.0 5.506 C 53.0 7.34 54.0 11.506 54.0 11.506 Z M 13.0 49.506 C 12.0 48.006 11.333 46.506 12.0 44.506 C 12.667 42.506 15.833 40.506 17.0 37.506 C 18.167 34.506 16.667 30.173 19.0 26.506 C 21.333 22.84 28.5 18.173 31.0 15.506 C 33.5 12.84 32.0 11.173 34.0 10.506 C 36.0 9.84 41.167 10.506 43.0 11.506 C 44.833 12.506 43.167 14.506 45.0 16.506 C 46.833 18.506 51.833 21.173 54.0 23.506 C 56.167 25.84 57.333 28.173 58.0 30.506 C 58.667 32.84 57.333 35.006 58.0 37.506 C 58.667 40.006 61.5 43.506 62.0 45.506 C 62.5 47.506 61.667 48.34 61.0 49.506 C 60.333 50.673 60.0 51.84 58.0 52.506 C 56.0 53.173 50.833 53.006 49.0 53.506 C 47.167 54.006 48.667 54.84 47.0 55.506 C 45.333 56.173 41.667 57.34 39.0 57.506 C 36.333 57.673 33.0 57.173 31.0 56.506 C 29.0 55.84 29.167 54.006 27.0 53.506 C 24.833 53.006 20.333 54.173 18.0 53.506 C 15.667 52.84 14.0 51.006 13.0 49.506 Z M 18.0 26.506 C 18.0 26.506 16.0 27.006 15.0 26.506 C 14.0 26.006 13.167 24.173 12.0 23.506 C 10.833 22.84 8.833 23.006 8.0 22.506 C 7.167 22.006 8.0 21.173 7.0 20.506 C 6.0 19.84 3.167 19.506 2.0 18.506 C 0.833 17.506 0.0 14.506 0.0 14.506 C 0.0 14.506 2.833 13.173 4.0 13.506 C 5.167 13.84 5.833 15.84 7.0 16.506 C 8.167 17.173 9.167 16.506 11.0 17.506 C 12.833 18.506 16.833 21.006 18.0 22.506 C 19.167 24.006 18.0 26.506 18.0 26.506 Z M 12.0 13.506 C 12.0 13.506 15.167 13.173 16.0 13.506 C 16.833 13.84 16.0 14.84 17.0 15.506 C 18.0 16.173 22.0 17.506 22.0 17.506 C 22.0 17.506 22.0 20.506 22.0 20.506 C 22.0 20.506 20.333 21.84 19.0 21.506 C 17.667 21.173 15.167 19.34 14.0 18.506 C 12.833 17.673 12.333 17.34 12.0 16.506 C 11.667 15.673 12.0 13.506 12.0 13.506 Z M 53.0 20.506 C 53.0 20.506 51.833 19.673 53.0 18.506 C 54.167 17.34 58.167 14.173 60.0 13.506 C 61.833 12.84 64.0 14.506 64.0 14.506 C 64.0 14.506 64.0 17.506 64.0 17.506 C 64.0 17.506 62.5 17.173 62.0 17.506 C 61.5 17.84 61.833 18.84 61.0 19.506 C 60.167 20.173 58.333 21.34 57.0 21.506 C 55.667 21.673 53.0 20.506 53.0 20.506 Z M 57.0 25.506 C 57.0 25.506 57.5 22.673 59.0 21.506 C 60.5 20.34 64.667 19.34 66.0 18.506 C 67.333 17.673 65.833 17.34 67.0 16.506 C 68.167 15.673 71.5 13.673 73.0 13.506 C 74.5 13.34 76.0 15.506 76.0 15.506 C 76.0 15.506 74.667 18.34 73.0 19.506 C 71.333 20.673 67.833 21.34 66.0 22.506 C 64.167 23.673 63.5 26.006 62.0 26.506 C 60.5 27.006 57.0 25.506 57.0 25.506 Z M 48.0 22.506 C 48.0 22.506 33.5 21.34 30.0 21.506 C 26.5 21.673 27.5 20.506 27.0 23.506 C 26.5 26.506 26.667 36.506 27.0 39.506 C 27.333 42.506 26.333 41.173 29.0 41.506 C 31.667 41.84 43.0 41.506 43.0 41.506 C 43.0 41.506 43.0 45.506 43.0 45.506 C 43.0 45.506 27.0 45.506 27.0 45.506 C 27.0 45.506 27.0 51.506 27.0 51.506 C 27.0 51.506 42.333 51.84 46.0 51.506 C 49.667 51.173 48.667 54.34 49.0 49.506 C 49.333 44.673 48.0 22.506 48.0 22.506 Z M 16.0 31.506 C 16.0 31.506 9.667 30.173 8.0 29.506 C 6.333 28.84 6.333 28.34 6.0 27.506 C 5.667 26.673 6.0 24.506 6.0 24.506 C 6.0 24.506 8.5 24.006 10.0 24.506 C 11.5 25.006 14.0 26.34 15.0 27.506 C 16.0 28.673 16.0 31.506 16.0 31.506 Z M 70.0 24.506 C 70.0 24.506 70.0 28.506 70.0 28.506 C 70.0 28.506 67.167 28.84 66.0 29.506 C 64.833 30.173 64.0 32.173 63.0 32.506 C 62.0 32.84 60.0 31.506 60.0 31.506 C 60.0 31.506 60.0 28.673 61.0 27.506 C 62.0 26.34 64.5 25.006 66.0 24.506 C 67.5 24.006 70.0 24.506 70.0 24.506 Z M 33.0 27.506 C 33.0 27.506 43.0 27.506 43.0 27.506 C 43.0 27.506 43.0 36.506 43.0 36.506 C 43.0 36.506 33.0 36.506 33.0 36.506 C 33.0 36.506 33.0 27.506 33.0 27.506 Z M 23.0 63.506 C 23.0 63.506 17.0 63.84 14.0 62.506 C 11.0 61.173 6.833 57.34 5.0 55.506 C 3.167 53.673 3.333 54.006 3.0 51.506 C 2.667 49.006 2.333 43.34 3.0 40.506 C 3.667 37.673 7.0 34.506 7.0 34.506 C 7.0 34.506 13.0 37.506 13.0 37.506 C 13.0 37.506 10.333 40.173 10.0 42.506 C 9.667 44.84 9.667 49.173 11.0 51.506 C 12.333 53.84 15.833 55.673 18.0 56.506 C 20.167 57.34 24.0 56.506 24.0 56.506 C 24.0 56.506 23.0 63.506 23.0 63.506 Z M 52.0 63.506 C 52.0 63.506 51.0 56.506 51.0 56.506 C 51.0 56.506 55.0 57.173 57.0 56.506 C 59.0 55.84 61.667 53.84 63.0 52.506 C 64.333 51.173 65.0 51.006 65.0 48.506 C 65.0 46.006 63.0 37.506 63.0 37.506 C 63.0 37.506 69.0 35.506 69.0 35.506 C 69.0 35.506 71.5 39.173 72.0 41.506 C 72.5 43.84 72.333 47.173 72.0 49.506 C 71.667 51.84 71.667 53.34 70.0 55.506 C 68.333 57.673 65.0 61.173 62.0 62.506 C 59.0 63.84 52.0 63.506 52.0 63.506 Z M 29.0 58.506 C 29.0 58.506 33.0 58.506 33.0 58.506 C 33.0 58.506 33.0 68.506 33.0 68.506 C 33.0 68.506 29.0 68.506 29.0 68.506 C 29.0 68.506 29.0 58.506 29.0 58.506 Z M 42.0 68.506 C 42.0 68.506 41.0 62.173 41.0 60.506 C 41.0 58.84 41.333 58.84 42.0 58.506 C 42.667 58.173 45.0 58.506 45.0 58.506 C 45.0 58.506 46.0 67.506 46.0 67.506 C 46.0 67.506 42.0 68.506 42.0 68.506 Z M 40.0 68.506 C 40.0 68.506 35.0 68.506 35.0 68.506 C 35.0 68.506 36.0 60.506 36.0 60.506 C 36.0 60.506 39.0 60.506 39.0 60.506 C 39.0 60.506 40.0 68.506 40.0 68.506 Z"/>
</svg>
